<svg width="70" height="71" viewBox="0 0 70 71" fill="none" xmlns="http://www.w3.org/2000/svg">
<path d="M70 35.9185C70 55.2484 54.33 70.9185 35 70.9185C15.67 70.9185 0 55.2484 0 35.9185C0 16.5885 15.67 0.918457 35 0.918457C54.33 0.918457 70 16.5885 70 35.9185Z" fill="url(#paint0_linear_114_170)"/>
<path d="M51.4756 20.6272C48.4609 19.2713 45.1968 18.2872 41.7967 17.7186C41.7669 17.7176 41.7372 17.723 41.7098 17.7344C41.6824 17.7457 41.6579 17.7627 41.638 17.7842C41.23 18.5059 40.754 19.4462 40.4366 20.1679C36.8303 19.6431 33.1627 19.6431 29.5563 20.1679C29.239 19.4244 28.763 18.5059 28.3323 17.7842C28.3096 17.7404 28.2416 17.7186 28.1736 17.7186C24.7735 18.2872 21.5321 19.2713 18.4947 20.6272C18.472 20.6272 18.4494 20.649 18.4267 20.6709C12.2612 29.5717 10.5612 38.2319 11.3998 46.8047C11.3998 46.8484 11.4225 46.8922 11.4678 46.914C15.548 49.8008 19.4694 51.5503 23.3455 52.7094C23.4135 52.7313 23.4815 52.7094 23.5042 52.6657C24.4109 51.4628 25.2269 50.1944 25.9296 48.8604C25.9749 48.7729 25.9296 48.6855 25.8389 48.6636C24.5469 48.1825 23.3228 47.6139 22.1215 46.9578C22.0308 46.914 22.0308 46.7828 22.0988 46.7172C22.3481 46.5423 22.5975 46.3454 22.8468 46.1705C22.8922 46.1267 22.9602 46.1267 23.0055 46.1486C30.803 49.5821 39.2126 49.5821 46.9195 46.1486C46.9648 46.1267 47.0328 46.1267 47.0782 46.1705C47.3275 46.3673 47.5768 46.5423 47.8262 46.7391C47.9168 46.8047 47.9168 46.9359 47.8035 46.9796C46.6248 47.6576 45.3781 48.2043 44.0861 48.6855C43.9954 48.7073 43.9727 48.8167 43.9954 48.8823C44.7208 50.2163 45.5368 51.4847 46.4208 52.6875C46.4888 52.7094 46.5568 52.7313 46.6248 52.7094C50.5236 51.5503 54.445 49.8008 58.5251 46.914C58.5705 46.8922 58.5931 46.8484 58.5931 46.8047C59.5905 36.8979 56.9384 28.3033 51.5663 20.6709C51.5436 20.649 51.5209 20.6272 51.4756 20.6272ZM27.1083 41.5779C24.7735 41.5779 22.8242 39.5004 22.8242 36.9417C22.8242 34.3829 24.7282 32.3054 27.1083 32.3054C29.511 32.3054 31.4151 34.4048 31.3924 36.9417C31.3924 39.5004 29.4883 41.5779 27.1083 41.5779ZM42.9074 41.5779C40.5726 41.5779 38.6233 39.5004 38.6233 36.9417C38.6233 34.3829 40.5273 32.3054 42.9074 32.3054C45.3101 32.3054 47.2142 34.4048 47.1915 36.9417C47.1915 39.5004 45.3101 41.5779 42.9074 41.5779Z" fill="white"/>
<defs>
<linearGradient id="paint0_linear_114_170" x1="35" y1="0.918457" x2="35" y2="70.9185" gradientUnits="userSpaceOnUse">
<stop stop-color="#5562F5"/>
<stop offset="1" stop-color="#5662F6"/>
</linearGradient>
</defs>
</svg>
