<svg width="70" height="71" viewBox="0 0 70 71" fill="none" xmlns="http://www.w3.org/2000/svg">
<path d="M70 35.9185C70 55.2484 54.33 70.9185 35 70.9185C15.67 70.9185 0 55.2484 0 35.9185C0 16.5885 15.67 0.918457 35 0.918457C54.33 0.918457 70 16.5885 70 35.9185Z" fill="url(#paint0_linear_114_146)"/>
<path d="M29.4 46.4185V70.2185C29.4 70.6051 29.7134 70.9185 30.1 70.9185H39.9C40.2866 70.9185 40.6 70.6051 40.6 70.2185V46.4185C40.6 46.0319 40.9134 45.7185 41.3 45.7185H48.3C48.6866 45.7185 49 45.4051 49 45.0185V36.6185C49 36.2319 48.6866 35.9185 48.3 35.9185H41.3C40.9134 35.9185 40.6 35.6055 40.6 35.2189V28.9185C40.6 26.1185 44.1 24.7185 45.5 24.7185H49.7C50.0866 24.7185 50.4 24.4051 50.4 24.0185V15.6185C50.4 15.2319 50.0867 14.9185 49.7001 14.9185H40.6C33.88 14.9185 29.4 21.9185 29.4 26.1185V35.2185C29.4 35.6051 29.0866 35.9185 28.7 35.9185H21.7C21.3134 35.9185 21 36.2319 21 36.6185V45.0185C21 45.4051 21.3134 45.7185 21.7 45.7185H28.7C29.0866 45.7185 29.4 46.0319 29.4 46.4185Z" fill="white"/>
<defs>
<linearGradient id="paint0_linear_114_146" x1="35" y1="0.918457" x2="35" y2="70.9185" gradientUnits="userSpaceOnUse">
<stop stop-color="#18ACFE"/>
<stop offset="1" stop-color="#0165E1"/>
</linearGradient>
</defs>
</svg>
