<svg width="70" height="71" viewBox="0 0 70 71" fill="none" xmlns="http://www.w3.org/2000/svg">
<path d="M35.0114 0.918457C20.3992 0.918457 16.1257 0.933531 15.2951 1.00244C12.2964 1.2517 10.4304 1.72384 8.39758 2.73596C6.83096 3.51389 5.59542 4.41565 4.37603 5.67972C2.1553 7.98497 0.809395 10.8211 0.322179 14.1923C0.0853002 15.8289 0.0163901 16.1627 0.00239271 24.5223C-0.00299089 27.3089 0.00239271 30.9762 0.00239271 35.8952C0.00239271 50.4955 0.0185435 54.7647 0.0885304 55.5938C0.330792 58.5117 0.788399 60.3475 1.75745 62.3556C3.60941 66.1995 7.14643 69.0851 11.3133 70.1618C12.7561 70.5333 14.3497 70.7379 16.3955 70.8348C17.2622 70.8725 26.0967 70.8994 34.9366 70.8994C43.7765 70.8994 52.6163 70.8886 53.4616 70.8455C55.8304 70.7341 57.2059 70.5494 58.7267 70.1564C62.9206 69.0743 66.393 66.2318 68.2826 62.3341C69.2328 60.3744 69.7147 58.4686 69.9327 55.7031C69.9801 55.1001 70 45.4866 70 35.886C70 26.2838 69.9785 16.6881 69.9311 16.0851C69.7104 13.2749 69.2285 11.3853 68.2476 9.38794C67.4428 7.75294 66.5491 6.53194 65.2517 5.28348C62.9362 3.0719 60.1044 1.726 56.73 1.23932C55.095 1.00298 54.7692 0.932993 46.4031 0.918457H35.0114Z" fill="url(#paint0_radial_114_154)"/>
<path d="M35.0114 0.918457C20.3992 0.918457 16.1257 0.933531 15.2951 1.00244C12.2964 1.2517 10.4304 1.72384 8.39758 2.73596C6.83096 3.51389 5.59542 4.41565 4.37603 5.67972C2.1553 7.98497 0.809395 10.8211 0.322179 14.1923C0.0853002 15.8289 0.0163901 16.1627 0.00239271 24.5223C-0.00299089 27.3089 0.00239271 30.9762 0.00239271 35.8952C0.00239271 50.4955 0.0185435 54.7647 0.0885304 55.5938C0.330792 58.5117 0.788399 60.3475 1.75745 62.3556C3.60941 66.1995 7.14643 69.0851 11.3133 70.1618C12.7561 70.5333 14.3497 70.7379 16.3955 70.8348C17.2622 70.8725 26.0967 70.8994 34.9366 70.8994C43.7765 70.8994 52.6163 70.8886 53.4616 70.8455C55.8304 70.7341 57.2059 70.5494 58.7267 70.1564C62.9206 69.0743 66.393 66.2318 68.2826 62.3341C69.2328 60.3744 69.7147 58.4686 69.9327 55.7031C69.9801 55.1001 70 45.4866 70 35.886C70 26.2838 69.9785 16.6881 69.9311 16.0851C69.7104 13.2749 69.2285 11.3853 68.2476 9.38794C67.4428 7.75294 66.5491 6.53194 65.2517 5.28348C62.9362 3.0719 60.1044 1.726 56.73 1.23932C55.095 1.00298 54.7692 0.932993 46.4031 0.918457H35.0114Z" fill="url(#paint1_radial_114_154)"/>
<path d="M34.9948 10.0706C27.9767 10.0706 27.096 10.1012 24.3396 10.2267C21.5886 10.3527 19.7108 10.7882 18.0677 11.4272C16.3681 12.0873 14.9264 12.9702 13.49 14.407C12.0526 15.8434 11.1697 17.2851 10.5075 18.9842C9.86685 20.6278 9.43078 22.5061 9.30695 25.2561C9.18367 28.0125 9.15137 28.8938 9.15137 35.9118C9.15137 42.9299 9.18259 43.808 9.30749 46.5644C9.43401 49.3154 9.86954 51.1932 10.508 52.8363C11.1686 54.5359 12.0515 55.9776 13.4884 57.414C14.9242 58.8514 16.3659 59.7365 18.0645 60.3965C19.7086 61.0355 21.587 61.471 24.3374 61.597C27.0938 61.7225 27.9741 61.7531 34.9916 61.7531C42.0102 61.7531 42.8883 61.7225 45.6447 61.597C48.3957 61.471 50.2756 61.0355 51.9198 60.3965C53.6189 59.7365 55.0584 58.8514 56.4942 57.414C57.9317 55.9776 58.8146 54.5359 59.4767 52.8368C60.112 51.1932 60.5481 49.3149 60.6773 46.5649C60.8011 43.8085 60.8334 42.9299 60.8334 35.9118C60.8334 28.8938 60.8011 28.013 60.6773 25.2566C60.5481 22.5056 60.112 20.6278 59.4767 18.9847C58.8146 17.2851 57.9317 15.8434 56.4942 14.407C55.0568 12.9696 53.6194 12.0867 51.9182 11.4272C50.2708 10.7882 48.3919 10.3527 45.6409 10.2267C42.8845 10.1012 42.007 10.0706 34.9867 10.0706H34.9948ZM32.6766 14.7274C33.3647 14.7263 34.1324 14.7274 34.9948 14.7274C41.8944 14.7274 42.7122 14.7521 45.4369 14.876C47.9564 14.9912 49.3238 15.4122 50.2347 15.7659C51.4406 16.2342 52.3004 16.7941 53.2043 17.6986C54.1088 18.603 54.6687 19.4644 55.1381 20.6703C55.4918 21.5802 55.9133 22.9476 56.028 25.4671C56.1518 28.1912 56.1788 29.0095 56.1788 35.9059C56.1788 42.8023 56.1518 43.6206 56.028 46.3447C55.9128 48.8643 55.4918 50.2317 55.1381 51.1415C54.6697 52.3475 54.1088 53.2061 53.2043 54.11C52.2999 55.0145 51.4412 55.5744 50.2347 56.0428C49.3249 56.3981 47.9564 56.818 45.4369 56.9332C42.7127 57.057 41.8944 57.084 34.9948 57.084C28.0947 57.084 27.2769 57.057 24.5528 56.9332C22.0333 56.8169 20.6658 56.3959 19.7544 56.0422C18.5484 55.5738 17.6871 55.014 16.7826 54.1095C15.8782 53.2051 15.3183 52.3458 14.8488 51.1394C14.4951 50.2295 14.0736 48.8621 13.9589 46.3426C13.8351 43.6185 13.8103 42.8002 13.8103 35.8995C13.8103 28.9988 13.8351 28.1848 13.9589 25.4607C14.0741 22.9411 14.4951 21.5737 14.8488 20.6628C15.3172 19.4569 15.8782 18.5955 16.7826 17.691C17.6871 16.7866 18.5484 16.2267 19.7544 15.7573C20.6653 15.4019 22.0333 14.982 24.5528 14.8663C26.9366 14.7586 27.8605 14.7263 32.6766 14.7209V14.7274ZM48.7887 19.0181C47.0767 19.0181 45.6877 20.4055 45.6877 22.118C45.6877 23.83 47.0767 25.2189 48.7887 25.2189C50.5007 25.2189 51.8896 23.83 51.8896 22.118C51.8896 20.406 50.5007 19.017 48.7887 19.017V19.0181ZM34.9948 22.6413C27.6661 22.6413 21.7242 28.5832 21.7242 35.9118C21.7242 43.2406 27.6661 49.1797 34.9948 49.1797C42.3235 49.1797 48.2632 43.2406 48.2632 35.9118C48.2632 28.5832 42.323 22.6413 34.9943 22.6413H34.9948ZM34.9948 27.2981C39.7518 27.2981 43.6086 31.1544 43.6086 35.9118C43.6086 40.6688 39.7518 44.5256 34.9948 44.5256C30.2373 44.5256 26.3811 40.6688 26.3811 35.9118C26.3811 31.1544 30.2373 27.2981 34.9948 27.2981Z" fill="white"/>
<defs>
<radialGradient id="paint0_radial_114_154" cx="0" cy="0" r="1" gradientUnits="userSpaceOnUse" gradientTransform="translate(18.5938 76.2894) rotate(-90) scale(69.3563 64.5244)">
<stop stop-color="#FFDD55"/>
<stop offset="0.1" stop-color="#FFDD55"/>
<stop offset="0.5" stop-color="#FF543E"/>
<stop offset="1" stop-color="#C837AB"/>
</radialGradient>
<radialGradient id="paint1_radial_114_154" cx="0" cy="0" r="1" gradientUnits="userSpaceOnUse" gradientTransform="translate(-11.7254 5.95976) rotate(78.6776) scale(31.0029 127.827)">
<stop stop-color="#3771C8"/>
<stop offset="0.128" stop-color="#3771C8"/>
<stop offset="1" stop-color="#6600FF" stop-opacity="0"/>
</radialGradient>
</defs>
</svg>
