<svg width="70" height="71" viewBox="0 0 70 71" fill="none" xmlns="http://www.w3.org/2000/svg">
<path d="M35 70.9185C54.33 70.9185 70 55.2484 70 35.9185C70 16.5885 54.33 0.918457 35 0.918457C15.67 0.918457 0 16.5885 0 35.9185C0 55.2484 15.67 70.9185 35 70.9185Z" fill="url(#paint0_linear_114_168)"/>
<path fill-rule="evenodd" clip-rule="evenodd" d="M15.843 35.549C26.0462 31.1036 32.85 28.173 36.2542 26.757C45.9741 22.7142 47.9938 22.0119 49.3102 21.9887C49.5998 21.9836 50.2471 22.0554 50.6665 22.3956C51.0206 22.6829 51.118 23.0711 51.1646 23.3435C51.2112 23.6159 51.2693 24.2364 51.2231 24.7213C50.6964 30.2556 48.4173 43.686 47.2578 49.8845C46.7672 52.5073 45.8011 53.3867 44.8659 53.4728C42.8334 53.6598 41.29 52.1296 39.3214 50.8391C36.2409 48.8199 34.5007 47.5629 31.5105 45.5924C28.0549 43.3152 30.2951 42.0637 32.2644 40.0182C32.7798 39.4829 41.7351 31.3374 41.9084 30.5985C41.9301 30.5061 41.9502 30.1616 41.7456 29.9797C41.5409 29.7978 41.2389 29.86 41.0209 29.9094C40.7119 29.9796 35.7909 33.2322 26.2577 39.6674C24.8609 40.6265 23.5957 41.0939 22.4621 41.0694C21.2124 41.0424 18.8085 40.3628 17.0215 39.7819C14.8296 39.0694 13.0875 38.6927 13.2392 37.4827C13.3183 36.8524 14.1862 36.2079 15.843 35.549Z" fill="white"/>
<defs>
<linearGradient id="paint0_linear_114_168" x1="35" y1="0.918457" x2="35" y2="70.3993" gradientUnits="userSpaceOnUse">
<stop stop-color="#2CA4E0"/>
<stop offset="1" stop-color="#0D83BF"/>
</linearGradient>
</defs>
</svg>
