<svg width="62" height="71" viewBox="0 0 62 71" fill="none" xmlns="http://www.w3.org/2000/svg">
<path d="M45.7237 26.1867C50.2252 29.416 55.7397 31.316 61.6956 31.316V19.8142C60.5684 19.8144 59.4442 19.6964 58.3414 19.462V28.5156C52.3859 28.5156 46.8722 26.6155 42.3695 23.3865V46.8584C42.3695 58.6002 32.8847 68.1182 21.1853 68.1182C16.82 68.1182 12.7626 66.7938 9.39209 64.5223C13.2389 68.4697 18.6037 70.9184 24.5388 70.9184C36.2389 70.9184 45.7242 61.4004 45.7242 49.6581V26.1867H45.7237ZM49.8615 14.5828C47.561 12.0605 46.0505 8.80096 45.7237 5.1974V3.71802H42.5451C43.3452 8.29814 46.0742 12.2111 49.8615 14.5828ZM16.792 55.512C15.5067 53.8207 14.8121 51.7518 14.8152 49.6245C14.8152 44.2542 19.1535 39.8999 24.5058 39.8999C25.5032 39.8997 26.4947 40.053 27.4453 40.3557V28.5968C26.3344 28.444 25.2133 28.3791 24.0926 28.4029V37.5555C23.1413 37.2528 22.1493 37.099 21.1516 37.1C15.7993 37.1 11.4612 41.4538 11.4612 46.8248C11.4612 50.6224 13.6297 53.9103 16.792 55.512Z" fill="#FF004F"/>
<path d="M42.3687 23.3863C46.8713 26.6153 52.3851 28.5153 58.3406 28.5153V19.4617C55.0163 18.7511 52.0734 17.0077 49.8607 14.5828C46.0732 12.2109 43.3444 8.2979 42.5443 3.71802H34.195V49.6576C34.1761 55.0133 29.8453 59.3498 24.5045 59.3498C21.3572 59.3498 18.5612 57.8442 16.7904 55.512C13.6284 53.9103 11.4599 50.6222 11.4599 46.825C11.4599 41.4545 15.798 37.1002 21.1503 37.1002C22.1757 37.1002 23.1641 37.2604 24.0913 37.5557V28.4031C12.5974 28.6414 3.35352 38.0664 3.35352 49.6579C3.35352 55.4443 5.65545 60.6898 9.39152 64.5226C12.762 66.7938 16.8194 68.1185 21.1847 68.1185C32.8844 68.1185 42.3689 58.6 42.3689 46.8584V23.3863H42.3687Z" fill="black"/>
<path d="M58.341 19.4621V17.0141C55.3433 17.0187 52.4045 16.1762 49.8611 14.5829C52.1126 17.0566 55.0773 18.7623 58.341 19.4621ZM42.5448 3.71842C42.4684 3.28071 42.4098 2.84012 42.3691 2.39784V0.918457H30.841V46.8586C30.8226 52.2135 26.492 56.55 21.1507 56.55C19.5826 56.55 18.102 56.1764 16.7909 55.5126C18.5617 57.8446 21.3577 59.35 24.5049 59.35C29.8452 59.35 34.1768 55.0139 34.1955 49.6583V3.71842H42.5448ZM24.0922 28.4035V25.7974C23.1289 25.6653 22.1578 25.599 21.1854 25.5995C9.4848 25.5992 0 35.1177 0 46.8586C0 54.2194 3.72769 60.7066 9.39221 64.5225C5.65614 60.69 3.35421 55.4442 3.35421 49.6581C3.35421 38.0668 12.5978 28.6418 24.0922 28.4035Z" fill="#00F2EA"/>
</svg>
