<svg width="70" height="58" viewBox="0 0 70 58" fill="none" xmlns="http://www.w3.org/2000/svg">
<path fill-rule="evenodd" clip-rule="evenodd" d="M70 7.65425C67.4206 8.79254 64.6531 9.56533 61.75 9.90995C64.7158 8.13463 66.9924 5.315 68.0576 1.96277C65.2797 3.61277 62.2095 4.80328 58.9408 5.45076C56.3196 2.66245 52.5914 0.918457 48.4559 0.918457C40.5296 0.918457 34.0967 7.3514 34.0967 15.2777C34.0967 16.4056 34.222 17.5021 34.4726 18.5464C22.5362 17.9511 11.9573 12.2283 4.87692 3.53967C3.64464 5.65962 2.93451 8.12419 2.93451 10.7558C2.93451 15.7372 5.47218 20.1337 9.32568 22.7027C6.97598 22.6296 4.76205 21.9822 2.81963 20.9065C2.81963 20.9692 2.81963 21.0214 2.81963 21.0841C2.81963 28.0391 7.76966 33.8455 14.3384 35.1613C13.1374 35.4851 11.8633 35.6626 10.558 35.6626C9.62852 35.6626 8.73042 35.5686 7.8532 35.4015C9.68074 41.1034 14.9858 45.2598 21.2621 45.3747C16.3434 49.2282 10.1611 51.5256 3.42533 51.5256C2.26615 51.5256 1.12785 51.4525 0 51.3272C6.3494 55.4 13.8997 57.7811 22.014 57.7811C48.4246 57.7811 62.8674 35.9028 62.8674 16.9277C62.8674 16.3011 62.8569 15.685 62.8256 15.0688C65.6348 13.0429 68.068 10.5157 69.9896 7.63336L70 7.65425Z" fill="#41ABE1"/>
</svg>
