<svg width="70" height="49" viewBox="0 0 70 49" fill="none" xmlns="http://www.w3.org/2000/svg">
<path d="M28 34.5899V14.1805L46.2 24.3852L28 34.5899Z" fill="white"/>
<path d="M68.5232 8.01664C68.1249 6.57902 67.3449 5.26825 66.2612 4.21552C65.1776 3.16279 63.8284 2.40502 62.3485 2.01806C56.8988 0.585205 35 0.585205 35 0.585205C35 0.585205 13.1012 0.585205 7.65147 2.01806C6.17165 2.40502 4.8224 3.16279 3.73877 4.21552C2.65513 5.26825 1.87512 6.57902 1.4768 8.01664C0.45922 13.416 -0.0345844 18.8962 0.00188099 24.3852C-0.0345844 29.8742 0.45922 35.3544 1.4768 40.7538C1.87512 42.1914 2.65513 43.5022 3.73877 44.5549C4.8224 45.6076 6.17165 46.3654 7.65147 46.7523C13.1012 48.1852 35 48.1852 35 48.1852C35 48.1852 56.8988 48.1852 62.3485 46.7523C63.8284 46.3654 65.1776 45.6076 66.2612 44.5549C67.3449 43.5022 68.1249 42.1914 68.5232 40.7538C69.5408 35.3544 70.0346 29.8742 69.9981 24.3852C70.0346 18.8962 69.5408 13.416 68.5232 8.01664ZM28.0004 34.5852V14.1852L46.1744 24.3852L28.0004 34.5852Z" fill="#FC0100"/>
</svg>
