<svg width="20" height="20" viewBox="0 0 20 20" fill="none" xmlns="http://www.w3.org/2000/svg">
<path d="M20 11.6592V19.0135H15.6951V12.1076C15.6951 10.4036 15.0673 9.23767 13.5426 9.23767C12.3767 9.23767 11.6592 10.0448 11.3901 10.7623C11.3004 11.0314 11.2108 11.3901 11.2108 11.8386V19.0135H6.90583C6.90583 19.0135 6.99551 7.35426 6.90583 6.18834H11.2108V7.98207C11.7489 7.0852 12.8251 5.8296 15.0673 5.8296C17.8475 5.8296 20 7.71301 20 11.6592ZM2.42152 0C0.986545 0 0 0.986547 0 2.24215C0 3.49776 0.89686 4.48431 2.33184 4.48431C3.8565 4.48431 4.75336 3.49776 4.75336 2.24215C4.84305 0.896861 3.94619 0 2.42152 0ZM0.269058 19.0135H4.57399V6.18834H0.269058V19.0135Z" fill="black"/>
</svg>
