<svg width="22" height="20" viewBox="0 0 22 20" fill="none" xmlns="http://www.w3.org/2000/svg">
<path d="M0.385771 9.21149L5.44368 11.0975L7.41539 17.4413C7.50112 17.8699 8.01548 17.9556 8.35839 17.6985L11.1874 15.3838C11.4445 15.1266 11.8732 15.1266 12.2161 15.3838L17.274 19.0701C17.6169 19.3273 18.1313 19.1558 18.217 18.7272L21.989 0.724521C22.0747 0.295886 21.6461 -0.132744 21.2174 0.0387096L0.385771 8.09704C-0.12859 8.2685 -0.12859 9.04003 0.385771 9.21149ZM7.15822 10.1545L17.1025 4.06787C17.274 3.98215 17.4454 4.23933 17.274 4.32506L9.12993 11.9548C8.87275 12.2119 8.61556 12.5548 8.61556 12.9835L8.35839 15.0409C8.35839 15.2981 7.92975 15.3838 7.84402 15.0409L6.81529 11.2689C6.55811 10.8403 6.72958 10.3259 7.15822 10.1545Z" fill="black"/>
</svg>
