<svg width="22" height="18" viewBox="0 0 22 18" fill="none" xmlns="http://www.w3.org/2000/svg">
<path d="M22 2.13265C21.2143 2.46938 20.3163 2.69388 19.4184 2.80612C20.3163 2.2449 21.102 1.34694 21.4388 0.336738C20.5408 0.897963 19.6429 1.2347 18.5204 1.45919C17.7347 0.561228 16.5 0 15.2653 0C12.7959 0 10.7755 2.02041 10.7755 4.4898C10.7755 4.82653 10.7755 5.16326 10.8878 5.5C7.18367 5.27551 3.81632 3.47959 1.57142 0.785711C1.23469 1.45918 1.0102 2.2449 1.0102 3.03061C1.0102 4.60204 1.79592 5.94898 3.03061 6.7347C2.2449 6.7347 1.57142 6.51021 1.0102 6.17347C1.0102 8.30613 2.58162 10.2143 4.60203 10.551C4.2653 10.6633 3.81633 10.6633 3.36735 10.6633C3.03061 10.6633 2.80612 10.6633 2.46939 10.551C3.03061 12.3469 4.71429 13.6939 6.7347 13.6939C5.16327 14.9286 3.2551 15.602 1.12245 15.602C0.785715 15.602 0.44898 15.6021 0 15.4898C2.02041 16.7245 4.37755 17.5102 6.95918 17.5102C15.2653 17.5102 19.7551 10.6633 19.7551 4.71428V4.15306C20.6531 3.81632 21.4388 3.03061 22 2.13265Z" fill="black"/>
</svg>
