<svg width="527" height="417" viewBox="0 0 527 417" fill="none" xmlns="http://www.w3.org/2000/svg">
<path d="M81.5501 303.572L48.1886 291.916C44.5157 273.724 45.3393 254.91 50.5878 237.108C63.2439 267.577 102.718 276.096 124.635 300.758C131.412 308.502 136.359 317.672 139.11 327.588C141.861 337.504 142.346 347.912 140.527 358.041L146.915 382.277C130.411 380.384 114.514 374.936 100.318 366.307C86.1222 357.679 73.9657 346.076 64.6862 332.297C59.5569 324.515 55.428 316.119 52.3969 307.305C66.7978 306.284 81.5501 303.572 81.5501 303.572Z" fill="#F2F2F2"/>
<path d="M119.852 230.803L96.5549 204.231C102.316 186.588 112.297 170.618 125.631 157.709C121.643 190.46 151.805 217.312 158.738 249.568C160.823 259.646 160.613 270.063 158.125 280.048C155.637 290.034 150.934 299.331 144.364 307.251L137.99 331.491C124.557 321.717 113.403 309.147 105.296 294.647C97.1893 280.147 92.3223 264.062 91.0305 247.5C90.3978 238.201 90.9386 228.86 92.6402 219.697C105.677 225.899 119.852 230.803 119.852 230.803Z" fill="#F2F2F2"/>
<path d="M314.502 315.979H146.056C141.107 315.979 137.082 316.976 137.082 318.207V384.092H323.499V318.207C323.499 316.976 319.475 315.979 314.502 315.979Z" fill="#F2F2F2"/>
<path d="M521.23 384.719L0.827563 384.932C0.608081 384.932 0.397591 384.845 0.242394 384.69C0.0871976 384.535 0 384.324 0 384.105C0 383.885 0.0871976 383.675 0.242394 383.519C0.397591 383.364 0.608081 383.277 0.827563 383.277L521.23 383.063C521.449 383.064 521.659 383.152 521.814 383.307C521.968 383.462 522.055 383.672 522.055 383.891C522.055 384.11 521.968 384.32 521.814 384.475C521.659 384.63 521.449 384.718 521.23 384.719V384.719Z" fill="#31BD64"/>
<path d="M188.547 380.081L186.973 392.905L235.687 405.079L238.01 386.152L188.547 380.081Z" fill="#EDD0D4"/>
<path d="M197.844 376.974L196.553 397.612L187.775 396.535L171.932 414.361C171.15 415.242 170.106 415.849 168.954 416.095C167.802 416.341 166.602 416.212 165.528 415.727C164.455 415.242 163.564 414.426 162.987 413.399C162.41 412.373 162.176 411.188 162.32 410.019L165.313 385.628L174.512 382.49L166.031 379.782L167.16 370.586L197.844 376.974Z" fill="#2F2E41"/>
<path d="M330.86 386.394L343.397 389.518L361.415 342.651L342.911 338.039L330.86 386.394Z" fill="#EDD0D4"/>
<path d="M362.858 407.063L347.095 389.166L349.236 380.582L347.005 380.165H346.991L333.062 377.566L328.906 376.787L318.828 406.465L327.822 408.71L331.54 400.62L333.097 408.049L333.535 410.128L357.381 416.07C358.524 416.355 359.727 416.267 360.816 415.819C361.905 415.372 362.822 414.588 363.434 413.582C364.046 412.576 364.32 411.4 364.216 410.227C364.113 409.055 363.637 407.946 362.858 407.063V407.063Z" fill="#2F2E41"/>
<path d="M225.667 381.52L230.212 380.804C225.333 385.885 220.648 389.242 216.2 390.285L218.355 382.667L225.667 381.52Z" fill="#2F2E41"/>
<path d="M358.446 358.647C354.144 368.266 351.044 374.424 351.044 374.424L349.508 373.618L345.463 371.498L335.83 366.445L334.176 365.576L334.648 356.388L336.747 315.757L337.637 298.631L300.918 318.036L257.472 341C255.693 344.1 253.925 347.116 252.169 350.049L222.651 329.803L252.607 286.093L270.066 277.933L266.299 277.204C267.262 275.812 268.351 274.511 269.552 273.318L270.872 272.575C270.872 272.575 353.949 226.814 377.851 250.278C379.913 252.376 381.459 254.925 382.369 257.722C390.563 281.255 370.095 332.625 358.446 358.647Z" fill="#2F2E41"/>
<path d="M340.166 401.69C338.376 404.366 335.946 406.552 333.097 408.05C330.684 409.37 328.128 410.412 325.48 411.156C290.256 421.45 213.17 400.995 213.17 400.995L216.2 390.285L218.355 382.667L225.667 381.52L230.212 380.804L284.577 372.276L269.599 362.004L252.168 350.049L222.65 329.803L187.273 313.894C146.267 281.228 180.601 244.6 180.601 244.6L203.551 228.336L211.002 223.054L256.776 246.476L270.065 277.933L274.152 287.601L300.917 318.036L334.647 356.388L334.911 356.687C335.887 357.427 336.804 358.241 337.657 359.12C337.969 359.426 338.296 359.766 338.63 360.134C341.661 363.414 343.987 367.282 345.462 371.498C346.42 374.278 346.941 377.19 347.005 380.13C347.008 380.136 347.01 380.142 347.01 380.148C347.01 380.154 347.008 380.16 347.005 380.165C347.158 386.288 345.399 393.51 340.166 401.69Z" fill="#2F2E41"/>
<path d="M164.912 260.06C163.086 259.508 162.157 258.837 161.988 257.948C161.739 256.644 163.205 255.481 164.904 254.133C166.088 253.194 169.213 251.56 168.071 251.057C150.752 243.432 192.857 135.176 205.074 122.874C207.557 120.375 207.261 115.301 210.569 110.786C219.606 98.4572 227.535 96.2234 243.33 91.7744C244.612 91.4131 245.948 91.0348 247.337 90.6394C249.135 90.1265 247.24 95.2334 248.177 91.8094C249.218 88.0041 250.295 84.0686 252.882 82.1867L253.05 82.064L253.258 82.0774C258.044 82.394 273.671 85.0171 281.686 90.6759L281.796 90.755L281.861 90.8742C283.338 93.6301 282.293 97.7887 281.283 101.81C280.452 105.111 282.449 99.8881 283.244 101.585C289.318 114.555 299.762 117.491 299.868 117.521L300.387 117.661L300.284 118.188C303.014 132.345 284.287 176.203 280.239 205.736C276.126 235.74 299.573 269.533 265.117 263.852C265.196 264.113 277.834 290.057 277.628 290.263C274.495 293.401 171.792 262.137 164.912 260.06Z" fill="#FA7228"/>
<path d="M392.881 100.886C393.13 102.304 393.065 103.76 392.69 105.15C392.316 106.541 391.641 107.833 390.713 108.934C389.785 110.036 388.628 110.92 387.321 111.526C386.014 112.132 384.591 112.443 383.151 112.439L371.582 145.479L360.559 131.008L373.234 101.852C373.401 99.4329 374.45 97.1594 376.182 95.462C377.913 93.7647 380.207 92.7614 382.628 92.6423C385.05 92.5232 387.431 93.2966 389.321 94.8159C391.211 96.3352 392.477 98.4949 392.881 100.886Z" fill="#EDD0D4"/>
<path d="M341.969 192.957L321 188.423C283.178 176.447 270.209 161.667 265.981 151.374C261.469 140.393 265.58 132.355 265.758 132.019L265.866 131.874L279.431 118.673C281.154 116.996 283.214 115.705 285.474 114.884C287.734 114.064 290.142 113.734 292.54 113.915C294.937 114.096 297.269 114.785 299.38 115.935C301.491 117.086 303.334 118.672 304.785 120.589L332.331 156.961L345.087 139.679L351.274 134.729L354.611 125.374L367.411 111.45L382.23 118.307L376.651 151.977L369.185 156.541L368.833 161.498L368.711 161.643L341.969 192.957Z" fill="#FA7228"/>
<path d="M236.908 298.471C236.805 298.471 236.701 298.468 236.597 298.464C235.379 298.42 234.189 298.082 233.129 297.48C232.07 296.877 231.171 296.027 230.511 295.003C225.562 287.606 219.488 281.027 212.51 275.504C208.286 272.128 203.871 268.988 199.602 265.951C188.589 258.121 178.218 250.746 172.46 240.555C159.908 218.334 174.69 187.382 195.808 173.502C219.495 157.934 250.652 155.492 280.792 155.172C283.924 155.139 287.059 155.123 290.195 155.123C344.501 155.144 398.694 160.099 452.103 169.927C469.863 173.204 488.453 177.218 503.392 186.959C518.242 196.643 527.269 211.892 526.388 225.81C525.102 246.127 503.564 261.309 483.952 265.278C465.259 269.058 445.839 266.503 425.28 263.798C420.741 263.201 416.048 262.584 411.407 262.047C360.972 256.217 266.226 274.186 262.217 274.954L258.24 275.715L242.81 295.571C242.116 296.477 241.223 297.209 240.199 297.712C239.175 298.215 238.049 298.474 236.908 298.471Z" fill="white"/>
<path d="M393.27 102.179C410.805 102.179 425.021 87.9634 425.021 70.4281C425.021 52.8927 410.805 38.6775 393.27 38.6775C375.735 38.6775 361.52 52.8927 361.52 70.4281C361.52 87.9634 375.735 102.179 393.27 102.179Z" fill="white"/>
<path d="M393.27 102.566C386.914 102.566 380.7 100.682 375.415 97.1502C370.13 93.6188 366.011 88.5995 363.578 82.727C361.146 76.8546 360.509 70.3927 361.749 64.1585C362.989 57.9243 366.05 52.1978 370.545 47.7032C375.039 43.2086 380.766 40.1477 387 38.9076C393.234 37.6675 399.696 38.3039 405.569 40.7364C411.441 43.1688 416.46 47.288 419.992 52.5731C423.523 57.8582 425.408 64.0717 425.408 70.4281C425.399 78.9487 422.009 87.1176 415.985 93.1426C409.96 99.1676 401.791 102.557 393.27 102.566V102.566Z" fill="#31BD64"/>
<path d="M390.893 83.1175C390.826 83.1175 390.758 83.1154 390.69 83.1121C390.092 83.0832 389.508 82.9253 388.976 82.6492C388.445 82.3732 387.98 81.9856 387.612 81.5129L382.306 74.6912C381.971 74.2607 381.724 73.7683 381.58 73.2423C381.435 72.7162 381.395 72.1668 381.463 71.6254C381.53 71.084 381.704 70.5613 381.974 70.087C382.243 69.6127 382.604 69.1962 383.034 68.8613L383.225 68.7127C383.656 68.3774 384.148 68.1303 384.675 67.9854C385.201 67.8406 385.75 67.8009 386.292 67.8685C386.833 67.9362 387.356 68.1099 387.831 68.3798C388.305 68.6497 388.722 69.0104 389.056 69.4413C389.324 69.7854 389.664 70.0676 390.051 70.2686C390.438 70.4695 390.864 70.5846 391.299 70.6058C391.735 70.627 392.17 70.5539 392.575 70.3915C392.98 70.2291 393.345 69.9812 393.645 69.6647L404.418 58.2909C405.177 57.4922 406.221 57.0268 407.322 56.9969C408.423 56.967 409.491 57.375 410.292 58.1314L410.468 58.2998C410.865 58.6749 411.183 59.1244 411.405 59.6226C411.628 60.1208 411.75 60.658 411.764 61.2034C411.779 61.7488 411.686 62.2917 411.491 62.8012C411.296 63.3107 411.002 63.7767 410.627 64.1726L393.908 81.8199C393.52 82.2298 393.053 82.5563 392.534 82.7795C392.016 83.0026 391.458 83.1176 390.893 83.1175V83.1175Z" fill="white"/>
<path d="M229.985 234.942C228.564 234.707 227.212 234.163 226.024 233.349C224.836 232.535 223.841 231.47 223.109 230.23C222.377 228.99 221.926 227.604 221.788 226.171C221.649 224.737 221.826 223.291 222.307 221.934L194.967 200.072L212.272 194.465L235.582 216.085C237.809 217.044 239.607 218.787 240.635 220.983C241.663 223.179 241.849 225.676 241.159 228C240.469 230.324 238.951 232.315 236.891 233.594C234.832 234.874 232.374 235.353 229.985 234.942V234.942Z" fill="#EDD0D4"/>
<path d="M159.98 156.401L171.206 138.119C195.037 106.4 213.279 99.061 224.391 98.4816C236.247 97.8633 242.469 104.405 242.727 104.684L242.828 104.834L250.789 122.007C251.8 124.188 252.336 126.559 252.361 128.963C252.386 131.368 251.9 133.75 250.935 135.952C249.97 138.154 248.548 140.125 246.763 141.736C244.978 143.347 242.871 144.56 240.581 145.294L197.137 159.234L209.216 176.995L211.837 184.473L219.558 190.721L228.455 207.411L217.075 219.121L187.156 202.701L185.322 194.145L180.762 192.171L180.666 192.007L159.98 156.401Z" fill="#FA7228"/>
<path d="M314.558 83.9755L314.586 83.978C316.088 84.1077 317.58 83.6355 318.733 82.6654C319.887 81.6953 320.608 80.3067 320.737 78.8051L323.486 47.2096C323.984 41.5495 323.339 35.847 321.589 30.4411C318.159 19.8906 310.79 11.0707 301.017 5.81946C295.971 3.11525 290.43 1.46071 284.728 0.955564C261.398 -1.11104 252.91 3.80134 238.743 39.456C224.577 75.1107 235.99 71.0996 235.99 71.0996C235.923 71.861 236.01 72.6282 236.246 73.3553C236.709 74.774 237.702 75.959 239.017 76.6628C239.693 77.0231 240.433 77.244 241.196 77.3125C268.805 84.1359 296.667 91.3264 314.563 83.9759L314.558 83.9755Z" fill="#2F2E41"/>
<path d="M262.902 31.0209C259.476 36.1632 257.65 42.2055 257.656 48.3845C257.662 54.5636 259.499 60.6023 262.935 65.738C266.371 70.8737 271.252 74.876 276.961 77.2395C282.67 79.6029 288.952 80.2215 295.012 79.0171C299.024 78.2328 302.841 76.6603 306.241 74.3905C309.64 72.1207 312.556 69.1988 314.819 65.7941C318.237 60.6536 320.058 54.6159 320.05 48.4423C320.042 42.2687 318.206 36.2357 314.775 31.1038C311.343 25.9719 306.468 21.9711 300.766 19.6056C295.063 17.2401 288.788 16.616 282.732 17.8119C278.716 18.5917 274.896 20.1609 271.492 22.4286C268.088 24.6963 265.168 27.6172 262.902 31.0221L262.902 31.0209Z" fill="#EDD0D4"/>
<path d="M333.283 50.6529C333.677 46.1763 333.166 41.6664 331.782 37.391C331.398 26.9125 328.295 17.4398 315.514 17.9231C311.549 15.7998 307.197 14.4958 302.717 14.0888L296.396 13.5069C296.325 13.5003 296.254 13.4939 296.183 13.4878C287.339 12.7238 278.553 15.5045 271.759 21.218C264.965 26.9315 260.719 35.1098 259.955 43.9539L259.9 44.5868L273.274 45.8047L278.944 33.4577L278.745 46.3055L285.652 46.9372L288.512 40.7079L288.413 47.1857C298.721 56.1439 314.266 56.514 333.222 51.2864L333.283 50.6529Z" fill="#2F2E41"/>
<path d="M290.733 80.8994C290.853 81.939 290.68 82.9916 290.232 83.9375C290.006 84.422 289.714 84.8724 289.363 85.2756C289.063 85.6191 288.723 85.9259 288.351 86.1896C287.249 86.9678 285.906 87.3278 284.562 87.205C284.479 87.1969 284.395 87.1873 284.312 87.1761C284.228 87.1649 284.145 87.1518 284.062 87.1366C283.978 87.1222 283.895 87.1055 283.812 87.0865C283.729 87.0675 283.646 87.0469 283.563 87.0246L278.89 85.7486L273.566 71.2076L272.452 84.0055L251.203 78.241L255.928 23.9324L292.103 27.2547L291.118 28.2159C287.845 31.4441 285.526 35.5127 284.416 39.974C283.315 44.4946 282.998 49.1704 283.476 53.7984C283.925 58.4782 284.823 63.1042 286.157 67.6124C287.318 71.6046 288.709 75.5266 290.321 79.3588C290.53 79.8506 290.668 80.3691 290.733 80.8994Z" fill="#2F2E41"/>
<path d="M294.246 195.124C294.246 196.013 294.967 196.734 295.856 196.734H300.906C302.563 196.734 303.906 198.077 303.906 199.734V202.134C303.906 203.791 302.563 205.134 300.906 205.134H297.526C295.869 205.134 294.526 206.477 294.526 208.134V230.554C294.526 232.211 293.183 233.554 291.526 233.554H286.606C284.949 233.554 283.606 232.211 283.606 230.554V208.039C283.606 206.435 282.305 205.134 280.701 205.134V205.134C279.097 205.134 277.796 203.833 277.796 202.229V199.639C277.796 198.035 279.097 196.734 280.701 196.734H281.926C282.854 196.734 283.606 195.982 283.606 195.054V195.054C283.606 190.761 284.866 187.354 287.386 184.834C289.953 182.314 293.546 181.054 298.166 181.054C299.799 181.054 301.339 181.241 302.786 181.614C303.356 181.739 303.888 181.887 304.383 182.059C305.689 182.513 306.164 183.998 305.693 185.297L304.964 187.306C304.29 189.164 301.943 189.861 299.974 189.695C299.726 189.674 299.473 189.664 299.216 189.664C295.903 189.664 294.246 191.484 294.246 195.124V195.124Z" fill="#6C63FF"/>
<path d="M325.382 197.104C325.382 198.28 327.069 198.899 328.018 198.206C328.805 197.631 329.676 197.14 330.632 196.734C332.067 196.136 333.636 195.73 335.339 195.515C336.983 195.307 338.332 196.677 338.332 198.334V202.96C338.332 204.284 337.206 205.274 335.882 205.274V205.274C332.755 205.274 330.305 206.161 328.532 207.934C326.758 209.661 325.872 212.274 325.872 215.774V230.554C325.872 232.211 324.529 233.554 322.872 233.554H317.952C316.295 233.554 314.952 232.211 314.952 230.554V198.894C314.952 197.237 316.295 195.894 317.952 195.894H324.172C324.84 195.894 325.382 196.436 325.382 197.104V197.104Z" fill="#6C63FF"/>
<path d="M381.373 214.864C381.373 214.89 381.37 214.947 381.365 215.033C381.275 216.598 379.952 217.804 378.385 217.804H356.405C354.488 217.804 353.037 219.643 354.151 221.203C354.729 222.013 355.45 222.723 356.313 223.334C358.226 224.687 360.606 225.364 363.453 225.364C365.413 225.364 367.14 225.084 368.633 224.524C369.271 224.273 369.888 223.966 370.486 223.602C371.924 222.728 373.842 222.742 374.983 223.979L376.887 226.044C377.926 227.171 377.967 228.925 376.785 229.9C373.378 232.709 368.841 234.114 363.173 234.114C358.926 234.114 355.17 233.297 351.903 231.664C348.636 229.984 346.116 227.674 344.343 224.734C342.57 221.794 341.683 218.457 341.683 214.724C341.683 211.037 342.546 207.724 344.273 204.784C346.046 201.797 348.45 199.487 351.483 197.854C354.563 196.174 357.993 195.334 361.773 195.334C365.46 195.334 368.796 196.127 371.783 197.714C374.77 199.301 377.103 201.587 378.783 204.574C380.51 207.514 381.373 210.944 381.373 214.864ZM361.843 203.594C359.37 203.594 357.293 204.294 355.613 205.694C354.788 206.381 354.121 207.192 353.612 208.126C352.731 209.74 354.191 211.434 356.03 211.434H367.576C369.418 211.434 370.877 209.732 369.975 208.126C369.469 207.225 368.812 206.438 368.003 205.764C366.323 204.317 364.27 203.594 361.843 203.594Z" fill="#6C63FF"/>
<path d="M425.533 214.864C425.533 214.89 425.531 214.947 425.526 215.033C425.435 216.598 424.113 217.804 422.545 217.804H400.565C398.648 217.804 397.197 219.643 398.311 221.203C398.889 222.013 399.61 222.723 400.473 223.334C402.386 224.687 404.766 225.364 407.613 225.364C409.573 225.364 411.3 225.084 412.793 224.524C413.431 224.273 414.048 223.966 414.646 223.602C416.084 222.728 418.002 222.742 419.143 223.979L421.048 226.044C422.086 227.171 422.127 228.925 420.945 229.9C417.538 232.709 413.001 234.114 407.333 234.114C403.086 234.114 399.33 233.297 396.063 231.664C392.796 229.984 390.276 227.674 388.503 224.734C386.73 221.794 385.843 218.457 385.843 214.724C385.843 211.037 386.706 207.724 388.433 204.784C390.206 201.797 392.61 199.487 395.643 197.854C398.723 196.174 402.153 195.334 405.933 195.334C409.62 195.334 412.956 196.127 415.943 197.714C418.93 199.301 421.263 201.587 422.943 204.574C424.67 207.514 425.533 210.944 425.533 214.864ZM406.003 203.594C403.53 203.594 401.453 204.294 399.773 205.694C398.949 206.381 398.282 207.192 397.772 208.126C396.891 209.74 398.351 211.434 400.19 211.434H411.736C413.578 211.434 415.037 209.732 414.135 208.126C413.629 207.225 412.972 206.438 412.163 205.764C410.483 204.317 408.43 203.594 406.003 203.594Z" fill="#6C63FF"/>
</svg>
