<svg width="524" height="403" viewBox="0 0 524 403" fill="none" xmlns="http://www.w3.org/2000/svg">
<path d="M156.844 386.497C156.403 386.517 155.966 386.402 155.593 386.165C155.22 385.929 154.929 385.584 154.758 385.177C154.588 384.769 154.547 384.319 154.641 383.888C154.735 383.456 154.959 383.064 155.283 382.764C155.338 382.548 155.377 382.393 155.431 382.177C155.009 381.105 154.276 380.183 153.326 379.53C152.377 378.877 151.254 378.522 150.101 378.511C148.949 378.5 147.819 378.834 146.858 379.469C145.896 380.104 145.146 381.012 144.704 382.076C142.151 388.051 138.847 394.236 140.49 400.817C129.638 377.817 133.329 349.208 149.367 329.539C153.8 327.097 157.393 322.758 158.328 317.721C156.134 318.464 153.399 316.679 155.048 314.368C155.763 313.485 156.485 312.609 157.2 311.726C148.866 302.85 138.936 316.799 148.11 328.779C145.109 332.541 142.51 336.607 140.354 340.91C140.852 336.341 140.258 331.719 138.621 327.424C136.962 323.422 133.852 320.051 131.113 316.591C127.784 312.375 120.931 314.32 120.483 319.67C123.555 320.68 123.955 325.119 120.44 325.726C121.36 335.679 127.863 344.826 136.819 349.191C133.511 358.471 132.22 368.349 133.03 378.167C131.45 366.693 119.133 363.908 110.524 359.348C109.976 358.996 109.337 358.812 108.686 358.817C108.036 358.822 107.4 359.017 106.858 359.377C106.316 359.737 105.89 360.247 105.633 360.845C105.376 361.443 105.298 362.103 105.409 362.744C106.598 363.228 107.735 363.827 108.804 364.535C109.306 364.872 109.69 365.356 109.906 365.92C110.121 366.485 110.157 367.102 110.008 367.687C109.859 368.272 109.533 368.797 109.074 369.19C108.615 369.582 108.046 369.823 107.444 369.88C111.784 380.62 123.003 387.831 134.526 387.791C135.633 392.603 137.238 397.287 139.313 401.767H156.416C156.477 401.577 156.532 401.381 156.587 401.191C155.004 401.29 153.415 401.196 151.855 400.909C156.043 395.95 159.282 393.42 156.845 386.497L156.844 386.497Z" fill="#38AF78"/>
<path d="M472.484 386.497C472.925 386.518 473.362 386.402 473.735 386.166C474.108 385.929 474.4 385.584 474.57 385.177C474.74 384.769 474.781 384.319 474.687 383.888C474.593 383.456 474.369 383.064 474.045 382.764C473.991 382.548 473.952 382.393 473.897 382.178C474.319 381.105 475.052 380.183 476.002 379.53C476.951 378.877 478.074 378.522 479.227 378.511C480.379 378.5 481.509 378.834 482.471 379.469C483.432 380.104 484.182 381.012 484.625 382.076C487.177 388.051 490.481 394.236 488.838 400.817C499.69 377.817 495.999 349.208 479.962 329.539C475.529 327.097 471.935 322.759 471 317.721C473.194 318.464 475.929 316.68 474.28 314.369C473.565 313.485 472.843 312.609 472.128 311.726C480.462 302.85 490.392 316.8 481.218 328.779C484.219 332.541 486.819 336.607 488.974 340.91C488.476 336.341 489.07 331.719 490.707 327.424C492.367 323.422 495.476 320.051 498.215 316.591C501.545 312.375 508.398 314.32 508.846 319.67C505.773 320.68 505.374 325.119 508.889 325.726C507.968 335.679 501.465 344.826 492.51 349.191C495.817 358.471 497.108 368.349 496.298 378.167C497.879 366.693 510.196 363.908 518.805 359.348C519.353 358.996 519.991 358.812 520.642 358.817C521.293 358.823 521.928 359.017 522.47 359.377C523.012 359.737 523.438 360.247 523.695 360.845C523.953 361.443 524.03 362.103 523.919 362.744C522.731 363.228 521.593 363.828 520.524 364.536C520.023 364.873 519.638 365.356 519.422 365.92C519.207 366.485 519.171 367.102 519.32 367.687C519.469 368.272 519.795 368.797 520.254 369.19C520.713 369.582 521.283 369.823 521.884 369.88C517.544 380.62 506.325 387.832 494.802 387.791C493.695 392.603 492.09 397.287 490.015 401.767H472.913C472.851 401.577 472.796 401.381 472.741 401.191C474.324 401.29 475.913 401.196 477.473 400.909C473.285 395.95 470.046 393.42 472.483 386.498L472.484 386.497Z" fill="#38AF78"/>
<path d="M315.655 389.037L308.29 390.712L298.322 363.101L309.192 360.627L315.655 389.037Z" fill="#FFB6B6"/>
<path d="M317.663 396.661L295.015 401.814L294.949 401.527C294.418 399.189 294.836 396.736 296.113 394.707C297.39 392.677 299.421 391.238 301.759 390.706L301.759 390.706L305.182 386.626L313.615 388.008L315.593 387.558L317.663 396.661Z" fill="#2F2E41"/>
<path d="M434.468 254.45L438.516 260.826L415.849 279.479L409.873 270.068L434.468 254.45Z" fill="#FFB6B6"/>
<path d="M440.976 250L453.428 269.608L453.18 269.766C451.156 271.051 448.705 271.48 446.364 270.958C444.024 270.435 441.987 269.005 440.702 266.981L440.701 266.981L435.71 265.125L434.183 256.716L433.096 255.005L440.976 250Z" fill="#2F2E41"/>
<path d="M199.693 186.279L197.874 175.735L225.53 163.246L231.502 152.672C231.309 151.744 231.377 150.781 231.697 149.889C232.017 148.997 232.577 148.211 233.316 147.617C234.055 147.024 234.944 146.646 235.884 146.526C236.824 146.406 237.779 146.548 238.643 146.936C239.508 147.325 240.248 147.945 240.782 148.727C241.317 149.51 241.624 150.425 241.671 151.372C241.718 152.319 241.502 153.26 241.047 154.091C240.593 154.923 239.917 155.613 239.095 156.085L229.271 171.274L199.693 186.279Z" fill="#FFB6B6"/>
<path d="M191.286 177.659L203.74 171.297L207.037 183.677L198.386 190.089L191.286 177.659Z" fill="#FFC83D"/>
<path d="M163.339 388.078L170.869 388.077L174.451 359.031L163.337 359.032L163.339 388.078Z" fill="#FFB6B6"/>
<path d="M173.375 388.756V383.65L171.395 383.771L163.337 384.249L161.471 384.363L160.046 401.461L159.969 402.378H165.316L165.488 401.467L166.265 397.33L168.27 401.467L168.709 402.378H182.885C183.728 402.372 184.536 402.034 185.132 401.437C185.728 400.84 186.064 400.032 186.068 399.188C186.666 396.394 174.877 390.353 173.375 388.756Z" fill="#2F2E41"/>
<path d="M73.9507 272.806L72.1953 280.13L99.6055 290.386L102.196 279.578L73.9507 272.806Z" fill="#FFB6B6"/>
<path d="M71.5476 282.408L76.512 283.598L76.856 281.645L78.2707 273.697L78.5942 271.857L62.3002 266.484L61.4267 266.196L60.1799 271.395L61.025 271.775L64.8675 273.495L60.3765 274.48L59.3889 274.695L56.0836 288.48C55.8921 289.301 56.0325 290.165 56.4742 290.884C56.9159 291.603 57.6233 292.118 58.4427 292.318C61.0206 293.552 69.6437 283.496 71.5476 282.408Z" fill="#2F2E41"/>
<path d="M174.982 200.094L165.289 195.563L145.96 218.955L134.186 221.933C133.342 221.503 132.395 221.314 131.45 221.388C130.505 221.462 129.599 221.796 128.832 222.352C128.065 222.909 127.467 223.667 127.103 224.542C126.74 225.417 126.625 226.376 126.772 227.312C126.92 228.248 127.323 229.126 127.937 229.847C128.552 230.569 129.354 231.106 130.255 231.401C131.155 231.695 132.12 231.735 133.042 231.515C133.964 231.296 134.807 230.826 135.479 230.157L152.72 224.678L174.982 200.094Z" fill="#FFB6B6"/>
<path d="M312.4 113.5C310.345 113.5 308.337 112.891 306.629 111.749C304.92 110.608 303.589 108.986 302.802 107.087C302.016 105.189 301.811 103.1 302.211 101.085C302.612 99.0703 303.602 97.2193 305.054 95.7665C306.507 94.3137 308.358 93.3243 310.373 92.9235C312.388 92.5227 314.477 92.7284 316.375 93.5146C318.273 94.3009 319.896 95.6324 321.037 97.3407C322.179 99.049 322.788 101.057 322.788 103.112C322.785 105.866 321.689 108.507 319.742 110.454C317.794 112.402 315.154 113.497 312.4 113.5ZM312.4 93.916C310.581 93.916 308.803 94.4554 307.291 95.4658C305.779 96.4763 304.6 97.9125 303.904 99.5929C303.208 101.273 303.026 103.122 303.381 104.906C303.735 106.69 304.611 108.328 305.897 109.615C307.183 110.901 308.822 111.776 310.606 112.131C312.39 112.486 314.239 112.304 315.919 111.608C317.599 110.912 319.036 109.733 320.046 108.221C321.056 106.709 321.596 104.931 321.596 103.112C321.593 100.674 320.623 98.3365 318.899 96.6125C317.175 94.8885 314.838 93.9188 312.4 93.916Z" fill="#E6E6E6"/>
<path d="M311.666 107.026C311.646 107.026 311.625 107.025 311.604 107.024C311.419 107.015 311.239 106.966 311.075 106.881C310.911 106.796 310.768 106.677 310.655 106.531L309.018 104.427C308.915 104.294 308.839 104.142 308.794 103.98C308.749 103.818 308.737 103.648 308.758 103.481C308.779 103.314 308.832 103.153 308.915 103.007C308.999 102.861 309.11 102.732 309.243 102.629L309.302 102.583C309.434 102.48 309.586 102.404 309.749 102.359C309.911 102.314 310.08 102.302 310.247 102.323C310.414 102.344 310.576 102.397 310.722 102.481C310.868 102.564 310.997 102.675 311.1 102.808C311.183 102.914 311.287 103.001 311.407 103.063C311.526 103.125 311.657 103.16 311.792 103.167C311.926 103.174 312.06 103.151 312.185 103.101C312.31 103.051 312.422 102.974 312.515 102.877L315.838 99.3691C316.071 99.1227 316.393 98.9792 316.733 98.97C317.073 98.9607 317.402 99.0866 317.649 99.3198L317.703 99.3718C317.826 99.4875 317.924 99.6261 317.992 99.7797C318.061 99.9334 318.099 100.099 318.103 100.267C318.108 100.435 318.079 100.603 318.019 100.76C317.959 100.917 317.868 101.061 317.752 101.183L312.596 106.626C312.477 106.752 312.332 106.853 312.173 106.921C312.013 106.99 311.84 107.026 311.666 107.026Z" fill="#E6E6E6"/>
<path d="M260.541 239.271C258.487 239.271 256.478 238.661 254.77 237.52C253.062 236.378 251.73 234.756 250.944 232.858C250.158 230.96 249.952 228.871 250.353 226.856C250.754 224.841 251.743 222.99 253.196 221.537C254.649 220.084 256.5 219.095 258.515 218.694C260.53 218.293 262.619 218.499 264.517 219.285C266.415 220.071 268.037 221.403 269.179 223.111C270.32 224.82 270.93 226.828 270.93 228.883C270.926 231.637 269.831 234.277 267.884 236.225C265.936 238.172 263.296 239.268 260.541 239.271ZM260.541 219.687C258.723 219.687 256.945 220.226 255.432 221.236C253.92 222.247 252.741 223.683 252.045 225.363C251.349 227.044 251.167 228.893 251.522 230.677C251.877 232.46 252.753 234.099 254.039 235.385C255.325 236.671 256.964 237.547 258.747 237.902C260.531 238.257 262.38 238.075 264.061 237.379C265.741 236.682 267.177 235.504 268.188 233.992C269.198 232.479 269.737 230.701 269.737 228.883C269.735 226.444 268.765 224.107 267.041 222.383C265.317 220.659 262.98 219.689 260.541 219.687Z" fill="#E6E6E6"/>
<path d="M259.808 232.796C259.787 232.796 259.766 232.795 259.745 232.794C259.561 232.785 259.381 232.737 259.217 232.652C259.053 232.566 258.909 232.447 258.796 232.301L257.16 230.197C257.056 230.064 256.98 229.913 256.936 229.75C256.891 229.588 256.879 229.419 256.9 229.252C256.92 229.085 256.974 228.924 257.057 228.777C257.14 228.631 257.251 228.503 257.384 228.399L257.443 228.353C257.576 228.25 257.728 228.174 257.89 228.129C258.052 228.084 258.222 228.072 258.389 228.093C258.556 228.114 258.717 228.168 258.863 228.251C259.01 228.334 259.138 228.445 259.241 228.578C259.324 228.684 259.429 228.771 259.548 228.833C259.668 228.895 259.799 228.931 259.933 228.937C260.068 228.944 260.202 228.921 260.327 228.871C260.451 228.821 260.564 228.745 260.657 228.647L263.979 225.139C264.213 224.893 264.535 224.749 264.875 224.74C265.214 224.731 265.544 224.857 265.791 225.09L265.845 225.142C265.967 225.258 266.065 225.396 266.134 225.55C266.203 225.704 266.24 225.869 266.245 226.038C266.249 226.206 266.221 226.373 266.16 226.53C266.1 226.687 266.01 226.831 265.894 226.953L260.738 232.396C260.618 232.522 260.474 232.623 260.314 232.692C260.154 232.76 259.982 232.796 259.808 232.796Z" fill="#E6E6E6"/>
<path d="M146.692 99.1947C144.638 99.1947 142.629 98.5855 140.921 97.444C139.213 96.3026 137.881 94.6801 137.095 92.782C136.309 90.8838 136.103 88.7951 136.504 86.78C136.905 84.7649 137.894 82.9139 139.347 81.4611C140.8 80.0083 142.651 79.0189 144.666 78.6181C146.681 78.2172 148.77 78.423 150.668 79.2092C152.566 79.9955 154.188 81.3269 155.33 83.0353C156.471 84.7436 157.08 86.752 157.08 88.8066C157.077 91.5607 155.982 94.2012 154.034 96.1487C152.087 98.0962 149.446 99.1917 146.692 99.1947ZM146.692 79.6106C144.874 79.6106 143.096 80.1499 141.583 81.1604C140.071 82.1709 138.892 83.6071 138.196 85.2874C137.5 86.9678 137.318 88.8168 137.673 90.6007C138.028 92.3845 138.904 94.0231 140.19 95.3092C141.476 96.5952 143.114 97.4711 144.898 97.8259C146.682 98.1807 148.531 97.9986 150.211 97.3026C151.892 96.6066 153.328 95.4279 154.339 93.9156C155.349 92.4033 155.888 90.6254 155.888 88.8066C155.886 86.3685 154.916 84.0311 153.192 82.3071C151.468 80.5831 149.13 79.6134 146.692 79.6106Z" fill="#E6E6E6"/>
<path d="M145.959 92.72C145.939 92.72 145.918 92.7193 145.897 92.7183C145.712 92.7094 145.532 92.6607 145.368 92.5756C145.204 92.4905 145.061 92.3709 144.948 92.2251L143.311 90.1213C143.208 89.9885 143.132 89.8367 143.087 89.6744C143.042 89.5122 143.03 89.3427 143.051 89.1758C143.072 89.0088 143.125 88.8476 143.208 88.7013C143.292 88.555 143.403 88.4266 143.536 88.3233L143.595 88.2775C143.727 88.1741 143.879 88.0979 144.041 88.0532C144.204 88.0085 144.373 87.9963 144.54 88.0172C144.707 88.038 144.869 88.0916 145.015 88.1748C145.161 88.2581 145.29 88.3693 145.393 88.5022C145.476 88.6083 145.58 88.6953 145.699 88.7573C145.819 88.8193 145.95 88.8548 146.085 88.8613C146.219 88.8679 146.353 88.8453 146.478 88.7952C146.603 88.7451 146.715 88.6687 146.808 88.5711L150.131 85.0634C150.364 84.817 150.686 84.6735 151.026 84.6643C151.366 84.6551 151.695 84.7809 151.942 85.0142L151.996 85.0661C152.119 85.1818 152.217 85.3204 152.285 85.4741C152.354 85.6277 152.392 85.7934 152.396 85.9616C152.401 86.1298 152.372 86.2972 152.312 86.4544C152.252 86.6115 152.161 86.7552 152.045 86.8773L146.889 92.3198C146.769 92.4463 146.625 92.5469 146.465 92.6157C146.306 92.6846 146.133 92.72 145.959 92.72Z" fill="#E6E6E6"/>
<path d="M161.523 264.258C137.434 264.258 109.75 237.527 85.2569 250.228C11.097 288.682 21.3055 224.334 0 200.403L0.699464 199C24.2077 220.079 53.5584 237.229 85.5789 248.596C114.515 258.869 143.669 263.629 169.877 262.372L169.922 264.059C167.155 264.192 164.355 264.259 161.523 264.258Z" fill="#F2F2F2"/>
<path d="M196.816 97.1611C199.597 97.1611 201.851 94.1382 201.851 90.4092C201.851 86.6802 199.597 83.6572 196.816 83.6572C194.035 83.6572 191.781 86.6802 191.781 90.4092C191.781 94.1382 194.035 97.1611 196.816 97.1611Z" fill="#E6E6E6"/>
<path d="M254.972 202.492C252.67 204.026 250.314 200.376 252.66 198.91C254.962 197.376 257.318 201.027 254.972 202.492Z" fill="#E6E6E6"/>
<path d="M241.722 79.593C245.343 79.593 248.279 76.6575 248.279 73.0363C248.279 69.4151 245.343 66.4795 241.722 66.4795C238.101 66.4795 235.166 69.4151 235.166 73.0363C235.166 76.6575 238.101 79.593 241.722 79.593Z" fill="#FF6584"/>
<path opacity="0.3" d="M264.655 108.967L301.965 0L260.997 107.662C260.794 107.918 260.655 108.218 260.592 108.538C260.528 108.858 260.542 109.188 260.632 109.502C260.722 109.815 260.885 110.103 261.108 110.341C261.331 110.578 261.608 110.76 261.915 110.869C262.222 110.979 262.551 111.013 262.875 110.97C263.198 110.927 263.506 110.808 263.774 110.622C264.042 110.436 264.262 110.189 264.415 109.901C264.568 109.613 264.651 109.293 264.655 108.967H264.655Z" fill="#F0F0F0"/>
<path d="M226.996 241.72C230.519 241.72 233.375 238.864 233.375 235.341C233.375 231.818 230.519 228.961 226.996 228.961C223.472 228.961 220.616 231.818 220.616 235.341C220.616 238.864 223.472 241.72 226.996 241.72Z" fill="#F2F2F2"/>
<path d="M452.5 201C454.433 201 456 199.433 456 197.5C456 195.567 454.433 194 452.5 194C450.567 194 449 195.567 449 197.5C449 199.433 450.567 201 452.5 201Z" fill="#F2F2F2"/>
<path d="M165.21 237.774C165.21 237.774 149.307 248.13 153.512 255.011C153.657 255.248 134.515 280.529 134.515 280.529L98.3805 278.235L97.1074 290.33L129.277 299.647C129.277 299.647 137.147 305.429 143.227 299.058C149.307 292.688 169.558 273.18 169.558 273.18L170.535 312.566L160.369 367.144L175.548 366.181L190.321 311.426L195.775 249.403L165.21 237.774Z" fill="#2F2E41"/>
<path d="M176.539 175.623L169.851 180.691L162.228 196.96L169.558 206.914C169.558 206.914 175.724 217.6 165.855 227.948C155.986 238.296 148.407 249.349 156.307 248.954C164.206 248.56 196.198 264.832 196.409 251.5C196.619 238.169 197.046 227.948 197.046 227.948L205.433 206.674C205.433 206.674 210.431 193.983 206.922 190.184C203.413 186.385 198.716 181.53 198.716 181.53L190.173 172.987H182.459L176.539 175.623Z" fill="#FFC83D"/>
<path d="M189.022 144.364C204.026 152.902 191.709 175.428 176.426 167.406C161.423 158.869 173.74 136.343 189.022 144.364Z" fill="#FFB6B6"/>
<path d="M197.046 149.098C195.994 150.465 193.798 149.824 189.497 150.8C189.506 149.342 189.338 147.888 188.995 146.471C188.675 148.226 187.974 149.889 186.941 151.342C183.206 151.757 187.784 163.103 185.872 171.445C183.408 153.846 178.226 158.457 180.844 161.947C182.52 164.182 181.403 170.886 176.375 167.534C168.079 171.477 156.262 151.891 169.358 142.706C169.124 137.741 174.649 136.956 178.051 138.483C186.307 132.333 195.739 140.213 197.046 149.098Z" fill="#2F2E41"/>
<path d="M158.55 136.256C155.21 156.793 137.306 132.479 128.888 152.69C126.241 160.009 130.782 165.245 133.655 171.32C134.31 176.313 127.815 178.846 127.135 183.441C126.946 193.978 143.944 193.333 148.696 186.686C153.579 179.727 147.748 170.391 150.683 162.921C154.808 152.551 171.583 152.474 173.045 140.409C170.214 136.379 162.604 131.763 158.55 136.256Z" fill="#2F2E41"/>
<path d="M172.082 138.263C171.973 138.309 171.863 138.355 171.766 138.407H171.76C171.668 138.453 171.576 138.499 171.484 138.55C171.472 138.556 171.467 138.562 171.455 138.568C171.334 138.453 171.213 138.338 171.087 138.223C171.054 138.41 171.062 138.602 171.11 138.786L171.127 138.855C171.242 138.976 171.363 139.091 171.49 139.212C171.605 139.126 171.714 139.034 171.829 138.947C171.898 138.89 171.967 138.832 172.042 138.775C172.053 138.625 172.07 138.453 172.088 138.263L172.082 138.263ZM175.544 131.867C172.979 131.281 172.151 134.634 171.904 136.25C170.972 130.384 167.095 132.23 168.436 136.233C168.863 137.418 169.535 138.5 170.408 139.407C170.529 139.545 170.661 139.683 170.799 139.822C170.644 140.627 171.426 140.42 172.484 139.678C173.266 139.122 173.989 138.488 174.641 137.786C176.752 135.571 178.397 132.609 175.544 131.867ZM175.625 135.169C174.833 136.189 173.945 137.131 172.973 137.981C172.669 138.257 172.358 138.522 172.042 138.775C172.036 138.827 172.036 138.873 172.03 138.913C172.008 138.969 171.981 139.023 171.95 139.074C171.628 139.655 171.265 139.338 171.127 138.855C171.116 138.838 171.098 138.821 171.087 138.804C170.627 138.329 170.227 137.8 169.896 137.228C167.521 133.11 171.346 130.309 171.156 137.998C171.121 138.069 171.098 138.145 171.087 138.223C171.054 138.41 171.062 138.602 171.11 138.786L171.127 138.855C171.242 138.976 171.363 139.091 171.49 139.212C171.605 139.126 171.714 139.034 171.829 138.947C171.898 138.89 171.967 138.832 172.042 138.775C172.053 138.625 172.07 138.453 172.088 138.263V138.257C172.237 136.716 172.646 133.944 173.399 133.19C175.055 131.919 177.201 133.294 175.625 135.169ZM172.082 138.263C171.973 138.309 171.863 138.355 171.766 138.407H171.76C171.668 138.453 171.576 138.499 171.484 138.55C171.472 138.556 171.467 138.562 171.455 138.568C171.334 138.453 171.213 138.338 171.087 138.223C171.054 138.41 171.062 138.602 171.11 138.786L171.127 138.855C171.242 138.976 171.363 139.091 171.49 139.212C171.605 139.126 171.714 139.034 171.829 138.947C171.898 138.89 171.967 138.832 172.042 138.775C172.053 138.625 172.07 138.453 172.088 138.263L172.082 138.263Z" fill="#2F2E41"/>
<path d="M310.753 251.492L305.212 265.943L279.218 317.216L302.059 376.863L313.847 373.752L304.131 317.216L332.005 283.348L365.108 305.8C365.108 305.8 379.79 317.261 385.375 306.396C390.96 295.531 427.1 272.42 427.1 272.42L418.159 262.883L376.542 282.359L347.818 241.929L310.753 251.492Z" fill="#2F2E41"/>
<path d="M338.713 183.329L329.591 173.529L313.944 171.376L294.772 184.798L294.966 199.654L304.443 234.661C304.443 234.661 300.833 259.811 310.916 259.559C320.999 259.307 326.496 254.28 330.602 255.303C334.709 256.326 352.167 260.681 353.273 256.12C354.379 251.558 360.26 254.824 360.002 250.509C359.744 246.193 344.082 215.086 344.082 215.086L347.976 183.976L338.713 183.329Z" fill="#FA7228"/>
<path d="M396.467 138.218C396.548 139.031 396.451 139.851 396.181 140.622C395.911 141.393 395.475 142.096 394.904 142.68C394.334 143.264 393.642 143.717 392.878 144.005C392.113 144.293 391.295 144.41 390.481 144.347L369.505 184.24L363.873 175.595L385.313 137.945C385.509 136.583 386.197 135.341 387.247 134.453C388.297 133.566 389.637 133.094 391.011 133.127C392.386 133.161 393.701 133.698 394.706 134.636C395.712 135.574 396.338 136.849 396.467 138.218Z" fill="#FFB6B6"/>
<path d="M330.431 190.746C330.431 190.746 329.599 197.842 337.588 199.599C345.576 201.356 367.708 188.71 371.337 186.778C372.473 186.173 374.015 183.209 375.596 179.421C376.307 177.721 377.025 175.855 377.718 173.962C378.119 172.867 380.04 172.568 380.419 171.481C380.795 170.401 379.628 168.533 379.968 167.515C381.584 162.682 382.729 158.848 382.729 158.848L377.435 148.903C370.029 152.817 366.231 161.441 363.438 171.375L330.431 190.746Z" fill="#FA7228"/>
<path d="M237.135 147.379C237.259 148.186 237.559 148.956 238.013 149.635C238.467 150.314 239.065 150.885 239.764 151.308C240.462 151.731 241.245 151.996 242.058 152.083C242.87 152.171 243.691 152.079 244.464 151.815L274.756 185.189L278.045 175.41L247.865 144.323C247.335 143.054 246.358 142.024 245.119 141.427C243.88 140.83 242.465 140.709 241.142 141.085C239.82 141.462 238.681 142.311 237.943 143.471C237.204 144.631 236.916 146.021 237.135 147.379Z" fill="#FFB6B6"/>
<path d="M314.214 181.71C314.214 181.71 316.795 188.372 309.501 192.072C302.206 195.772 277.613 189.067 273.617 188.105C272.365 187.804 270.131 185.319 267.652 182.048C266.538 180.58 265.376 178.953 264.231 177.294C263.569 176.334 261.634 176.525 260.996 175.568C260.362 174.616 261.024 172.516 260.439 171.615C257.665 167.341 255.597 163.915 255.597 163.915L258.234 152.961C266.384 154.898 272.219 162.296 277.409 171.216L314.214 181.71Z" fill="#FA7228"/>
<path d="M322.08 168.883C330.302 168.883 336.967 162.218 336.967 153.996C336.967 145.774 330.302 139.108 322.08 139.108C313.858 139.108 307.192 145.774 307.192 153.996C307.192 162.218 313.858 168.883 322.08 168.883Z" fill="#FFB6B6"/>
<path d="M339.074 145.472C337.508 143.049 334.569 141.434 331.72 141.888C331.455 140.07 330.696 138.36 329.526 136.943C328.356 135.526 326.82 134.458 325.085 133.854C323.349 133.25 321.482 133.133 319.685 133.517C317.888 133.901 316.231 134.771 314.894 136.031C314.455 135.721 313.942 135.531 313.408 135.477C312.873 135.424 312.333 135.509 311.841 135.725C310.86 136.171 310.007 136.856 309.36 137.717C307.725 139.755 306.673 142.199 306.317 144.788C305.961 147.377 306.314 150.013 307.338 152.418C306.989 151.152 308.258 149.961 309.539 149.677C310.821 149.393 312.165 149.662 313.465 149.477C315.131 149.24 316.628 148.273 318.297 148.056C319.711 147.964 321.131 148.146 322.476 148.593C323.821 149.04 325.238 149.23 326.654 149.154C328.058 148.987 329.867 154.309 329.843 158.057C329.838 158.767 329.984 159.679 330.678 159.83C331.533 160.016 332.029 158.836 332.842 158.514C333.217 158.407 333.619 158.449 333.964 158.632C334.308 158.815 334.568 159.125 334.689 159.496C334.791 159.873 334.802 160.269 334.721 160.652C334.639 161.034 334.468 161.391 334.22 161.694C333.72 162.293 333.126 162.808 332.462 163.219L332.797 163.498C333.115 163.834 333.54 164.049 333.999 164.106C334.459 164.163 334.923 164.058 335.314 163.81C336.082 163.29 336.704 162.582 337.121 161.753C338.692 159.324 339.814 156.634 340.436 153.809C340.961 150.973 340.64 147.895 339.074 145.472Z" fill="#2F2E41"/>
<path d="M488.538 144.742C474.347 164.207 436.438 170.83 432.271 198.104C419.656 280.683 373.674 234.526 341.785 237.644L341.063 236.252C371.945 229.674 403.094 216.06 431.142 196.882C456.49 179.552 477.511 158.799 491.935 136.881L493.325 137.838C491.802 140.153 490.207 142.454 488.538 144.742Z" fill="#F2F2F2"/>
<path d="M368.023 401.748C367.566 403.103 106.444 403.103 105.95 401.751C106.407 400.393 367.529 400.393 368.023 401.748Z" fill="#38AF78"/>
</svg>
