<svg width="146" height="66" viewBox="0 0 146 66" fill="none" xmlns="http://www.w3.org/2000/svg">
<rect x="0.577552" y="0.450423" width="133.181" height="54.1912" rx="27.0956" transform="matrix(0.9954 -0.0840565 0.159705 0.984903 1.93072 11.602)" fill="#31BD64" stroke="#1B9547"/>
<path d="M49.8318 21.3362L52.7441 39.439C53.3855 43.4259 52.935 46.4681 51.3924 48.5655C49.8498 50.663 47.2962 51.8634 43.7315 52.1668C41.8528 52.3267 40.0293 52.2224 38.261 51.8541C36.4926 51.4858 34.9765 50.8638 33.7125 49.9883L35.2244 45.272C36.1646 45.9566 37.2957 46.4611 38.6175 46.7855C39.9436 47.1369 41.2329 47.2593 42.4854 47.1527C44.4363 46.9866 45.7892 46.3663 46.5441 45.2916C47.3275 44.2419 47.5588 42.7203 47.2381 40.7268L47.0886 39.7975C45.9097 41.7274 44.0076 42.8041 41.3822 43.0275C39.5999 43.1792 37.8927 42.8876 36.2607 42.1527C34.6485 41.3887 33.2809 40.249 32.1582 38.7334C31.0354 37.2178 30.3071 35.4229 29.9734 33.3486C29.6397 31.2743 29.7785 29.4056 30.3899 27.7424C31.0013 26.0792 31.9723 24.7541 33.3028 23.767C34.6531 22.751 36.2195 22.1671 38.0018 22.0154C40.8198 21.7755 43.1303 22.6302 44.9333 24.5795L44.4847 21.7913L49.8318 21.3362ZM41.6701 37.76C43.1634 37.6329 44.3018 37.0445 45.0851 35.9947C45.8882 34.916 46.1619 33.582 45.9062 31.9926C45.6505 30.4032 44.9629 29.1646 43.8434 28.2768C42.7437 27.36 41.4472 26.9652 39.9539 27.0923C38.4606 27.2194 37.3124 27.8223 36.5093 28.901C35.7019 29.9528 35.426 31.2734 35.6817 32.8628C35.9374 34.4522 36.6272 35.7042 37.751 36.6189C38.8704 37.5067 40.1768 37.8871 41.6701 37.76Z" fill="white"/>
<path d="M60.9222 23.3006C61.4276 22.1925 62.2029 21.321 63.2483 20.6859C64.3177 20.0487 65.5991 19.6666 67.0924 19.5395L68.0286 25.3582C67.3937 25.3576 66.9678 25.3666 66.7511 25.385C65.1373 25.5224 63.9551 26.1418 63.2046 27.2434C62.4497 28.318 62.2347 29.8655 62.5598 31.8859L64.211 42.1496L58.5749 42.6293L55.0775 20.8897L60.4606 20.4316L60.9222 23.3006Z" fill="white"/>
<path d="M83.1176 40.8681C81.0703 41.0424 79.1519 40.7277 77.3624 39.9243C75.5927 39.0918 74.1136 37.866 72.9253 36.2468C71.737 34.6275 70.9695 32.7404 70.6228 30.5853C70.2761 28.4302 70.4239 26.4651 71.0661 24.6901C71.7083 22.915 72.7605 21.4874 74.2225 20.4072C75.7043 19.298 77.4689 18.6563 79.5162 18.4821C81.5635 18.3078 83.472 18.6369 85.2418 19.4694C87.0072 20.2749 88.4841 21.4873 89.6724 23.1065C90.8607 24.7257 91.6282 26.6129 91.9749 28.768C92.3216 30.9231 92.1738 32.8881 91.5316 34.6632C90.8894 36.4382 89.8394 37.8793 88.3817 38.9864C86.9196 40.0666 85.1649 40.6939 83.1176 40.8681ZM82.2855 35.6959C83.7307 35.5729 84.8242 34.9337 85.5661 33.7782C86.3278 32.5938 86.5612 31.0857 86.2665 29.2538C85.9718 27.422 85.2681 26.0073 84.1554 25.0097C83.0625 23.9831 81.7934 23.5313 80.3483 23.6543C78.9031 23.7773 77.7997 24.431 77.0381 25.6154C76.2721 26.7729 76.0365 28.2676 76.3312 30.0994C76.6259 31.9313 77.3317 33.3594 78.4488 34.384C79.5615 35.3816 80.8404 35.8189 82.2855 35.6959Z" fill="white"/>
<path d="M113.575 15.911L117.073 37.6505L111.726 38.1056L111.309 35.5195C110.715 36.5259 109.94 37.3291 108.987 37.9291C108.029 38.5021 106.948 38.8399 105.744 38.9424C103.191 39.1597 101.036 38.5102 99.2779 36.9941C97.5202 35.4779 96.3813 33.1035 95.8613 29.8709L93.885 17.5868L99.5211 17.1071L101.348 28.4618C101.911 31.9638 103.506 33.6031 106.131 33.3797C107.48 33.2649 108.486 32.6877 109.148 31.6482C109.807 30.5818 109.98 29.0788 109.668 27.1392L107.939 16.3907L113.575 15.911Z" fill="white"/>
</svg>
