<svg width="110" height="40" viewBox="0 0 110 40" fill="none" xmlns="http://www.w3.org/2000/svg">
<rect x="0.5" y="0.5" width="109" height="39" rx="19.5" fill="black" stroke="#31BD64"/>
<path d="M37.6532 11.2353V24.4118C37.6532 27.3137 36.8917 29.4706 35.3687 30.8824C33.8457 32.2941 31.6205 33 28.6931 33C27.1503 33 25.6866 32.8137 24.302 32.4412C22.9175 32.0686 21.7703 31.5294 20.8604 30.8235L22.6999 27.5294C23.3724 28.0784 24.2229 28.5098 25.2515 28.8235C26.28 29.1569 27.3085 29.3235 28.3371 29.3235C29.9392 29.3235 31.1161 28.9608 31.8677 28.2353C32.6391 27.5294 33.0248 26.451 33.0248 25V24.3235C31.8183 25.6373 30.137 26.2941 27.981 26.2941C26.5173 26.2941 25.1723 25.9804 23.946 25.3529C22.7395 24.7059 21.7802 23.8039 21.0681 22.6471C20.356 21.4902 20 20.1569 20 18.6471C20 17.1373 20.356 15.8039 21.0681 14.6471C21.7802 13.4902 22.7395 12.598 23.946 11.9706C25.1723 11.3235 26.5173 11 27.981 11C30.2952 11 32.0556 11.7549 33.2622 13.2647V11.2353H37.6532ZM28.9008 22.5294C30.1271 22.5294 31.126 22.1765 31.8974 21.4706C32.6886 20.7451 33.0841 19.8039 33.0841 18.6471C33.0841 17.4902 32.6886 16.5588 31.8974 15.8529C31.126 15.1275 30.1271 14.7647 28.9008 14.7647C27.6745 14.7647 26.6657 15.1275 25.8745 15.8529C25.0833 16.5588 24.6877 17.4902 24.6877 18.6471C24.6877 19.8039 25.0833 20.7451 25.8745 21.4706C26.6657 22.1765 27.6745 22.5294 28.9008 22.5294Z" fill="white"/>
<path d="M46.3818 13.3235C46.9356 12.5588 47.6773 11.9804 48.607 11.5882C49.5564 11.1961 50.6443 11 51.8706 11V15.2353C51.3563 15.1961 51.0102 15.1765 50.8322 15.1765C49.5069 15.1765 48.4685 15.549 47.7169 16.2941C46.9653 17.0196 46.5895 18.1176 46.5895 19.5882V27.0588H41.9611V11.2353H46.3818V13.3235Z" fill="white"/>
<path d="M62.0731 27.2941C60.3918 27.2941 58.8787 26.951 57.5337 26.2647C56.2085 25.5588 55.1701 24.5882 54.4184 23.3529C53.6668 22.1176 53.291 20.7157 53.291 19.1471C53.291 17.5784 53.6668 16.1765 54.4184 14.9412C55.1701 13.7059 56.2085 12.7451 57.5337 12.0588C58.8787 11.3529 60.3918 11 62.0731 11C63.7544 11 65.2576 11.3529 66.5828 12.0588C67.9081 12.7451 68.9465 13.7059 69.6981 14.9412C70.4497 16.1765 70.8255 17.5784 70.8255 19.1471C70.8255 20.7157 70.4497 22.1176 69.6981 23.3529C68.9465 24.5882 67.9081 25.5588 66.5828 26.2647C65.2576 26.951 63.7544 27.2941 62.0731 27.2941ZM62.0731 23.5294C63.2599 23.5294 64.2291 23.1373 64.9807 22.3529C65.7521 21.549 66.1378 20.4804 66.1378 19.1471C66.1378 17.8137 65.7521 16.7549 64.9807 15.9706C64.2291 15.1667 63.2599 14.7647 62.0731 14.7647C60.8863 14.7647 59.9072 15.1667 59.1358 15.9706C58.3644 16.7549 57.9787 17.8137 57.9787 19.1471C57.9787 20.4804 58.3644 21.549 59.1358 22.3529C59.9072 23.1373 60.8863 23.5294 62.0731 23.5294Z" fill="white"/>
<path d="M90 11.2353V27.0588H85.6089V25.1765C84.9958 25.8627 84.2639 26.3922 83.4134 26.7647C82.5629 27.1176 81.6432 27.2941 80.6542 27.2941C78.5576 27.2941 76.8961 26.6961 75.6697 25.5C74.4434 24.3039 73.8302 22.5294 73.8302 20.1765V11.2353H78.4587V19.5C78.4587 22.049 79.5366 23.3235 81.6926 23.3235C82.8003 23.3235 83.6903 22.9706 84.3628 22.2647C85.0353 21.5392 85.3716 20.4706 85.3716 19.0588V11.2353H90Z" fill="white"/>
</svg>
