<svg width="143" height="67" viewBox="0 0 143 67" fill="none" xmlns="http://www.w3.org/2000/svg">
<rect x="0.552464" y="0.43669" width="136.842" height="48.3693" rx="24.1846" transform="matrix(0.992717 -0.120284 0.11221 0.993664 -0.0449778 17.6494)" fill="black" stroke="#31BD64"/>
<path d="M48.2704 24.4872L50.0948 40.6246C50.4966 44.1786 49.8482 46.9348 48.1495 48.893C46.4509 50.8512 43.7812 52.0507 40.1406 52.4913C38.2218 52.7235 36.3757 52.7157 34.6022 52.4679C32.8287 52.22 31.3273 51.7323 30.098 51.0047L31.9296 46.6935C32.842 47.2647 33.9595 47.665 35.2821 47.8944C36.6074 48.1478 37.9096 48.1971 39.1887 48.0423C41.1813 47.8011 42.5947 47.1797 43.429 46.1781C44.2906 45.1975 44.621 43.8187 44.4201 42.0416L44.3264 41.2132C43.0078 43.0037 41.0078 44.0612 38.3265 44.3857C36.5062 44.6061 34.79 44.4243 33.178 43.8404C31.5879 43.2296 30.2699 42.2693 29.2242 40.9597C28.1784 39.65 27.551 38.0707 27.342 36.2216C27.133 34.3726 27.3911 32.686 28.1165 31.162C28.8419 29.638 29.9114 28.401 31.3251 27.4509C32.7607 26.4739 34.3886 25.8752 36.2089 25.6549C39.087 25.3066 41.3809 25.9661 43.0904 27.6336L42.8095 25.1481L48.2704 24.4872ZM38.9491 39.6366C40.4743 39.452 41.6676 38.8694 42.5293 37.8888C43.4128 36.8812 43.7745 35.669 43.6143 34.2522C43.4541 32.8354 42.8332 31.7543 41.7515 31.0089C40.6917 30.2364 39.3992 29.9425 37.874 30.1271C36.3489 30.3117 35.1446 30.9078 34.2611 31.9154C33.3748 32.899 33.0118 34.0992 33.172 35.516C33.3322 36.9328 33.9544 38.026 35.0389 38.7954C36.1206 39.5408 37.424 39.8212 38.9491 39.6366Z" fill="white"/>
<path d="M59.415 25.7309C59.9979 24.711 60.8402 23.8909 61.9421 23.2707C63.0686 22.6475 64.3944 22.2436 65.9195 22.059L66.5059 27.246C65.8609 27.2754 65.4277 27.3035 65.2063 27.3303C63.5582 27.5298 62.3183 28.1424 61.4867 29.168C60.6524 30.1697 60.337 31.571 60.5407 33.372L61.575 42.5213L55.8188 43.218L53.6279 23.8388L59.1258 23.1734L59.415 25.7309Z" fill="white"/>
<path d="M80.8641 40.4789C78.7731 40.732 76.8438 40.5395 75.076 39.9015C73.3302 39.2364 71.9043 38.204 70.7985 36.8043C69.6927 35.4046 69.0312 33.7441 68.814 31.823C68.5969 29.9019 68.8701 28.1283 69.6339 26.5023C70.3976 24.8763 71.556 23.5433 73.1091 22.5034C74.6841 21.4364 76.5171 20.7764 78.608 20.5234C80.6989 20.2703 82.6173 20.4763 84.3632 21.1413C86.1064 21.7823 87.5308 22.8027 88.6366 24.2024C89.7424 25.6022 90.4039 27.2626 90.6211 29.1837C90.8383 31.1048 90.565 32.8784 89.8013 34.5044C89.0376 36.1304 87.8805 37.4754 86.3301 38.5394C84.777 39.5793 82.955 40.2259 80.8641 40.4789ZM80.3428 35.8682C81.8187 35.6896 82.9698 35.0635 83.796 33.9898C84.644 32.8891 84.9757 31.5223 84.7911 29.8893C84.6065 28.2564 83.9802 27.0177 82.9123 26.1732C81.8662 25.3018 80.6052 24.9554 79.1293 25.134C77.6533 25.3127 76.4913 25.9523 75.6433 27.053C74.7925 28.1297 74.4594 29.4845 74.644 31.1174C74.8286 32.7504 75.4563 34.0011 76.5269 34.8695C77.5949 35.714 78.8669 36.0469 80.3428 35.8682Z" fill="white"/>
<path d="M113.372 16.608L115.563 35.9872L110.102 36.6481L109.842 34.3428C109.174 35.2756 108.337 36.0341 107.331 36.6184C106.322 37.1787 105.203 37.5332 103.973 37.6821C101.365 37.9977 99.216 37.5153 97.5253 36.2351C95.8345 34.9548 94.8263 32.8739 94.5005 29.9922L93.2625 19.0418L99.0187 18.3452L100.163 28.467C100.516 31.5888 102.033 32.9875 104.714 32.663C106.092 32.4963 107.15 31.93 107.889 30.9643C108.625 29.9746 108.895 28.6152 108.699 26.8862L107.616 17.3046L113.372 16.608Z" fill="white"/>
</svg>
