<svg width="344" height="191" viewBox="0 0 344 191" fill="none" xmlns="http://www.w3.org/2000/svg">
<path d="M15.3132 87.7365L15.3119 87.7333C13.2647 82.6502 12.3886 77.1713 12.7486 71.7035C13.7406 59.3773 21.3029 48.4639 31.3245 40.9706C42.5398 32.5848 56.5978 28.9308 70.7437 27.252C86.8046 25.346 103.195 25.1657 119.524 25.0571C136.472 24.9444 153.411 25.3872 170.342 26.3855C187.248 27.3875 204.11 28.9451 220.926 31.0584L220.926 31.0584C235.959 32.9464 250.934 34.9961 265.479 38.6664C279.169 42.1208 292.458 47.095 303.92 55.0607L303.929 55.0669L303.938 55.0731C314.068 61.9826 322.058 71.5942 327 82.8163C331.536 93.2783 333.369 105.198 330.664 116.133L330.661 116.145C329.364 121.504 326.954 126.53 323.588 130.896C319.609 135.775 314.823 139.936 309.437 143.198L309.415 143.211L309.394 143.225C305.169 145.904 300.75 148.209 296.223 150.569C294.597 151.418 292.957 152.273 291.307 153.156C285.146 156.451 278.968 160.07 273.514 164.91C270.623 167.456 268.012 170.305 265.725 173.406L265.679 173.469L265.636 173.535C264.437 175.395 262.733 176.875 260.724 177.802C258.853 178.543 256.805 178.719 254.834 178.307C252.847 177.893 251.028 176.901 249.604 175.455C248.572 174.387 247.682 173.038 246.796 171.477C246.375 170.736 245.972 169.978 245.554 169.192L245.49 169.072C245.056 168.256 244.604 167.409 244.131 166.591L237.949 155.906C237.624 155.199 237.253 154.513 236.84 153.854C236.835 153.827 236.831 153.801 236.826 153.776C236.782 153.543 236.712 153.357 236.656 153.231C236.599 153.101 236.54 152.998 236.494 152.924C236.447 152.848 236.403 152.785 236.367 152.738C236.297 152.645 236.235 152.575 236.194 152.532C236.176 152.512 236.159 152.495 236.144 152.479C236.122 152.457 236.102 152.438 236.086 152.422C236.032 152.371 235.985 152.331 235.957 152.307L235.956 152.307C235.612 152.017 235.27 151.88 235.08 151.816C234.993 151.786 234.911 151.763 234.844 151.746C234.304 151.519 233.747 151.336 233.177 151.199C227.799 149.43 222.401 147.725 216.982 146.083C196.878 139.949 176.529 134.368 155.9 130.035C145.241 127.699 134.459 125.959 123.606 124.825L123.595 124.823L123.584 124.822C116.495 124.145 109.403 124.033 102.395 123.998C101.229 123.992 100.066 123.988 98.9053 123.985C93.0621 123.967 87.2874 123.949 81.5207 123.658C66.595 122.905 51.4903 120.613 38.7918 113.266C28.5534 107.341 19.6625 98.5793 15.3132 87.7365Z" stroke="white" stroke-width="5"/>
<path d="M87.0805 85.8571C86.4007 85.7326 85.7541 85.4687 85.1813 85.0821C84.6085 84.6954 84.1219 84.1944 83.7522 83.6105C83.3826 83.0266 83.1378 82.3725 83.0333 81.6893C82.9288 81.0062 82.9668 80.3088 83.145 79.6411L83.8839 76.8911C84.0254 76.3636 84.0366 75.8096 83.9165 75.2768C83.7965 74.744 83.5489 74.2483 83.195 73.8324L81.3502 71.6659C80.746 70.9566 80.3523 70.0925 80.2137 69.1712C80.0751 68.2498 80.197 67.3081 80.5658 66.4525C80.9345 65.5968 81.5353 64.8615 82.3002 64.3295C83.0651 63.7976 83.9636 63.4903 84.8941 63.4424L87.7376 63.2957C88.2827 63.2676 88.8128 63.1075 89.2822 62.8291C89.7517 62.5507 90.1465 62.1623 90.4325 61.6975L91.9239 59.27C92.412 58.4766 93.1124 57.8355 93.9458 57.4193C94.7792 57.003 95.7124 56.8282 96.64 56.9145C97.5676 57.0009 98.4525 57.3449 99.1948 57.9079C99.937 58.4708 100.507 59.2301 100.84 60.1L101.858 62.7587C102.053 63.2691 102.369 63.7244 102.779 64.0853C103.19 64.4462 103.682 64.7018 104.213 64.8301L106.98 65.4979C107.885 65.7167 108.712 66.1844 109.365 66.8483C110.019 67.5123 110.474 68.3458 110.678 69.2548C110.883 70.1638 110.829 71.1119 110.523 71.9918C110.217 72.8718 109.671 73.6485 108.946 74.2342L106.732 76.0238C106.307 76.3666 105.972 76.8077 105.756 77.309C105.54 77.8103 105.449 78.3567 105.492 78.901L105.71 81.7412C105.782 82.6699 105.592 83.6001 105.162 84.4267C104.733 85.2532 104.081 85.9431 103.28 86.4185C102.479 86.8938 101.561 87.1355 100.629 87.1164C99.6982 87.0972 98.7909 86.818 98.01 86.3101L95.6233 84.7584C95.1659 84.4596 94.6426 84.2769 94.0987 84.2261C93.5548 84.1753 93.0066 84.2578 92.5018 84.4666L89.8695 85.5523C88.988 85.918 88.0202 86.0238 87.0805 85.8571Z" fill="white"/>
<path d="M126.963 90.1454C125.712 89.9149 124.595 89.2205 123.835 88.2012C123.378 87.5627 123.073 86.8287 122.942 86.0549C122.812 85.281 122.859 84.4875 123.08 83.7345L123.758 81.2113C123.902 80.674 123.914 80.1097 123.792 79.567C123.669 79.0242 123.417 78.5193 123.056 78.0957L121.345 76.0861C120.837 75.5163 120.463 74.8406 120.249 74.1079C120.035 73.3752 119.988 72.6041 120.109 71.8506C120.305 70.7367 120.874 69.7223 121.722 68.9738C122.57 68.2252 123.647 67.7869 124.777 67.7306L127.587 67.5856C128.143 67.5569 128.683 67.3935 129.162 67.1094C129.64 66.8254 130.042 66.4292 130.334 65.9551L131.672 63.7768C132.158 62.9469 132.863 62.2671 133.71 61.8122C134.557 61.3572 135.513 61.1448 136.473 61.1983C137.41 61.273 138.308 61.6124 139.06 62.1771C139.813 62.7419 140.389 63.5086 140.723 64.3882L141.728 67.016C141.927 67.5362 142.25 68.0001 142.668 68.3678C143.086 68.7355 143.588 68.9959 144.129 69.1266L146.694 69.7455C147.44 69.9078 148.14 70.2346 148.744 70.7021C149.348 71.1696 149.84 71.766 150.184 72.4478C150.679 73.4642 150.815 74.6186 150.569 75.7222C150.322 76.8257 149.709 77.813 148.828 78.5224L146.64 80.2912C146.208 80.6407 145.867 81.0901 145.647 81.6006C145.427 82.111 145.334 82.6674 145.377 83.2217L145.578 85.8441C145.654 86.6035 145.56 87.3701 145.304 88.0888C145.047 88.8075 144.634 89.4602 144.095 89.9999C143.283 90.7902 142.226 91.2802 141.099 91.389C139.971 91.4978 138.84 91.2189 137.893 90.5983L135.53 89.0626C135.065 88.7597 134.532 88.5745 133.979 88.5231C133.425 88.4717 132.868 88.5555 132.354 88.7674L129.752 89.8405C128.87 90.2063 127.903 90.312 126.963 90.1454Z" fill="white"/>
<path d="M166.813 95.4333C166.133 95.3088 165.487 95.0449 164.914 94.6582C164.341 94.2716 163.854 93.7706 163.485 93.1867C163.115 92.6028 162.87 91.9487 162.766 91.2655C162.661 90.5824 162.699 89.885 162.877 89.2173L163.616 86.4673C163.758 85.9398 163.769 85.3858 163.649 84.853C163.529 84.3202 163.281 83.8245 162.927 83.4085L161.083 81.2421C160.478 80.5328 160.085 79.6687 159.946 78.7473C159.807 77.826 159.929 76.8843 160.298 76.0286C160.667 75.173 161.268 74.4376 162.033 73.9057C162.798 73.3737 163.696 73.0664 164.627 73.0185L167.47 72.8718C168.015 72.8438 168.545 72.6837 169.015 72.4053C169.484 72.1269 169.879 71.7385 170.165 71.2736L171.656 68.8462C172.144 68.0528 172.845 67.4117 173.678 66.9954C174.512 66.5792 175.445 66.4044 176.372 66.4907C177.3 66.577 178.185 66.9211 178.927 67.484C179.669 68.0469 180.239 68.8063 180.573 69.6762L181.59 72.3349C181.785 72.8453 182.101 73.3006 182.512 73.6615C182.922 74.0224 183.414 74.278 183.945 74.4063L186.712 75.0741C187.618 75.2928 188.444 75.7606 189.098 76.4245C189.751 77.0884 190.206 77.922 190.411 78.831C190.615 79.7399 190.562 80.688 190.255 81.568C189.949 82.4479 189.403 83.2247 188.678 83.8103L186.465 85.6C186.04 85.9428 185.705 86.3839 185.489 86.8852C185.273 87.3865 185.182 87.9329 185.224 88.4771L185.442 91.3174C185.514 92.2461 185.324 93.1763 184.895 94.0028C184.465 94.8294 183.813 95.5193 183.012 95.9946C182.211 96.4699 181.293 96.7117 180.362 96.6925C179.431 96.6734 178.523 96.3941 177.742 95.8863L175.356 94.3345C174.898 94.0358 174.375 93.8531 173.831 93.8022C173.287 93.7514 172.739 93.8339 172.234 94.0428L169.602 95.1284C168.72 95.4942 167.753 95.6 166.813 95.4333Z" fill="white"/>
<path d="M205.696 99.6889C205.016 99.5644 204.37 99.3005 203.797 98.9139C203.224 98.5272 202.738 98.0262 202.368 97.4423C201.998 96.8584 201.754 96.2043 201.649 95.5211C201.545 94.838 201.583 94.1406 201.761 93.4729L202.5 90.7229C202.641 90.1954 202.652 89.6414 202.532 89.1086C202.412 88.5758 202.165 88.0801 201.811 87.6641L199.966 85.4977C199.362 84.7884 198.968 83.9243 198.829 83.003C198.691 82.0816 198.813 81.1399 199.181 80.2843C199.55 79.4286 200.151 78.6932 200.916 78.1613C201.681 77.6293 202.579 77.3221 203.51 77.2742L206.353 77.1274C206.898 77.0994 207.429 76.9393 207.898 76.6609C208.367 76.3825 208.762 75.9941 209.048 75.5293L210.54 73.1018C211.028 72.3084 211.728 71.6673 212.561 71.2511C213.395 70.8348 214.328 70.66 215.256 70.7463C216.183 70.8326 217.068 71.1767 217.81 71.7397C218.553 72.3026 219.123 73.0619 219.456 73.9318L220.473 76.5905C220.668 77.1009 220.985 77.5562 221.395 77.9171C221.805 78.278 222.297 78.5336 222.828 78.6619L225.595 79.3297C226.501 79.5484 227.327 80.0162 227.981 80.6801C228.635 81.344 229.089 82.1776 229.294 83.0866C229.499 83.9956 229.445 84.9436 229.139 85.8236C228.833 86.7036 228.286 87.4803 227.562 88.066L225.348 89.8556C224.923 90.1984 224.588 90.6395 224.372 91.1408C224.156 91.6421 224.065 92.1885 224.107 92.7328L224.326 95.573C224.397 96.5017 224.208 97.4319 223.778 98.2585C223.349 99.085 222.697 99.7749 221.895 100.25C221.094 100.726 220.176 100.967 219.245 100.948C218.314 100.929 217.407 100.65 216.626 100.142L214.239 98.5901C213.782 98.2914 213.258 98.1087 212.714 98.0579C212.17 98.007 211.622 98.0896 211.118 98.2984L208.485 99.3841C207.604 99.7498 206.636 99.8556 205.696 99.6889Z" fill="white"/>
<path d="M244.579 103.945C243.899 103.82 243.253 103.556 242.68 103.17C242.107 102.783 241.62 102.282 241.251 101.698C240.881 101.114 240.636 100.46 240.532 99.777C240.427 99.0939 240.465 98.3965 240.644 97.7288L241.382 94.9788C241.524 94.4513 241.535 93.8973 241.415 93.3644C241.295 92.8316 241.047 92.3359 240.694 91.92L238.849 89.7535C238.245 89.0443 237.851 88.1801 237.712 87.2588C237.574 86.3375 237.696 85.3957 238.064 84.5401C238.433 83.6845 239.034 82.9491 239.799 82.4172C240.564 81.8852 241.462 81.5779 242.393 81.53L245.236 81.3833C245.781 81.3552 246.311 81.1952 246.781 80.9168C247.25 80.6384 247.645 80.25 247.931 79.7851L249.422 77.3577C249.911 76.5642 250.611 75.9232 251.444 75.5069C252.278 75.0907 253.211 74.9158 254.138 75.0022C255.066 75.0885 255.951 75.4326 256.693 75.9955C257.436 76.5584 258.005 77.3178 258.339 78.1877L259.356 80.8464C259.551 81.3568 259.868 81.8121 260.278 82.173C260.688 82.5339 261.18 82.7895 261.711 82.9178L264.478 83.5856C265.384 83.8043 266.21 84.2721 266.864 84.936C267.517 85.5999 267.972 86.4335 268.177 87.3425C268.382 88.2515 268.328 89.1995 268.021 90.0795C267.715 90.9595 267.169 91.7362 266.444 92.3219L264.231 94.1115C263.806 94.4543 263.471 94.8954 263.255 95.3967C263.039 95.898 262.948 96.4444 262.99 96.9886L263.209 99.8289C263.28 100.758 263.09 101.688 262.661 102.514C262.231 103.341 261.579 104.031 260.778 104.506C259.977 104.981 259.059 105.223 258.128 105.204C257.197 105.185 256.289 104.906 255.509 104.398L253.122 102.846C252.664 102.547 252.141 102.365 251.597 102.314C251.053 102.263 250.505 102.345 250 102.554L247.368 103.64C246.486 104.006 245.519 104.111 244.579 103.945Z" fill="white"/>
</svg>
