<svg width="549" height="554" viewBox="0 0 549 554" fill="none" xmlns="http://www.w3.org/2000/svg">
<path d="M548.84 211.42C548.84 212.994 548.821 214.565 548.784 216.133C548.768 217.158 548.736 218.184 548.697 219.209C548.689 219.503 548.681 219.789 548.665 220.083C548.641 220.648 548.617 221.204 548.593 221.752C548.418 225.416 548.148 229.054 547.783 232.665C547.767 232.84 547.751 233.015 547.735 233.182C547.695 233.539 547.663 233.897 547.616 234.255C547.504 235.328 547.385 236.401 547.25 237.458C547.163 238.173 547.075 238.881 546.98 239.596C546.932 239.938 546.884 240.279 546.845 240.613C546.789 240.987 546.741 241.352 546.686 241.718C546.662 241.877 546.638 242.036 546.614 242.203C546.535 242.743 546.455 243.292 546.368 243.832C546.265 244.54 546.153 245.239 546.034 245.946C545.923 246.646 545.804 247.345 545.676 248.045C545.557 248.744 545.43 249.444 545.303 250.143C545.176 250.85 545.04 251.55 544.905 252.249C544.222 255.715 543.459 259.151 542.616 262.558C542.283 263.885 541.941 265.21 541.591 266.532C541.011 268.678 540.399 270.813 539.755 272.938C539.572 273.526 539.389 274.114 539.207 274.695C539 275.362 538.785 276.03 538.571 276.69C538.356 277.357 538.142 278.017 537.919 278.677C537.696 279.336 537.474 279.996 537.243 280.656C537.021 281.308 536.79 281.967 536.552 282.619C536.321 283.279 536.083 283.93 535.845 284.582C535.598 285.234 535.36 285.886 535.113 286.529C534.621 287.833 534.115 289.123 533.595 290.4C533.341 291.044 533.079 291.688 532.808 292.324C531.751 294.883 530.644 297.413 529.486 299.914C529.232 300.47 528.977 301.027 528.715 301.575C528.54 301.941 528.373 302.298 528.198 302.664C527.904 303.268 527.618 303.864 527.324 304.46C527.03 305.064 526.728 305.676 526.418 306.288C525.806 307.497 525.184 308.702 524.55 309.905C523.922 311.105 523.279 312.305 522.619 313.489C521.959 314.674 521.292 315.858 520.616 317.026C520.274 317.615 519.932 318.203 519.591 318.783C518.216 321.112 516.796 323.414 515.33 325.69C513.876 327.955 512.374 330.194 510.824 332.406C510.053 333.511 509.266 334.616 508.471 335.704C508.153 336.142 507.835 336.571 507.518 337C507.128 337.54 506.723 338.073 506.317 338.605C489.092 361.517 467.384 380.683 442.516 394.938C417.648 409.193 390.138 418.238 361.663 421.523C333.188 424.808 304.342 422.264 276.881 414.046C249.42 405.828 223.918 392.108 201.929 373.72C199.608 371.781 197.329 369.794 195.093 367.759C180.744 354.693 168.253 339.722 157.968 323.266C156.688 321.207 155.432 319.125 154.224 317.026C135.678 284.925 125.941 248.494 126 211.42C126 94.6541 220.654 3.88073e-05 337.42 3.88073e-05C372.555 -0.0212558 407.14 8.72142 438.044 25.4364C468.948 42.1514 495.195 66.3108 514.409 95.7271C514.758 96.2596 515.108 96.8001 515.458 97.3406C534.561 127.07 545.859 161.137 548.307 196.39C548.665 201.35 548.842 206.359 548.84 211.42Z" fill="white"/>
<path d="M503.635 97.3405H210.787C210.577 97.3354 210.377 97.2482 210.229 97.0974C210.082 96.9467 210 96.7444 210 96.5338C210 96.3232 210.082 96.1209 210.229 95.9701C210.377 95.8194 210.577 95.7322 210.787 95.7271H502.586C502.936 96.2596 503.286 96.8 503.635 97.3405Z" fill="#CACACA"/>
<path d="M228.554 86.0457C233.35 86.0457 237.238 82.0713 237.238 77.1686C237.238 72.2659 233.35 68.2915 228.554 68.2915C223.758 68.2915 219.871 72.2659 219.871 77.1686C219.871 82.0713 223.758 86.0457 228.554 86.0457Z" fill="#3F3D56"/>
<path d="M258.552 86.0457C263.348 86.0457 267.236 82.0713 267.236 77.1686C267.236 72.2659 263.348 68.2915 258.552 68.2915C253.756 68.2915 249.869 72.2659 249.869 77.1686C249.869 82.0713 253.756 86.0457 258.552 86.0457Z" fill="#3F3D56"/>
<path d="M288.55 86.0457C293.346 86.0457 297.234 82.0713 297.234 77.1686C297.234 72.2659 293.346 68.2915 288.55 68.2915C283.754 68.2915 279.867 72.2659 279.867 77.1686C279.867 82.0713 283.754 86.0457 288.55 86.0457Z" fill="#3F3D56"/>
<path d="M101.032 544.545H109.434L113.431 512.136L101.031 512.137L101.032 544.545Z" fill="#FFB8B8"/>
<path d="M122.891 544.891C121.916 543.906 120.754 543.125 119.473 542.594C118.192 542.069 116.82 541.799 115.436 541.799L110.484 538.047L110.222 538.151L101.256 541.799H98.8877V552.688H125.983V552.346C125.987 550.96 125.716 549.588 125.185 548.308C124.654 547.028 123.874 545.867 122.891 544.891Z" fill="#2F2E41"/>
<path d="M140.068 544.545H148.47L152.467 512.136L140.066 512.137L140.068 544.545Z" fill="#FFB8B8"/>
<path d="M161.932 544.891C160.955 543.904 159.79 543.123 158.507 542.594C157.225 542.068 155.854 541.798 154.469 541.799L149.525 538.047L149.255 538.159L140.289 541.799H137.921L137.929 552.688H165.016V552.346C165.02 550.961 164.749 549.589 164.22 548.31C163.691 547.03 162.913 545.868 161.932 544.891Z" fill="#2F2E41"/>
<path d="M146.784 367.188L80.7681 368.91L81.9162 401.057C81.9162 401.057 80.768 409.668 83.0643 411.964C85.3605 414.26 86.5086 414.26 85.3605 418.279C84.2124 422.297 90.2783 428.86 89.5416 429.597C88.8048 430.334 87.0826 434.352 87.0826 434.352L92.8232 467.073C92.8232 467.073 96.8415 523.904 97.9896 525.052C99.1377 526.2 100.286 525.052 99.1377 527.922C97.9896 530.793 96.8415 529.645 97.9896 530.793C99.0066 531.889 99.9647 533.039 100.86 534.237H114.739C114.739 534.237 115.785 528.496 115.785 527.922C115.785 527.348 116.933 523.904 116.933 523.33C116.933 522.756 115.919 521.741 115.919 521.741C115.568 520.574 115.331 519.376 115.211 518.163C115.211 517.015 111.767 472.813 111.767 472.813L118.655 415.408L135.303 471.665C135.303 471.665 135.303 521.034 136.451 522.182C137.599 523.33 137.599 522.756 137.025 525.052C136.451 527.348 134.155 526.774 135.877 528.496C137.599 530.219 138.173 527.348 137.599 530.219L137.025 533.089L154.247 533.335C154.247 533.335 156.543 528.496 155.395 526.774C154.247 525.052 154.316 525.522 155.716 522.704C157.117 519.886 157.691 519.312 157.117 518.738C156.543 518.163 156.543 515.11 156.543 515.11L153.673 460.184C153.673 460.184 153.099 402.205 153.099 400.483C153.055 399.597 153.219 398.713 153.575 397.9V395.563L151.376 387.28L146.784 367.188Z" fill="#2F2E41"/>
<path d="M221.494 241.986C221.176 242.868 220.67 243.669 220.009 244.334C219.349 244.999 218.55 245.511 217.671 245.833C216.791 246.156 215.851 246.283 214.917 246.203C213.984 246.123 213.079 245.84 212.266 245.373L183.61 269.38L182.053 257.645L210.081 236.189C210.956 234.877 212.283 233.931 213.809 233.531C215.335 233.13 216.955 233.304 218.362 234.018C219.768 234.733 220.864 235.939 221.442 237.407C222.019 238.875 222.037 240.505 221.494 241.986H221.494Z" fill="#EDD0D4"/>
<path d="M95.1359 251.894C104.964 251.894 112.932 243.927 112.932 234.098C112.932 224.27 104.964 216.303 95.1359 216.303C85.3077 216.303 77.3403 224.27 77.3403 234.098C77.3403 243.927 85.3077 251.894 95.1359 251.894Z" fill="#EDD0D4"/>
<path d="M109.563 216.388C107.906 212.439 100.806 210.095 89.5709 210.448C78.3358 210.801 76.3684 224.199 76.3684 224.199C70.1801 229.967 80.1709 247.975 81.9042 245.492C83.6375 243.009 86.5477 245.356 86.5477 245.356L83.7743 229.757C86.7031 230.884 89.8529 231.64 92.6076 230.327L88.0434 227.887L99.3919 229.299L94.7117 225.698C94.8252 225.661 94.9386 225.622 95.0521 225.584C96.929 226.393 98.939 226.849 100.981 226.93C103.367 226.912 105.903 225.794 106.903 223.628C107.169 223.033 107.313 222.391 107.326 221.739C110.616 222.807 112.344 226.661 112.344 226.661C111.719 223.162 110.789 219.725 109.563 216.388Z" fill="#2F2E41"/>
<path d="M109.381 252.69C105.407 252.69 102.847 253.239 96.6638 254.28C85.2503 256.203 92.0857 267.048 92.0857 267.048C92.0857 267.048 92.6023 266.786 91.2035 267.048C89.8046 267.31 85.0357 271.435 85.0357 271.435L76.5074 279.01C63.6553 289.096 66.5325 304.833 66.5325 304.833L85.2742 323.694L77.0638 361.535C77.0638 361.535 80.553 367.155 78.7487 369.674C76.9445 372.194 94.6449 371.47 94.6449 371.47C106.861 376.915 149.9 372.313 149.9 372.313C149.304 370.755 143.542 358.682 143.542 358.682C146.045 354.358 143.661 348.111 143.661 348.111C143.661 348.111 141.173 318.56 139.584 314.474C137.994 310.389 143.653 288.254 147.373 288.492C151.092 288.731 175.12 276.475 175.12 276.475C175.12 276.475 174.515 275.513 182.448 272.27C187.004 270.48 191.181 267.845 194.759 264.505L198.018 257.995C196.452 258.599 191.167 248.632 191.167 248.632L188.862 249.511L187.527 249.125C187.527 249.125 177.107 252.09 174.976 254.252C172.846 256.414 172.131 255.809 170.208 256.294C168.284 256.779 168.046 258.13 167.442 257.979C166.838 257.828 165.765 259.656 164.922 259.418C164.08 259.179 162.275 260.141 161.075 260.38C159.875 260.618 151.347 264.227 151.347 264.227C146.069 261.556 131.763 262.637 131.763 262.637C131.763 262.637 127.081 259.879 125.754 262.637C125.397 263.42 124.823 264.086 124.101 264.555C123.379 265.024 122.538 265.276 121.676 265.284L115.97 262.844C115.638 264.054 109.413 251.435 109.381 252.69Z" fill="#FFC83D"/>
<path d="M45.5673 509.466L44.7742 491.635C36.5074 487.216 27.2868 484.882 17.9131 484.835C30.814 495.383 29.2018 515.715 37.9483 529.899C40.7102 534.302 44.4275 538.027 48.8247 540.798C53.2218 543.569 58.1862 545.315 63.3499 545.906L74.1459 552.516C75.6273 544.258 75.3006 535.776 73.1885 527.656C71.0764 519.536 67.229 511.97 61.9115 505.48C58.8922 501.869 55.4302 498.652 51.6072 495.906C49.0216 502.724 45.5673 509.466 45.5673 509.466Z" fill="#31BD64"/>
<path d="M4.18442e-06 552.973C-0.000366258 553.097 0.023863 553.22 0.0712675 553.335C0.118672 553.45 0.18832 553.554 0.276228 553.642C0.364136 553.73 0.468549 553.8 0.583475 553.847C0.698402 553.895 0.821564 553.919 0.94588 553.918H226.108C226.359 553.918 226.599 553.819 226.777 553.641C226.954 553.464 227.054 553.224 227.054 552.973C227.054 552.722 226.954 552.481 226.777 552.304C226.599 552.126 226.359 552.027 226.108 552.027H0.94588C0.821565 552.026 0.6984 552.051 0.583475 552.098C0.468551 552.145 0.364135 552.215 0.276228 552.303C0.188321 552.391 0.118673 552.495 0.0712675 552.61C0.0238615 552.725 -0.000362038 552.848 4.18442e-06 552.973Z" fill="#31BD64"/>
<path d="M515.458 196.39C507.82 199.863 500.977 205.474 495 213.192C488.093 222.118 480.693 228.405 473.135 232.665C472.777 232.864 472.427 233.054 472.07 233.245C465.294 236.897 457.863 239.174 450.204 239.945C447.891 240.178 445.567 240.29 443.242 240.279C442.272 240.271 441.303 240.247 440.341 240.2C438.06 240.088 435.802 239.866 433.585 239.548C420.852 237.736 409.335 232.84 400.807 228.238C389.122 221.793 376.438 217.355 363.284 215.108C360.931 214.718 358.584 214.413 356.242 214.193C355.272 214.098 354.31 214.027 353.349 213.963C350.988 213.804 348.63 213.73 346.275 213.74C345.067 213.748 343.867 213.772 342.658 213.82C322.359 214.615 295.884 220.401 272.143 240.613C271.825 240.883 271.515 241.153 271.197 241.424C270.903 241.678 270.609 241.94 270.315 242.203C266.557 245.543 263.016 249.119 259.712 252.909C255.925 257.249 252.42 261.829 249.22 266.619C245.421 272.227 240.983 277.375 235.995 281.959C228.618 288.767 222.71 297.011 218.634 306.185C214.558 315.359 212.401 325.269 212.294 335.307V335.704C212.286 336.133 212.286 336.571 212.286 337H474.677C474.995 336.571 475.312 336.141 475.622 335.704C476.417 334.615 477.204 333.511 477.975 332.406C479.525 330.196 481.027 327.957 482.482 325.69C483.952 323.416 485.372 321.114 486.742 318.783C487.084 318.202 487.425 317.614 487.767 317.026C488.443 315.858 489.11 314.674 489.77 313.489C490.43 312.305 491.074 311.105 491.701 309.905C492.337 308.704 492.96 307.499 493.569 306.288C493.879 305.676 494.181 305.064 494.475 304.46C494.769 303.864 495.056 303.268 495.35 302.664C495.525 302.298 495.691 301.941 495.866 301.575C496.129 301.027 496.383 300.47 496.637 299.914C497.798 297.41 498.905 294.88 499.96 292.323C500.23 291.688 500.492 291.044 500.746 290.4C501.263 289.12 501.769 287.83 502.264 286.529C502.511 285.885 502.749 285.234 502.996 284.582C503.234 283.93 503.473 283.278 503.703 282.619C503.942 281.967 504.172 281.307 504.395 280.656C504.625 279.996 504.848 279.336 505.07 278.676C505.293 278.017 505.507 277.357 505.722 276.689C505.937 276.03 506.151 275.362 506.358 274.694C506.541 274.114 506.723 273.526 506.906 272.938C507.55 270.816 508.162 268.68 508.742 266.532C509.092 265.212 509.434 263.888 509.767 262.558C510.61 259.156 511.373 255.72 512.057 252.249C512.192 251.55 512.327 250.85 512.454 250.143C512.581 249.443 512.708 248.744 512.828 248.044C512.955 247.345 513.074 246.646 513.185 245.946C513.304 245.239 513.416 244.539 513.519 243.832C513.606 243.292 513.686 242.743 513.765 242.203C513.789 242.036 513.813 241.877 513.837 241.718C513.893 241.344 513.94 240.979 513.988 240.613C514.036 240.271 514.083 239.93 514.131 239.596C514.226 238.88 514.314 238.173 514.401 237.458C514.536 236.401 514.656 235.327 514.767 234.255H514.775C514.807 233.897 514.846 233.539 514.886 233.182C514.902 233.015 514.918 232.84 514.934 232.665C515.299 229.056 515.57 225.419 515.744 221.752C515.768 221.204 515.792 220.647 515.816 220.083C515.832 219.789 515.84 219.503 515.848 219.209C515.888 218.183 515.919 217.158 515.935 216.133C515.975 214.567 515.994 212.996 515.991 211.42C515.991 206.365 515.813 201.355 515.458 196.39Z" fill="#6B53FD"/>
<path d="M269.43 249.694H266.53V334.69H269.43V249.694Z" fill="white"/>
<path d="M356.246 209.998H353.346V334.69H356.246V209.998Z" fill="white"/>
<path d="M443.241 236.096H440.341V334.69H443.241V236.096Z" fill="white"/>
<path d="M354.975 220.868C359.874 220.868 363.846 216.896 363.846 211.997C363.846 207.097 359.874 203.125 354.975 203.125C350.075 203.125 346.104 207.097 346.104 211.997C346.104 216.896 350.075 220.868 354.975 220.868Z" fill="#FA7228"/>
<path d="M441.97 245.516C446.869 245.516 450.841 241.544 450.841 236.645C450.841 231.746 446.869 227.774 441.97 227.774C437.07 227.774 433.099 231.746 433.099 236.645C433.099 241.544 437.07 245.516 441.97 245.516Z" fill="#FA7228"/>
<path d="M266.39 251.412C271.289 251.412 275.261 247.44 275.261 242.541C275.261 237.642 271.289 233.67 266.39 233.67C261.491 233.67 257.519 237.642 257.519 242.541C257.519 247.44 261.491 251.412 266.39 251.412Z" fill="#FA7228"/>
<path d="M475.623 335.705C475.305 336.142 474.987 336.571 474.669 337C474.28 337.541 473.874 338.073 473.469 338.606H212V335.705H475.623Z" fill="#3F3D56"/>
<path d="M281.919 240.613V242.203H291.552V240.613H281.919ZM301.185 240.613V242.203H310.81V240.613H301.185ZM320.443 240.613V242.203H330.077V240.613H320.443ZM339.702 240.613V242.203H349.335V240.613H339.702ZM358.968 240.613V242.203H368.593V240.613H358.968ZM378.226 240.613V242.203H387.859V240.613H378.226ZM397.484 240.613V242.203H407.118V240.613H397.484ZM416.751 240.613V242.203H426.376V240.613H416.751ZM436.009 240.613V242.203H445.642V240.613H436.009ZM455.267 240.613V242.203H464.9V240.613H455.267ZM474.526 240.613V242.203H484.159V240.613H474.526ZM493.792 240.613V242.203H503.417V240.613H493.792ZM513.05 240.613V242.203H513.765C513.789 242.036 513.813 241.877 513.837 241.718C513.892 241.352 513.94 240.987 513.996 240.613H513.05Z" fill="#3F3D56"/>
<path d="M354.952 208.82H350.184V210.41H354.952V208.82Z" fill="#3F3D56"/>
<path d="M364.58 208.821V210.41H374.213V208.821H364.58ZM383.846 208.821V210.41H393.471V208.821H383.846ZM403.104 208.821V210.41H412.737V208.821H403.104ZM422.362 208.821V210.41H431.995V208.821H422.362ZM441.629 208.821V210.41H451.254V208.821H441.629ZM460.887 208.821V210.41H470.52V208.821H460.887ZM480.145 208.821V210.41H489.778V208.821H480.145ZM499.411 208.821V210.41H509.036V208.821H499.411Z" fill="#3F3D56"/>
<path d="M443.177 232.665H438.408V234.254H443.177V232.665Z" fill="#3F3D56"/>
<path d="M452.804 232.665V234.255H462.437V232.665H452.804ZM472.07 232.665V234.255H481.695V232.665H472.07ZM491.328 232.665V234.255H500.961V232.665H491.328ZM510.586 232.665V234.255H514.775C514.807 233.897 514.847 233.539 514.886 233.182C514.902 233.015 514.918 232.84 514.934 232.665H510.586Z" fill="#3F3D56"/>
<path d="M121.691 398.446V347.252C121.692 346.216 122.104 345.223 122.837 344.49C123.57 343.758 124.563 343.345 125.599 343.344H164.261C165.298 343.345 166.291 343.758 167.024 344.49C167.756 345.223 168.168 346.216 168.17 347.252V398.446C168.168 399.482 167.756 400.475 167.024 401.208C166.291 401.941 165.298 402.353 164.261 402.354H125.599C124.563 402.353 123.57 401.941 122.837 401.208C122.104 400.475 121.692 399.482 121.691 398.446Z" fill="#E6E6E6"/>
<path d="M124.656 382.983V350.072C124.657 349.101 125.043 348.171 125.729 347.485C126.416 346.799 127.346 346.413 128.316 346.412H161.543C162.514 346.413 163.444 346.799 164.13 347.485C164.817 348.171 165.203 349.101 165.204 350.072V395.627C165.203 396.597 164.817 397.528 164.13 398.214C163.444 398.9 162.514 399.286 161.543 399.287H140.96C136.637 399.282 132.493 397.563 129.437 394.506C126.38 391.45 124.661 387.306 124.656 382.983Z" fill="white"/>
<path d="M130.036 359.254C130.037 358.306 130.414 357.397 131.085 356.726C131.755 356.056 132.665 355.679 133.613 355.678H156.662C157.611 355.678 158.521 356.055 159.191 356.725C159.862 357.396 160.239 358.306 160.239 359.254C160.239 360.203 159.862 361.113 159.191 361.783C158.521 362.454 157.611 362.831 156.662 362.831H133.613C132.665 362.83 131.755 362.453 131.085 361.782C130.414 361.112 130.037 360.203 130.036 359.254Z" fill="#E6E6E6"/>
<path d="M130.036 370.382C130.037 369.434 130.414 368.524 131.085 367.854C131.755 367.183 132.665 366.806 133.613 366.805H156.662C157.611 366.805 158.521 367.182 159.191 367.853C159.862 368.523 160.239 369.433 160.239 370.382C160.239 371.33 159.862 372.24 159.191 372.911C158.521 373.582 157.611 373.958 156.662 373.958H133.613C132.665 373.957 131.755 373.58 131.085 372.91C130.414 372.239 130.037 371.33 130.036 370.382Z" fill="#E6E6E6"/>
<path d="M130.036 381.509C130.037 380.561 130.414 379.652 131.085 378.981C131.755 378.311 132.665 377.934 133.613 377.933H156.662C157.611 377.933 158.521 378.309 159.191 378.98C159.862 379.651 160.239 380.561 160.239 381.509C160.239 382.458 159.862 383.368 159.191 384.038C158.521 384.709 157.611 385.086 156.662 385.086H133.613C132.665 385.085 131.755 384.708 131.085 384.037C130.414 383.367 130.037 382.458 130.036 381.509Z" fill="#E6E6E6"/>
<path d="M122.604 380.563C121.734 380.579 120.872 380.404 120.078 380.051C119.283 379.698 118.576 379.175 118.005 378.518C117.435 377.862 117.015 377.089 116.776 376.253C116.537 375.417 116.483 374.539 116.62 373.68L83.6118 355.607L93.2726 350.382L123.861 368.753C125.289 369.079 126.547 369.916 127.398 371.108C128.249 372.299 128.633 373.761 128.478 375.217C128.323 376.672 127.639 378.02 126.557 379.006C125.474 379.991 124.068 380.545 122.604 380.563Z" fill="#EDD0D4"/>
<path d="M103.41 367.202L91.7048 365.123L87.5137 361.639L84.6949 360.203L74.9801 353.384L74.9512 353.298L59.5149 307.669C58.8061 303.921 59.5565 300.045 61.6125 296.833C63.6685 293.621 66.8746 291.317 70.5743 290.392C72.6201 289.883 74.7506 289.813 76.8254 290.187C78.9001 290.56 80.8723 291.369 82.6119 292.56C84.3515 293.751 85.8191 295.297 86.9183 297.096C88.0174 298.895 88.7231 300.906 88.9888 302.998L93.9566 342.104L102.191 350.609L105.794 351.306L106.624 355.186L109.768 360.049L103.41 367.202Z" fill="#FFC83D"/>
</svg>
