<svg width="695" height="554" viewBox="0 0 695 554" fill="none" xmlns="http://www.w3.org/2000/svg">
<path d="M531.689 131.199H528.655V48.0982C528.655 35.3418 523.588 23.1078 514.568 14.0876C505.548 5.06748 493.314 8.42096e-06 480.557 0H304.492C298.175 0 291.921 1.24409 286.085 3.66126C280.25 6.07842 274.948 9.62131 270.481 14.0876C266.015 18.554 262.472 23.8563 260.055 29.6918C257.638 35.5274 256.394 41.7819 256.394 48.0982V504.002C256.394 516.758 261.461 528.992 270.481 538.012C279.501 547.032 291.735 552.1 304.492 552.1H480.557C493.313 552.1 505.547 547.032 514.567 538.012C523.587 528.992 528.655 516.758 528.655 504.002V190.351H531.688L531.689 131.199Z" fill="#E6E6E6"/>
<path d="M482.498 12.5084H459.518C460.575 15.0997 460.978 17.9111 460.692 20.6951C460.407 23.479 459.441 26.15 457.88 28.4727C456.318 30.7954 454.21 32.6985 451.74 34.0143C449.27 35.3301 446.514 36.0183 443.716 36.0182H342.85C340.052 36.018 337.296 35.3297 334.826 34.0138C332.357 32.6978 330.248 30.7947 328.687 28.4721C327.126 26.1494 326.161 23.4786 325.875 20.6947C325.589 17.9109 325.993 15.0996 327.05 12.5084H305.585C296.058 12.5084 286.922 16.2927 280.186 23.0289C273.45 29.765 269.665 38.9012 269.665 48.4276V503.669C269.665 513.195 273.45 522.332 280.186 529.068C286.922 535.804 296.058 539.588 305.585 539.588H482.498C492.024 539.588 501.161 535.804 507.897 529.068C514.633 522.332 518.417 513.195 518.417 503.669V48.4269C518.417 38.9006 514.633 29.7646 507.897 23.0286C501.16 16.2926 492.024 12.5084 482.498 12.5084Z" fill="white"/>
<path d="M340.528 118.694C339.569 118.703 338.619 118.509 337.74 118.127C336.861 117.744 336.073 117.181 335.426 116.473C334.658 115.585 334.083 114.548 333.735 113.426C333.388 112.305 333.276 111.124 333.407 109.958C333.59 107.736 334.521 105.642 336.048 104.018C336.782 103.224 337.67 102.59 338.658 102.152C339.645 101.714 340.712 101.483 341.792 101.473C342.797 101.468 343.791 101.675 344.71 102.08C345.63 102.486 346.453 103.08 347.127 103.824C347.893 104.689 348.47 105.702 348.824 106.801C349.178 107.9 349.3 109.061 349.182 110.209C349.04 112.567 348.023 114.786 346.331 116.433C344.756 117.9 342.68 118.708 340.528 118.694ZM341.792 104.343C338.983 104.343 336.556 106.92 336.266 110.209C336.17 110.979 336.234 111.761 336.454 112.505C336.674 113.249 337.044 113.94 337.543 114.535C337.92 114.949 338.381 115.279 338.896 115.502C339.411 115.724 339.967 115.834 340.528 115.824C343.155 115.824 345.966 114.01 346.323 109.957C346.406 109.205 346.332 108.444 346.106 107.722C345.88 107.001 345.507 106.333 345.011 105.762C344.604 105.313 344.107 104.955 343.553 104.71C342.998 104.465 342.398 104.34 341.792 104.343Z" fill="#6B53FD"/>
<path d="M340.621 127.305C338.401 127.341 336.198 126.905 334.16 126.025C332.121 125.145 330.293 123.842 328.796 122.201C327.3 120.561 326.169 118.621 325.48 116.51C324.79 114.399 324.557 112.166 324.796 109.959C325.267 105.325 327.421 101.025 330.85 97.8736C334.28 94.7224 338.747 92.9392 343.404 92.8621C348.571 92.8621 352.822 94.5222 355.698 97.6629C358.425 100.641 359.702 104.834 359.294 109.468C358.907 113.858 357.045 116.145 355.55 117.29C354.89 117.828 354.128 118.226 353.31 118.461C352.491 118.695 351.634 118.761 350.789 118.655C348.426 118.236 345.814 116.09 346.225 111.42L346.985 102.787C347.021 102.409 347.204 102.06 347.495 101.817C347.787 101.574 348.162 101.457 348.54 101.49C348.918 101.523 349.268 101.705 349.512 101.995C349.756 102.285 349.876 102.66 349.845 103.038L349.084 111.672C348.88 113.993 349.704 115.547 351.29 115.828C352.203 115.899 353.107 115.606 353.805 115.011C354.842 114.217 356.14 112.566 356.435 109.216C356.777 105.338 355.79 102.013 353.581 99.6014C351.263 97.0703 347.744 95.7323 343.404 95.7323C339.464 95.807 335.688 97.3203 332.787 99.987C329.886 102.654 328.061 106.289 327.656 110.209C327.451 112.02 327.636 113.854 328.198 115.587C328.759 117.321 329.685 118.915 330.913 120.262C332.14 121.609 333.641 122.678 335.316 123.398C336.99 124.118 338.799 124.471 340.621 124.435C342.869 124.557 345.114 124.15 347.176 123.246C347.527 123.101 347.921 123.1 348.272 123.244C348.623 123.389 348.903 123.666 349.05 124.016C349.197 124.366 349.199 124.76 349.057 125.112C348.914 125.463 348.638 125.744 348.288 125.893C345.874 126.944 343.251 127.427 340.621 127.305Z" fill="#6B53FD"/>
<path d="M325.468 332.44C325.185 332.44 324.907 332.356 324.671 332.198C324.435 332.041 324.251 331.816 324.143 331.554C324.034 331.292 324.006 331.003 324.061 330.725C324.116 330.447 324.253 330.191 324.454 329.99L333.782 320.662C334.052 320.396 334.416 320.248 334.795 320.249C335.174 320.25 335.536 320.401 335.804 320.669C336.072 320.937 336.223 321.3 336.225 321.679C336.226 322.058 336.078 322.422 335.812 322.691L326.483 332.02C326.35 332.153 326.192 332.259 326.018 332.331C325.844 332.403 325.657 332.44 325.468 332.44ZM349.148 328.852C348.864 328.852 348.587 328.768 348.351 328.61C348.115 328.453 347.931 328.229 347.822 327.966C347.714 327.704 347.685 327.416 347.741 327.137C347.796 326.859 347.933 326.603 348.133 326.402L356.027 318.509C356.297 318.243 356.66 318.095 357.039 318.096C357.418 318.098 357.781 318.249 358.049 318.517C358.317 318.784 358.468 319.147 358.469 319.526C358.471 319.905 358.322 320.269 358.056 320.539L350.163 328.432C350.03 328.565 349.872 328.671 349.698 328.743C349.523 328.816 349.337 328.853 349.148 328.852ZM344.843 328.852C344.654 328.853 344.468 328.816 344.293 328.743C344.119 328.671 343.961 328.565 343.828 328.432L338.088 322.691C337.953 322.559 337.846 322.4 337.772 322.226C337.699 322.051 337.661 321.864 337.66 321.675C337.659 321.485 337.696 321.298 337.768 321.123C337.84 320.948 337.947 320.789 338.08 320.655C338.214 320.521 338.373 320.415 338.548 320.343C338.723 320.271 338.911 320.234 339.1 320.234C339.29 320.235 339.477 320.273 339.651 320.347C339.826 320.42 339.984 320.527 340.117 320.662L345.858 326.402C346.058 326.603 346.195 326.859 346.25 327.137C346.306 327.416 346.277 327.704 346.169 327.966C346.06 328.229 345.876 328.453 345.64 328.61C345.404 328.768 345.127 328.852 344.843 328.852Z" fill="#6B53FD"/>
<path d="M359.194 320.959C358.484 320.959 357.791 320.749 357.201 320.354C356.611 319.96 356.151 319.4 355.879 318.744C355.608 318.089 355.537 317.367 355.675 316.671C355.814 315.975 356.155 315.336 356.657 314.834C357.159 314.332 357.798 313.991 358.494 313.852C359.19 313.714 359.911 313.785 360.567 314.056C361.223 314.328 361.783 314.788 362.177 315.378C362.571 315.968 362.782 316.662 362.782 317.371C362.781 318.322 362.402 319.234 361.73 319.907C361.057 320.58 360.145 320.958 359.194 320.959ZM359.194 316.654C359.052 316.654 358.913 316.696 358.795 316.775C358.677 316.853 358.585 316.965 358.531 317.097C358.477 317.228 358.463 317.372 358.49 317.511C358.518 317.65 358.586 317.778 358.687 317.879C358.787 317.979 358.915 318.047 359.054 318.075C359.193 318.103 359.338 318.088 359.469 318.034C359.6 317.98 359.712 317.888 359.791 317.77C359.87 317.652 359.912 317.513 359.912 317.371C359.911 317.181 359.836 316.999 359.701 316.864C359.567 316.729 359.384 316.654 359.194 316.654Z" fill="#6B53FD"/>
<path d="M346.995 333.158C346.286 333.158 345.592 332.948 345.002 332.553C344.412 332.159 343.952 331.599 343.681 330.943C343.409 330.288 343.338 329.566 343.476 328.87C343.615 328.174 343.957 327.535 344.458 327.033C344.96 326.532 345.599 326.19 346.295 326.051C346.991 325.913 347.713 325.984 348.368 326.256C349.024 326.527 349.584 326.987 349.979 327.577C350.373 328.167 350.583 328.861 350.583 329.57C350.582 330.522 350.204 331.433 349.531 332.106C348.859 332.779 347.947 333.157 346.995 333.158ZM346.995 328.853C346.853 328.853 346.715 328.895 346.597 328.974C346.479 329.052 346.387 329.165 346.332 329.296C346.278 329.427 346.264 329.571 346.292 329.71C346.319 329.849 346.388 329.977 346.488 330.078C346.588 330.178 346.716 330.246 346.855 330.274C346.995 330.302 347.139 330.288 347.27 330.233C347.401 330.179 347.513 330.087 347.592 329.969C347.671 329.851 347.713 329.712 347.713 329.57C347.713 329.38 347.637 329.198 347.502 329.063C347.368 328.929 347.186 328.853 346.995 328.853Z" fill="#6B53FD"/>
<path d="M336.949 323.111C336.24 323.111 335.546 322.901 334.956 322.507C334.366 322.112 333.906 321.552 333.634 320.897C333.363 320.241 333.292 319.52 333.43 318.824C333.569 318.128 333.91 317.488 334.412 316.987C334.914 316.485 335.553 316.143 336.249 316.005C336.945 315.866 337.667 315.937 338.322 316.209C338.978 316.48 339.538 316.94 339.932 317.53C340.327 318.12 340.537 318.814 340.537 319.524C340.536 320.475 340.158 321.387 339.485 322.059C338.812 322.732 337.9 323.11 336.949 323.111ZM336.949 318.806C336.807 318.806 336.669 318.848 336.551 318.927C336.433 319.006 336.341 319.118 336.286 319.249C336.232 319.38 336.218 319.524 336.245 319.663C336.273 319.803 336.341 319.931 336.442 320.031C336.542 320.131 336.67 320.2 336.809 320.227C336.948 320.255 337.093 320.241 337.224 320.186C337.355 320.132 337.467 320.04 337.546 319.922C337.625 319.804 337.667 319.665 337.667 319.524C337.667 319.333 337.591 319.151 337.456 319.016C337.322 318.882 337.139 318.806 336.949 318.806Z" fill="#6B53FD"/>
<path d="M323.315 336.746C322.606 336.746 321.912 336.535 321.322 336.141C320.732 335.747 320.272 335.186 320.001 334.531C319.729 333.875 319.658 333.154 319.796 332.458C319.935 331.762 320.277 331.123 320.778 330.621C321.28 330.119 321.919 329.777 322.615 329.639C323.311 329.501 324.033 329.572 324.688 329.843C325.344 330.115 325.904 330.575 326.299 331.165C326.693 331.755 326.903 332.448 326.903 333.158C326.902 334.109 326.524 335.021 325.851 335.694C325.179 336.366 324.267 336.745 323.315 336.746ZM323.315 332.44C323.173 332.44 323.035 332.482 322.917 332.561C322.799 332.64 322.707 332.752 322.652 332.883C322.598 333.014 322.584 333.159 322.612 333.298C322.639 333.437 322.708 333.565 322.808 333.665C322.908 333.766 323.036 333.834 323.175 333.862C323.315 333.889 323.459 333.875 323.59 333.821C323.721 333.766 323.833 333.675 323.912 333.557C323.991 333.438 324.033 333.3 324.033 333.158C324.033 332.968 323.957 332.785 323.823 332.651C323.688 332.516 323.506 332.44 323.315 332.44Z" fill="#6B53FD"/>
<path d="M459.515 447.418H429.377C428.045 447.417 426.769 446.887 425.827 445.945C424.885 445.004 424.356 443.727 424.354 442.395V420.868C424.356 419.536 424.885 418.26 425.827 417.318C426.769 416.376 428.045 415.847 429.377 415.845H459.515C460.847 415.847 462.124 416.376 463.065 417.318C464.007 418.26 464.537 419.536 464.538 420.868V442.395C464.537 443.727 464.007 445.004 463.065 445.945C462.124 446.887 460.847 447.417 459.515 447.418ZM429.377 418.715C428.806 418.716 428.259 418.943 427.856 419.347C427.452 419.75 427.225 420.297 427.224 420.868V442.395C427.225 442.966 427.452 443.513 427.856 443.917C428.259 444.32 428.806 444.547 429.377 444.548H459.515C460.086 444.547 460.633 444.32 461.037 443.917C461.44 443.513 461.667 442.966 461.668 442.395V420.868C461.667 420.297 461.44 419.75 461.037 419.347C460.633 418.943 460.086 418.716 459.515 418.715L429.377 418.715Z" fill="#6B53FD"/>
<path d="M444.446 434.502C444.127 434.502 443.817 434.396 443.565 434.199L430.649 424.154C430.5 424.038 430.375 423.894 430.282 423.73C430.189 423.566 430.129 423.386 430.106 423.199C430.082 423.012 430.096 422.822 430.146 422.64C430.196 422.458 430.281 422.288 430.397 422.14C430.513 421.991 430.657 421.866 430.82 421.773C430.984 421.68 431.165 421.62 431.352 421.597C431.539 421.573 431.729 421.587 431.91 421.637C432.092 421.687 432.262 421.772 432.411 421.888L444.446 431.249L456.481 421.888C456.63 421.772 456.8 421.687 456.982 421.637C457.164 421.587 457.353 421.573 457.54 421.597C457.727 421.62 457.908 421.68 458.072 421.773C458.236 421.866 458.379 421.991 458.495 422.14C458.611 422.288 458.696 422.458 458.746 422.64C458.796 422.822 458.81 423.012 458.786 423.199C458.763 423.386 458.703 423.566 458.61 423.73C458.517 423.894 458.392 424.038 458.243 424.154L445.327 434.199C445.075 434.396 444.765 434.502 444.446 434.502Z" fill="#6B53FD"/>
<path d="M606.318 467.286L440.306 467.352C440.095 467.352 439.893 467.268 439.744 467.119C439.595 466.97 439.512 466.768 439.512 466.558C439.512 466.347 439.595 466.145 439.744 465.997C439.893 465.848 440.095 465.764 440.306 465.764L606.318 465.698C606.529 465.698 606.73 465.782 606.879 465.931C607.028 466.08 607.112 466.282 607.112 466.492C607.112 466.703 607.028 466.904 606.879 467.053C606.73 467.202 606.529 467.286 606.318 467.286Z" fill="#CCCCCC"/>
<path d="M604.109 477.605C610.246 477.605 615.222 472.629 615.222 466.492C615.222 460.354 610.246 455.379 604.109 455.379C597.971 455.379 592.996 460.354 592.996 466.492C592.996 472.629 597.971 477.605 604.109 477.605Z" fill="#FA7228"/>
<path d="M602.349 254.552L434.749 254.618C434.539 254.618 434.337 254.534 434.188 254.385C434.039 254.236 433.956 254.035 433.956 253.824C433.956 253.614 434.039 253.412 434.188 253.263C434.337 253.114 434.539 253.03 434.749 253.03L602.349 252.964C602.56 252.964 602.762 253.048 602.911 253.197C603.06 253.346 603.143 253.548 603.143 253.758C603.143 253.969 603.06 254.171 602.911 254.32C602.762 254.468 602.56 254.552 602.349 254.552Z" fill="#CCCCCC"/>
<path d="M604.109 265.665C610.246 265.665 615.222 260.689 615.222 254.552C615.222 248.414 610.246 243.439 604.109 243.439C597.971 243.439 592.996 248.414 592.996 254.552C592.996 260.689 597.971 265.665 604.109 265.665Z" fill="#FA7228"/>
<path d="M173.257 145.804L340.857 145.869C341.068 145.869 341.269 145.786 341.418 145.637C341.567 145.488 341.651 145.286 341.651 145.076C341.651 144.865 341.567 144.663 341.418 144.514C341.269 144.365 341.068 144.282 340.857 144.282L173.257 144.216C173.046 144.216 172.844 144.3 172.696 144.449C172.547 144.597 172.463 144.799 172.463 145.01C172.463 145.22 172.547 145.422 172.696 145.571C172.844 145.72 173.046 145.804 173.257 145.804Z" fill="#CCCCCC"/>
<path d="M171.497 156.917C177.635 156.917 182.61 151.941 182.61 145.804C182.61 139.666 177.635 134.691 171.497 134.691C165.36 134.691 160.385 139.666 160.385 145.804C160.385 151.941 165.36 156.917 171.497 156.917Z" fill="#FA7228"/>
<path d="M173.257 360.919L340.857 360.985C341.068 360.985 341.269 360.902 341.418 360.753C341.567 360.604 341.651 360.402 341.651 360.191C341.651 359.981 341.567 359.779 341.418 359.63C341.269 359.481 341.068 359.398 340.857 359.398L173.257 359.332C173.046 359.332 172.844 359.416 172.696 359.564C172.547 359.713 172.463 359.915 172.463 360.126C172.463 360.336 172.547 360.538 172.696 360.687C172.844 360.836 173.046 360.919 173.257 360.919Z" fill="#CCCCCC"/>
<path d="M171.497 372.032C177.635 372.032 182.61 367.057 182.61 360.919C182.61 354.782 177.635 349.806 171.497 349.806C165.36 349.806 160.385 354.782 160.385 360.919C160.385 367.057 165.36 372.032 171.497 372.032Z" fill="#FA7228"/>
<path d="M444.447 467.352C437.382 467.352 430.476 465.257 424.601 461.332C418.727 457.407 414.149 451.828 411.445 445.301C408.742 438.774 408.034 431.592 409.413 424.663C410.791 417.734 414.193 411.369 419.189 406.373C424.184 401.378 430.549 397.976 437.478 396.598C444.407 395.219 451.589 395.927 458.116 398.63C464.643 401.334 470.222 405.912 474.147 411.786C478.072 417.661 480.167 424.567 480.167 431.631C480.156 441.102 476.389 450.181 469.693 456.878C462.996 463.574 453.917 467.341 444.447 467.352ZM444.447 397.499C437.696 397.499 431.097 399.501 425.483 403.251C419.87 407.002 415.496 412.333 412.912 418.569C410.329 424.806 409.653 431.669 410.97 438.29C412.287 444.911 415.538 450.993 420.311 455.767C425.085 460.54 431.167 463.791 437.788 465.108C444.409 466.425 451.272 465.749 457.508 463.166C463.745 460.582 469.076 456.208 472.827 450.595C476.577 444.981 478.579 438.382 478.579 431.631C478.569 422.582 474.97 413.906 468.571 407.507C462.172 401.108 453.496 397.509 444.447 397.499Z" fill="#CCCCCC"/>
<path d="M341.255 360.985C334.19 360.985 327.284 358.89 321.41 354.965C315.536 351.04 310.957 345.462 308.254 338.935C305.55 332.408 304.843 325.225 306.221 318.296C307.599 311.367 311.001 305.003 315.997 300.007C320.992 295.012 327.357 291.61 334.286 290.231C341.215 288.853 348.397 289.56 354.924 292.264C361.451 294.968 367.03 299.546 370.955 305.42C374.88 311.294 376.975 318.2 376.975 325.265C376.964 334.735 373.197 343.815 366.501 350.511C359.804 357.208 350.725 360.975 341.255 360.985ZM341.255 291.133C334.504 291.133 327.905 293.134 322.292 296.885C316.679 300.635 312.304 305.966 309.72 312.203C307.137 318.44 306.461 325.303 307.778 331.924C309.095 338.545 312.346 344.627 317.119 349.401C321.893 354.174 327.975 357.425 334.596 358.742C341.217 360.059 348.08 359.383 354.317 356.8C360.554 354.216 365.885 349.841 369.635 344.228C373.386 338.615 375.387 332.016 375.387 325.265C375.377 316.216 371.778 307.54 365.379 301.141C358.98 294.742 350.304 291.143 341.255 291.133Z" fill="#CCCCCC"/>
<path d="M437.302 254.617C430.238 254.617 423.332 252.522 417.457 248.597C411.583 244.672 407.005 239.094 404.301 232.567C401.598 226.04 400.89 218.858 402.269 211.929C403.647 204.999 407.049 198.635 412.045 193.639C417.04 188.644 423.405 185.242 430.334 183.863C437.263 182.485 444.445 183.192 450.972 185.896C457.499 188.6 463.078 193.178 467.003 199.052C470.928 204.926 473.023 211.832 473.023 218.897C473.012 228.367 469.245 237.447 462.549 244.143C455.852 250.84 446.773 254.607 437.302 254.617ZM437.302 184.765C430.552 184.765 423.952 186.766 418.339 190.517C412.726 194.268 408.351 199.598 405.768 205.835C403.185 212.072 402.509 218.935 403.826 225.556C405.143 232.177 408.394 238.259 413.167 243.033C417.941 247.806 424.022 251.057 430.644 252.374C437.265 253.691 444.128 253.015 450.364 250.432C456.601 247.848 461.932 243.473 465.683 237.86C469.433 232.247 471.435 225.648 471.435 218.897C471.425 209.848 467.826 201.172 461.427 194.773C455.028 188.374 446.352 184.775 437.302 184.765Z" fill="#CCCCCC"/>
<path d="M342.048 145.804C334.984 145.804 328.077 143.709 322.203 139.784C316.329 135.859 311.751 130.28 309.047 123.753C306.344 117.226 305.636 110.044 307.015 103.115C308.393 96.1863 311.795 89.8215 316.79 84.826C321.786 79.8304 328.151 76.4284 335.08 75.0501C342.009 73.6719 349.191 74.3792 355.718 77.0828C362.245 79.7864 367.824 84.3647 371.749 90.2389C375.674 96.113 377.769 103.019 377.769 110.084C377.758 119.554 373.991 128.634 367.294 135.33C360.598 142.027 351.519 145.793 342.048 145.804ZM342.048 75.9513C335.298 75.9513 328.698 77.9532 323.085 81.7037C317.472 85.4543 313.097 90.7851 310.514 97.022C307.93 103.259 307.255 110.122 308.572 116.743C309.889 123.364 313.139 129.446 317.913 134.219C322.686 138.993 328.768 142.244 335.389 143.561C342.01 144.878 348.873 144.202 355.11 141.618C361.347 139.035 366.678 134.66 370.429 129.047C374.179 123.434 376.181 116.835 376.181 110.084C376.171 101.035 372.571 92.3587 366.172 85.9598C359.774 79.5609 351.098 75.9616 342.048 75.9513Z" fill="#CCCCCC"/>
<path d="M117.878 387.826C116.902 387.081 116.093 386.139 115.505 385.061C114.917 383.984 114.562 382.794 114.464 381.57C114.442 381.285 114.435 380.999 114.443 380.713L77.4786 355.818C76.2688 354.995 75.3573 353.803 74.8801 352.42C74.4028 351.036 74.3852 349.536 74.83 348.142L92.4971 304.249C93.2573 302.36 94.7353 300.848 96.6074 300.046C98.4794 299.244 100.593 299.217 102.485 299.97C104.378 300.722 105.895 302.195 106.704 304.063C107.513 305.932 107.549 308.046 106.804 309.941L92.5397 346.209L121.323 372.353C121.703 372.267 122.088 372.207 122.477 372.175C124.7 371.998 126.906 372.678 128.643 374.076C130.381 375.475 131.517 377.484 131.82 379.694C132.123 381.903 131.569 384.144 130.272 385.958C128.975 387.773 127.033 389.022 124.845 389.45C124.283 389.558 123.713 389.613 123.141 389.613C121.237 389.614 119.387 388.986 117.878 387.826Z" fill="#EDD0D4"/>
<path d="M77.4935 330.094C77.2772 329.589 77.1724 329.043 77.1863 328.494C77.2002 327.945 77.3324 327.405 77.574 326.911L86.0076 309.673C86.8586 306.994 88.7372 304.762 91.2317 303.465C93.7262 302.169 96.6328 301.915 99.3145 302.759C101.996 303.602 104.234 305.475 105.537 307.965C106.84 310.456 107.102 313.362 106.266 316.046L103.187 335.051C103.099 335.593 102.896 336.11 102.59 336.567C102.284 337.023 101.883 337.409 101.415 337.696C100.947 337.984 100.423 338.168 99.8773 338.234C99.3319 338.301 98.7786 338.249 98.2549 338.083L79.8509 332.234C79.3271 332.068 78.8453 331.791 78.4385 331.422C78.0316 331.052 77.7093 330.599 77.4935 330.094Z" fill="#FFC83D"/>
<path d="M135.664 542.907H145.395L150.025 505.371L135.662 505.371L135.664 542.907Z" fill="#EDD0D4"/>
<path d="M133.181 539.73L152.346 539.729H152.347C153.951 539.729 155.539 540.045 157.021 540.659C158.503 541.273 159.849 542.172 160.983 543.306C162.117 544.44 163.017 545.787 163.631 547.269C164.244 548.75 164.56 550.339 164.56 551.943V552.339L133.182 552.341L133.181 539.73Z" fill="#2F2E41"/>
<path d="M40.5024 536.012L49.9278 538.434L63.7555 503.232L49.8445 499.657L40.5024 536.012Z" fill="#EDD0D4"/>
<path d="M38.8894 532.317L57.4512 537.087L57.4519 537.087C59.0054 537.486 60.4649 538.187 61.7473 539.151C63.0297 540.114 64.1098 541.32 64.9259 542.701C65.742 544.082 66.2782 545.61 66.5038 547.198C66.7294 548.786 66.64 550.403 66.2407 551.956L66.1419 552.34L35.7507 544.53L38.8894 532.317Z" fill="#2F2E41"/>
<path d="M108.76 285.398C119.527 285.398 128.256 276.669 128.256 265.901C128.256 255.134 119.527 246.405 108.76 246.405C97.9926 246.405 89.2639 255.134 89.2639 265.901C89.2639 276.669 97.9926 285.398 108.76 285.398Z" fill="#EDD0D4"/>
<path d="M98.8993 346.995C94.2608 342.221 90.3225 336.813 87.202 330.933C85.5424 327.71 84.5762 324.174 84.3656 320.554C84.155 316.935 84.7047 313.311 85.9794 309.917C87.281 306.447 89.2947 303.288 91.891 300.643C94.4872 297.998 97.6085 295.927 101.054 294.561C107.096 292.109 113.837 292.008 119.951 294.277C126.064 296.546 131.106 301.021 134.085 306.822C138.963 316.369 140.875 325.703 139.767 334.567C137.649 351.51 136.41 360.268 136.082 360.595L135.973 360.705L99.7058 362.316L98.8993 346.995Z" fill="#FFC83D"/>
<path d="M101.053 357.627L133.509 356.012C134.328 355.971 135.132 356.249 135.751 356.787C136.37 357.326 136.756 358.083 136.829 358.901L151.759 526.255C151.799 526.7 151.744 527.148 151.599 527.57C151.454 527.992 151.221 528.379 150.916 528.705C150.611 529.031 150.241 529.29 149.83 529.463C149.418 529.637 148.975 529.721 148.529 529.712L135.849 529.442C135.152 529.427 134.479 529.183 133.934 528.748C133.389 528.312 133.003 527.709 132.835 527.032L108.612 429.427C108.453 428.788 108.1 428.215 107.602 427.786C107.103 427.356 106.483 427.093 105.828 427.031C105.173 426.969 104.515 427.112 103.945 427.441C103.375 427.769 102.921 428.266 102.646 428.864L56.7417 528.562C56.4299 529.239 55.8898 529.785 55.2159 530.104C54.5421 530.423 53.7775 530.495 53.0562 530.307L40.2956 526.978C39.5058 526.773 38.8254 526.271 38.3959 525.577C37.9664 524.884 37.8209 524.051 37.9897 523.252C42.1882 503.433 67.3372 389.932 99.001 358.516C99.5521 357.977 100.283 357.661 101.053 357.627Z" fill="#2F2E41"/>
<path d="M162.513 376.417C161.34 376.055 160.256 375.45 159.331 374.642C158.407 373.833 157.664 372.839 157.149 371.723C157.03 371.464 156.925 371.198 156.834 370.927L113.549 360.319C112.129 359.964 110.862 359.16 109.937 358.026C109.011 356.893 108.477 355.49 108.414 354.028L109.846 306.736C109.908 304.701 110.773 302.773 112.253 301.374C113.733 299.975 115.708 299.22 117.743 299.273C119.779 299.327 121.711 300.184 123.115 301.659C124.52 303.133 125.283 305.104 125.238 307.14L124.368 346.102L160.406 360.706C160.733 360.494 161.074 360.305 161.426 360.14H161.427C162.714 359.543 164.127 359.269 165.544 359.341C166.96 359.412 168.338 359.828 169.559 360.551C170.779 361.274 171.805 362.284 172.548 363.492C173.291 364.701 173.728 366.072 173.823 367.487C173.917 368.903 173.666 370.32 173.09 371.616C172.514 372.913 171.632 374.05 170.518 374.929C169.405 375.808 168.095 376.403 166.7 376.662C165.305 376.922 163.868 376.837 162.513 376.417V376.417Z" fill="#EDD0D4"/>
<path d="M105.229 330.302C104.856 329.899 104.574 329.42 104.402 328.898C104.23 328.376 104.173 327.823 104.235 327.277L106.38 308.207C106.281 305.398 107.299 302.664 109.213 300.604C111.126 298.545 113.778 297.328 116.587 297.22C119.396 297.113 122.133 298.124 124.198 300.031C126.263 301.939 127.487 304.587 127.602 307.396L131.094 326.329C131.193 326.869 131.175 327.425 131.041 327.958C130.906 328.49 130.659 328.988 130.315 329.416C129.971 329.845 129.538 330.194 129.047 330.44C128.556 330.687 128.018 330.824 127.468 330.843L108.17 331.525C107.62 331.544 107.073 331.445 106.566 331.234C106.059 331.023 105.603 330.705 105.229 330.302Z" fill="#FFC83D"/>
<path d="M80.8236 291.641L82.8607 285.057L84.2537 292.446L95.6945 292.143L95.6418 284.858L99.9909 292.047L110.358 289.756C108.143 286.805 105.902 283.807 104.486 280.328C103.069 276.85 102.554 272.77 103.877 269.248C107.149 260.542 119.555 262.978 126.341 262.905C128.321 262.883 130.555 262.74 131.852 261.122C132.828 259.903 132.988 258.16 132.939 256.548C132.684 248.25 127.701 240.332 120.658 237.033C117.21 235.445 113.366 234.925 109.62 235.538C107.666 235.847 105.769 236.444 103.991 237.311C102.406 238.085 100.741 239.93 99.0337 239.88C97.5992 239.838 95.7002 238.344 94.1393 238.089C92.2589 237.798 90.3405 237.865 88.4848 238.286C84.7557 239.117 81.3941 241.129 78.8989 244.022C73.5962 250.184 72.0206 259.263 72.9448 267.622C73.869 275.981 76.996 283.842 80.0881 291.567" fill="#2F2E41"/>
<path d="M694.136 554H0.864428C0.635167 554 0.415296 553.895 0.253184 553.707C0.0910727 553.52 0 553.265 0 553C0 552.735 0.0910727 552.48 0.253184 552.293C0.415296 552.105 0.635167 552 0.864428 552H694.136C694.365 552 694.585 552.105 694.747 552.293C694.909 552.48 695 552.735 695 553C695 553.265 694.909 553.52 694.747 553.707C694.585 553.895 694.365 554 694.136 554Z" fill="#31BD64"/>
<path d="M626.667 543.97C629.09 542.005 630.856 539.347 631.728 536.352C632.374 533.321 631.082 529.763 628.196 528.59C624.954 527.338 621.488 529.592 618.865 531.858C616.243 534.125 613.225 536.721 609.785 536.234C611.547 534.628 612.863 532.593 613.604 530.327C614.345 528.061 614.487 525.642 614.015 523.305C613.873 522.333 613.462 521.42 612.829 520.669C611.037 518.745 607.769 519.576 605.607 521.091C598.754 525.915 596.843 535.219 596.817 543.601C596.118 540.57 596.698 537.42 596.685 534.376C596.672 531.331 595.815 527.786 593.206 526.178C591.588 525.309 589.77 524.877 587.934 524.926C584.85 524.821 581.424 525.124 579.315 527.378C576.679 530.171 577.378 534.876 579.658 537.921C581.938 540.965 585.391 542.929 588.567 545.064C591.125 546.58 593.306 548.658 594.945 551.139C595.14 551.482 595.299 551.845 595.42 552.22H614.727C619.062 550.023 623.079 547.247 626.667 543.97Z" fill="#31BD64"/>
<path d="M425.789 239.883C425.43 239.882 425.077 239.791 424.763 239.618C424.448 239.446 424.181 239.198 423.986 238.896C423.792 238.595 423.675 238.249 423.648 237.892C423.62 237.534 423.682 237.175 423.828 236.847L426.312 231.305C422.889 228.266 420.709 224.069 420.19 219.521C419.671 214.973 420.849 210.394 423.498 206.661C426.148 202.928 430.082 200.304 434.546 199.293C439.011 198.282 443.692 198.954 447.691 201.182C451.69 203.409 454.726 207.034 456.217 211.362C457.708 215.69 457.549 220.416 455.77 224.634C453.991 228.852 450.718 232.265 446.578 234.218C442.438 236.171 437.722 236.527 433.336 235.218L426.997 239.509C426.641 239.752 426.22 239.882 425.789 239.883ZM438.605 201.57C435.303 201.568 432.083 202.593 429.389 204.504C426.696 206.414 424.664 209.115 423.575 212.233C422.486 215.35 422.393 218.728 423.31 221.901C424.227 225.073 426.108 227.881 428.693 229.936L429.475 230.56L426.803 236.523L432.935 232.371L433.541 232.575C435.728 233.309 438.05 233.56 440.344 233.309C442.637 233.057 444.849 232.31 446.826 231.119C448.802 229.928 450.496 228.321 451.79 226.41C453.083 224.499 453.946 222.33 454.318 220.052C454.69 217.775 454.563 215.444 453.944 213.221C453.326 210.997 452.231 208.935 450.736 207.177C449.242 205.419 447.383 204.007 445.288 203.039C443.193 202.07 440.913 201.569 438.605 201.57Z" fill="#6B53FD"/>
<path d="M438.605 219.212C440.031 219.212 441.187 218.056 441.187 216.63C441.187 215.204 440.031 214.049 438.605 214.049C437.179 214.049 436.023 215.204 436.023 216.63C436.023 218.056 437.179 219.212 438.605 219.212Z" fill="#6B53FD"/>
<path d="M431.29 219.212C432.716 219.212 433.872 218.056 433.872 216.63C433.872 215.204 432.716 214.049 431.29 214.049C429.864 214.049 428.708 215.204 428.708 216.63C428.708 218.056 429.864 219.212 431.29 219.212Z" fill="#6B53FD"/>
<path d="M445.92 219.212C447.346 219.212 448.502 218.056 448.502 216.63C448.502 215.204 447.346 214.049 445.92 214.049C444.495 214.049 443.339 215.204 443.339 216.63C443.339 218.056 444.495 219.212 445.92 219.212Z" fill="#6B53FD"/>
</svg>
