<svg width="327" height="358" viewBox="0 0 327 358" fill="none" xmlns="http://www.w3.org/2000/svg">
<path d="M168.269 320.268C169.696 330.776 176.84 340.262 186.028 346.455C188.217 347.935 190.528 349.227 192.934 350.318C195.581 351.513 198.31 352.514 201.101 353.314C207.871 355.188 214.827 356.309 221.843 356.654H221.855C227.716 357.034 233.611 357.082 239.448 357.118L268.19 357.296C271.626 357.32 275.049 357.343 278.485 357.367C288.743 357.427 299.334 357.427 308.808 353.492C308.95 353.44 309.089 353.38 309.224 353.314C318.532 349.296 326.46 340.464 326.234 330.36C326.143 326.801 325.136 323.325 323.31 320.268C322.101 318.215 320.648 316.315 318.983 314.61C313.824 309.261 306.668 305.065 299.964 301.689C292.416 297.897 284.19 293.332 278.71 287.187C278.045 286.438 277.427 285.677 276.856 284.893C275.204 282.674 273.96 280.178 273.183 277.523C272.842 276.322 272.611 275.093 272.494 273.85C271.733 266.004 275.549 258.789 280.41 252.334C280.886 251.693 281.385 251.051 281.896 250.409C282.99 249.042 284.119 247.699 285.236 246.415C285.712 245.868 286.187 245.309 286.675 244.751C288.006 243.205 289.349 241.624 290.633 240.008C291.227 239.247 291.81 238.486 292.38 237.714C294.717 234.67 296.629 231.323 298.062 227.764C299.081 225.161 299.647 222.403 299.738 219.61C300 209.518 288.719 199.354 280.184 204.121C276.951 203.812 273.706 203.491 270.473 203.158C269.712 203.087 268.963 203.004 268.202 202.932C268.012 202.909 267.822 202.897 267.632 202.873C262.497 202.362 257.385 201.851 252.262 201.328H252.25C251.097 201.233 249.968 201.114 248.839 200.995H248.827C240.613 200.175 232.407 199.354 224.209 198.534C223.448 198.463 222.687 198.38 221.927 198.308C220.239 198.13 218.563 197.964 216.875 197.797C212.144 197.334 206.581 197.155 203.502 200.793C200.15 204.763 201.885 211.039 205.202 215.045C208.518 219.039 213.118 221.868 216.233 226.005C218.749 229.413 220.212 233.483 220.441 237.714C220.488 238.462 220.512 239.235 220.488 240.008C220.471 241.598 220.324 243.184 220.048 244.751C219.714 246.677 219.213 248.57 218.551 250.409C217.387 253.693 215.775 256.801 213.76 259.645C206.771 269.44 196.417 276.191 187.229 283.954C186.86 284.263 186.504 284.572 186.147 284.893C185.279 285.63 184.435 286.402 183.591 287.187C175.865 294.402 169.256 303.187 168.162 313.552C168.126 313.897 168.091 314.253 168.079 314.61C167.945 316.497 168.009 318.394 168.269 320.268Z" fill="#E6E6E6"/>
<path d="M243.185 156.171C241.607 154.241 240.038 152.292 238.46 150.352C240.364 145.615 243.033 141.223 246.359 137.352C246.77 136.889 247.305 136.555 247.901 136.39C248.497 136.224 249.128 136.235 249.718 136.421C250.308 136.606 250.832 136.958 251.226 137.435C251.621 137.912 251.87 138.492 251.942 139.107C253.321 149.29 260.809 159.04 262.114 169.655C262.486 172.687 262.329 175.761 261.651 178.739V178.743C269.593 161.434 272.697 142.293 270.634 123.357C268.367 103.369 260.509 84.4286 247.963 68.7162C242.853 65.9234 238.721 61.6279 236.125 56.4096C235.774 55.6903 235.451 54.95 235.168 54.1947C235.017 53.7831 234.967 53.3411 235.022 52.9061C235.077 52.4711 235.236 52.0557 235.485 51.695C235.734 51.3344 236.066 51.0389 236.453 50.8336C236.84 50.6283 237.271 50.5191 237.709 50.5153C239.539 50.5302 241.369 50.4224 243.185 50.1929C242.215 49.0066 239.846 46.0908 238.063 43.8939C237.715 43.4755 237.46 42.9873 237.316 42.4621C237.172 41.937 237.142 41.387 237.228 40.8493C237.314 40.3115 237.514 39.7984 237.814 39.3444C238.115 38.8904 238.509 38.506 238.97 38.2172L239.008 38.1946C243.365 35.6398 249.375 37.4092 252.522 41.355C255.678 45.3008 256.274 50.8363 255.178 55.7662C254.1 59.9611 252.316 63.9417 249.904 67.5374L249.901 67.543C250.14 67.8436 250.39 68.1361 250.626 68.4394C257.135 76.8174 262.382 86.1049 266.201 96.0061C266.352 96.3976 266.486 96.7954 266.633 97.1887L266.632 97.164L266.027 89.2724C264.007 85.6681 262.824 81.6547 262.565 77.5299C262.307 73.4051 262.979 69.275 264.534 65.4462C267.096 59.2562 271.904 54.0448 276.132 48.6931C281.2 42.2772 291.579 45.1094 292.472 53.2407C292.481 53.3192 292.489 53.3977 292.497 53.4763C288.952 55.4735 285.847 58.1674 283.368 61.3963C286.43 61.8694 289.502 62.352 292.563 62.8251C292.34 65.0882 291.945 67.3309 291.382 69.534C289.698 75.8845 286.68 81.8022 282.529 86.8915C278.379 91.9809 273.191 96.1247 267.313 99.0463C270.491 108.042 272.478 117.416 273.225 126.929C273.654 132.538 273.629 138.172 273.151 143.777C273.163 143.711 273.168 143.643 273.181 143.577C274.39 137.343 277.712 131.718 282.584 127.652C290.191 121.395 301.099 119.293 309.03 113.968C309.742 113.498 310.573 113.24 311.425 113.226C312.278 113.211 313.117 113.439 313.845 113.884C314.573 114.328 315.16 114.971 315.537 115.737C315.914 116.503 316.066 117.36 315.974 118.209C315.906 118.797 315.827 119.383 315.736 119.968C310.788 121.984 306.466 125.282 303.214 129.525C306.276 129.998 309.347 130.481 312.409 130.954C312.475 130.963 312.532 130.973 312.598 130.982C310.61 135.736 307.819 140.112 304.348 143.917C300.06 148.524 294.878 152.206 289.119 154.736C283.359 157.266 277.145 158.591 270.856 158.631C270.852 158.631 270.847 158.631 270.843 158.631C268.57 168.528 264.936 178.062 260.045 186.958C257.499 191.589 254.617 196.026 251.423 200.234L250.915 201.676C250.802 201.572 250.679 201.467 250.566 201.363L250.551 201.349C247.726 204.985 244.668 208.433 241.397 211.672C240.364 212.692 238.772 211.098 239.805 210.078C243.056 206.86 246.093 203.43 248.893 199.812C243.158 194.149 239 187.084 236.834 179.316C239.275 179.47 241.725 179.323 244.13 178.881C242.174 176.477 240.217 174.055 238.261 171.652C238.218 171.607 238.177 171.559 238.138 171.51C237.146 170.28 236.144 169.059 235.152 167.829C235.143 167.356 235.143 166.892 235.152 166.419C235.215 163.12 235.646 159.838 236.437 156.635C238.697 156.736 240.961 156.581 243.185 156.171ZM272.699 149.368C272.689 148.999 272.689 148.63 272.699 148.251C272.7 148.147 272.714 148.042 272.717 147.937C272.636 148.591 272.557 149.245 272.464 149.897L272.472 149.879L272.699 149.368Z" fill="#31BD64"/>
<path d="M69.5192 277.871L83.2855 338.441L92.0818 348.076H98.4282L72.2723 237.949L70.979 256.658V256.671L69.5192 277.871Z" fill="#3F3D56"/>
<path d="M3.2688 339.771L84.0285 339.26L91.1963 339.213L96.3077 339.177L102.263 339.141H102.311C103.174 339.143 104.003 339.485 104.617 340.092L114.673 350.149C114.896 350.368 115.077 350.626 115.208 350.909C115.271 350.989 115.322 351.077 115.362 351.171C115.58 351.677 115.67 352.228 115.624 352.777C115.579 353.325 115.399 353.854 115.1 354.317C114.802 354.78 114.395 355.162 113.914 355.43C113.433 355.698 112.894 355.844 112.343 355.854H7.72639C7.09855 355.852 6.48412 355.672 5.95409 355.336C5.42406 354.999 5 354.52 4.73087 353.952L3.91067 352.169L2.22275 348.544L0.308968 344.455C0.104652 344.02 -0.000900269 343.545 -9.91821e-05 343.064C0.00450134 342.196 0.349625 341.365 0.960991 340.749C1.57236 340.133 2.40111 339.782 3.2688 339.771Z" fill="#3F3D56"/>
<path opacity="0.17" d="M3.91044 352.167L4.73637 353.956C5.00503 354.522 5.42788 355 5.95633 355.336C6.48479 355.673 7.09737 355.853 7.72363 355.856H112.344C112.895 355.846 113.434 355.701 113.915 355.433C114.395 355.165 114.803 354.783 115.101 354.32C115.399 353.858 115.578 353.329 115.623 352.78C115.668 352.232 115.578 351.681 115.359 351.176C115.322 351.081 115.271 350.993 115.208 350.914L3.91044 352.167Z" fill="black"/>
<path opacity="0.17" d="M70.979 256.658V256.671L93.3763 348.076H98.4282L72.2723 237.949L70.979 256.658Z" fill="black"/>
<path d="M43.494 273.406L75.1964 32.2091C75.3125 31.3051 75.7828 30.4842 76.504 29.9268L98.3284 2.61068L100.29 1.10105C101.016 0.550973 101.93 0.307704 102.833 0.42349L106.114 0.8633C107.019 0.979952 107.84 1.45127 108.398 2.17353C108.955 2.8958 109.203 3.80987 109.086 4.71467L76.2306 254.625V254.637L74.2217 269.924L71.8324 288.075V288.099L68.1237 316.342C68.0647 316.826 67.9012 317.291 67.6447 317.706C67.3881 318.12 67.0446 318.474 66.6379 318.743C66.2382 319.018 65.7844 319.205 65.3069 319.291C64.8293 319.377 64.3388 319.361 63.8682 319.242L61.788 318.719C60.9912 318.514 60.2924 318.034 59.8147 317.364L58.8876 316.045L58.4597 315.427L44.1002 275.843C43.5963 275.137 43.3796 274.266 43.494 273.406Z" fill="#3F3D56"/>
<path opacity="0.17" d="M98.3337 2.6118L58.4559 315.432L58.8891 316.044L59.8131 317.36C60.29 318.031 60.9893 318.512 61.7869 318.716L63.8701 319.24C64.3417 319.357 64.8326 319.373 65.3108 319.287C65.789 319.201 66.2437 319.015 66.6453 318.742C67.0468 318.468 67.3861 318.113 67.641 317.7C67.896 317.286 68.0608 316.823 68.1247 316.342L109.081 4.71847C109.2 3.81357 108.954 2.89862 108.398 2.17469C107.843 1.45077 107.022 0.977122 106.117 0.857874L102.828 0.425573C102.382 0.36528 101.928 0.394412 101.493 0.511275C101.058 0.628138 100.651 0.830397 100.295 1.10626L98.3337 2.6118Z" fill="black"/>
<path d="M97.1582 11.5574L75.9959 41.7632L50.8432 233.144L64.4799 260.197L97.1582 11.5574Z" fill="#FFC83D"/>
<path d="M22.9313 277.491L30.7183 286.056C31.0794 286.36 31.52 286.553 31.9879 286.614C32.4558 286.675 32.9312 286.6 33.3577 286.398C34.6491 285.941 35.7983 285.153 36.6905 284.114C42.2555 277.798 48.5031 272.117 55.3192 267.177C56.4388 266.387 57.3319 265.318 57.9097 264.076C58.1441 263.676 58.2628 263.219 58.2524 262.756C58.2421 262.292 58.1032 261.841 57.8512 261.452C57.7737 256.766 55.134 253.863 50.0044 252.822C49.1051 251.885 47.0734 252.241 45.2522 253.662C37.7612 259.506 30.7212 265.907 24.1919 272.809C22.5886 274.505 22.0464 276.518 22.9313 277.491Z" fill="#FFC83D"/>
<path d="M42.946 259.055L49.5001 266.264C49.7264 266.513 50.2718 266.385 50.7188 265.979C51.1657 265.573 51.3444 265.042 51.1182 264.793L44.564 257.584C44.3377 257.335 43.7923 257.463 43.3454 257.869C42.8984 258.275 42.7197 258.806 42.946 259.055Z" fill="white"/>
<path d="M36.473 264.94L43.027 272.148C43.2533 272.397 43.7988 272.27 44.2457 271.863C44.6926 271.457 44.8714 270.926 44.6451 270.677L38.091 263.468C37.8647 263.22 37.3193 263.347 36.8724 263.754C36.4255 264.16 36.2467 264.691 36.473 264.94Z" fill="white"/>
<path d="M30.0008 270.824L36.5548 278.033C36.7811 278.282 37.3266 278.154 37.7736 277.748C38.2205 277.342 38.3993 276.811 38.173 276.562L31.6188 269.353C31.3926 269.104 30.8471 269.232 30.4002 269.638C29.9533 270.044 29.7745 270.575 30.0008 270.824Z" fill="white"/>
<path d="M186.112 287.187H183.532V284.893H221.927V240.008H220.489C220.512 239.235 220.489 238.463 220.441 237.714H221.927V198.309C222.688 198.38 223.448 198.463 224.209 198.534V237.714H268.203V202.933C268.963 203.004 269.712 203.087 270.473 203.158V237.714H292.381C291.81 238.486 291.228 239.247 290.633 240.008H270.473V284.893H276.856C277.427 285.677 278.045 286.438 278.711 287.187H270.473V322.99H298.253C297.92 323.763 297.563 324.524 297.183 325.273H270.473V355.37H268.203V325.273H224.209V355.37H221.927V325.273H183.532V322.99H221.927C221.923 313.494 218.149 304.387 211.432 297.673C204.716 290.959 195.608 287.187 186.112 287.187H186.112ZM224.209 322.99H268.203V287.187H224.209V322.99ZM268.203 284.893V283.989C268.2 272.324 263.564 261.136 255.314 252.888C247.064 244.64 235.875 240.007 224.209 240.008V284.893H268.203Z" fill="white"/>
<path d="M153.655 289.568C166.75 271.317 191.467 261.886 208.861 268.502C226.255 275.119 229.739 295.279 216.644 313.53C203.548 331.781 165 360.49 147.606 353.873C130.212 347.256 140.559 307.82 153.655 289.568ZM153.574 345.704C155.715 348.844 160.968 348.989 165.307 346.03C169.646 343.07 171.428 338.126 169.286 334.987C167.145 331.848 161.892 331.703 157.554 334.662C153.215 337.622 151.433 342.565 153.574 345.704Z" fill="#3F3D56"/>
<path d="M168.438 307.421C170.069 308.739 171.7 310.058 173.331 311.376C175.332 313.222 177.702 314.623 180.284 315.486C183.829 316.305 187.535 316.085 190.958 314.851C195.948 313.239 200.322 310.131 203.485 305.949L199.96 306.735C201.83 304.57 203.351 302.126 204.467 299.492C205.294 297.047 204.832 294.566 202.601 293.896C200.047 293.13 195.934 294.853 193.79 293.614C190.081 291.472 196.178 283.495 192.798 281.035C190.829 279.601 186.889 281.019 183.604 282.426C179.519 283.982 175.647 286.05 172.081 288.579C166.247 293.084 163.017 300.186 165.4 304.297C166.214 305.514 167.244 306.573 168.438 307.421Z" fill="#FFC83D"/>
<path d="M169.64 321.107C172.492 321.497 175.791 319.305 178.543 317.282L179.244 316.365C179.817 314.61 180.058 312.763 179.955 310.919C179.89 310.065 179.537 309.258 178.953 308.631C178.369 308.004 177.59 307.594 176.742 307.468C175.069 307.247 172.837 307.969 171.732 307.001C169.595 305.129 174.55 299.971 172.285 298.22C171.013 297.237 168.312 298.497 167.147 300.186C166.195 301.761 165.756 303.593 165.89 305.428C165.852 308.123 165.814 310.818 165.777 313.513C165.656 315.104 165.817 316.704 166.252 318.239C166.492 318.986 166.936 319.652 167.535 320.159C168.134 320.666 168.863 320.994 169.64 321.107Z" fill="#2F2E41"/>
<path d="M168.925 330.087C172.878 328.919 178.907 324.846 184.042 321.248L185.57 319.918C187.171 318.102 188.528 316.085 189.606 313.918C190.199 312.295 189.436 311.348 186.811 312.131C184.488 312.825 180.828 314.797 179.746 314.408C177.653 313.657 187.733 305.617 185.386 305.06C184.069 304.748 179.428 307.532 176.796 309.913C174.857 311.633 173.256 313.698 172.074 316.003C170.536 318.799 168.998 321.596 167.46 324.392C166.531 325.788 165.883 327.353 165.554 328.997C165.522 330.188 166.526 330.796 168.925 330.087Z" fill="#FF6584"/>
<path d="M225.667 340.798L152.277 350.557C151.876 350.611 151.512 350.815 151.258 351.129C151.005 351.443 150.881 351.843 150.913 352.245C150.945 352.647 151.13 353.022 151.43 353.292C151.73 353.562 152.123 353.706 152.526 353.696L224.107 351.804L225.667 340.798Z" fill="#3F3D56"/>
<path d="M246.708 349.234C245.114 346.892 243.25 344.747 241.153 342.843C240.082 341.879 238.955 340.985 237.817 340.124C237.425 339.813 237.017 339.51 236.621 339.21C235.678 338.493 234.734 337.775 233.779 337.054C232.979 336.44 232.167 335.822 231.364 335.219C230.187 334.323 228.862 333.384 227.392 333.591C226.72 333.747 226.091 334.049 225.551 334.477C225.01 334.906 224.571 335.448 224.266 336.067C223.613 337.349 223.14 338.716 222.859 340.127C222.062 343.361 221.277 346.599 220.48 349.833L219.298 351.1C220.985 352.766 222.95 354.125 225.105 355.114C226.012 355.482 226.985 355.663 227.963 355.645C228.942 355.628 229.907 355.413 230.801 355.012C231.191 354.824 231.56 354.594 231.901 354.328C233.392 353.15 234.309 351.299 235.621 349.883C235.897 349.591 236.191 349.317 236.501 349.061C237.407 348.296 238.47 347.74 239.615 347.433C240.76 347.126 241.959 347.075 243.125 347.285C244.478 347.588 245.718 348.263 246.708 349.234Z" fill="#CCCCCC"/>
<path d="M246.708 349.234C245.114 346.892 243.25 344.747 241.153 342.844C240.082 341.879 238.955 340.985 237.817 340.125C237.425 339.813 237.017 339.51 236.621 339.21C235.678 338.493 234.734 337.775 233.779 337.054C233.47 337.573 233.188 338.107 232.934 338.654C230.558 343.759 230.385 349.462 230.801 355.013C231.191 354.824 231.56 354.595 231.901 354.328C233.392 353.15 234.309 351.299 235.621 349.883C235.897 349.591 236.191 349.317 236.501 349.061C237.407 348.296 238.47 347.74 239.615 347.433C240.76 347.126 241.959 347.075 243.125 347.285C244.478 347.588 245.718 348.263 246.708 349.234Z" fill="#F9A826"/>
</svg>
