<svg width="605" height="548" viewBox="0 0 605 548" fill="none" xmlns="http://www.w3.org/2000/svg">
<path d="M423.548 103.011C423.844 105.062 424.929 106.916 426.571 108.179C428.213 109.442 430.283 110.014 432.341 109.774C432.759 109.718 433.171 109.628 433.573 109.505L450.15 131.755L464.399 127.316L438.396 99.2915C437.756 97.6614 436.593 96.2893 435.09 95.3894C433.587 94.4895 431.829 94.1124 430.089 94.317C429.101 94.4428 428.146 94.7622 427.281 95.2569C426.416 95.7516 425.656 96.4119 425.046 97.2C424.436 97.9882 423.987 98.8888 423.725 99.8505C423.463 100.812 423.393 101.816 423.519 102.805C423.528 102.874 423.537 102.943 423.548 103.011Z" fill="#EDD0D4"/>
<path d="M540.598 202.386C540.598 202.386 478.703 173.499 463.046 155.049L434.99 120.214L449.219 108.574L475.59 138.949C475.35 145.332 506.52 151.875 523.276 161.178L540.598 202.386Z" fill="#FFC83D"/>
<path d="M555.816 533.346L543.676 533.345L537.9 486.516L555.818 486.517L555.816 533.346Z" fill="#EDD0D4"/>
<path d="M556.243 546.011L518.909 546.009V545.537C518.909 541.683 520.441 537.987 523.166 535.262C525.891 532.537 529.587 531.006 533.441 531.006H533.441L540.261 525.832L552.985 531.007L556.244 531.007L556.243 546.011Z" fill="#2F2E41"/>
<path d="M526.872 522.635L515.049 525.392L498.784 481.101L516.234 477.03L526.872 522.635Z" fill="#EDD0D4"/>
<path d="M530.167 534.871L493.809 543.353L493.702 542.893C492.827 539.14 493.478 535.193 495.513 531.92C497.547 528.647 500.799 526.316 504.552 525.44L504.553 525.44L510.018 518.852L523.585 521L526.759 520.26L530.167 534.871Z" fill="#2F2E41"/>
<path d="M408.375 259.895H70.4449C68.3122 259.87 66.1893 259.601 64.1179 259.093C57.9354 257.607 52.4349 254.08 48.5064 249.08C44.5778 244.08 42.4509 237.902 42.4699 231.543V116.681C42.4816 109.167 45.4733 101.966 50.7884 96.6554C56.1035 91.3451 63.308 88.36 70.8213 88.3551H408.375C412.926 88.343 417.41 89.4407 421.44 91.5529C423.045 92.3851 424.563 93.3754 425.971 94.5092C429.334 97.1416 432.051 100.508 433.915 104.35C435.779 108.193 436.741 112.41 436.727 116.681V231.543C436.719 239.06 433.729 246.266 428.414 251.582C423.099 256.897 415.892 259.886 408.375 259.895Z" fill="white"/>
<path d="M385.724 257.383C401.067 220.092 417.231 183.169 434.215 146.615V208.591C422.437 226.169 409.379 242.668 394.237 257.383H385.724Z" fill="#31BD64"/>
<path d="M424.397 96.4663C394.036 150.934 362.27 204.573 329.097 257.383H323.321C357.047 203.744 389.366 149.21 420.278 93.7793C421.737 94.5356 423.117 95.4358 424.397 96.4663V96.4663Z" fill="#31BD64"/>
<path d="M258.996 182.377C239.156 217.455 217.262 251.331 193.428 283.829H159C181.551 256.356 204.118 228.884 226.702 201.411C233.181 193.501 240.212 185.214 249.93 182L258.996 182.377Z" fill="#31BD64"/>
<path d="M155.851 150.306C152.26 154.048 148.82 157.94 145.58 161.984C138.448 170.572 131.417 179.235 124.36 187.874C119.966 193.248 115.571 198.622 111.227 203.996C109.847 203.11 108.538 202.119 107.31 201.033C100.37 195.01 96.0662 186.509 95.3195 177.351C94.5727 168.193 97.4427 159.107 103.315 152.04C109.186 144.973 117.593 140.487 126.732 139.543C135.872 138.599 145.018 141.273 152.21 146.992C153.506 148.003 154.723 149.111 155.851 150.306V150.306Z" fill="white"/>
<path d="M350.322 148.223L284.327 124.09L251.556 112.112C240.884 108.22 230.236 103.775 219.212 100.962C209.625 98.2224 199.445 98.3533 189.932 101.339C181.449 104.479 173.685 109.295 167.105 115.502C164.192 118.189 161.371 120.96 158.642 123.814C155.051 127.556 151.611 131.448 148.372 135.491C141.24 144.08 134.208 152.743 127.152 161.382C122.757 166.756 118.363 172.129 114.018 177.503C99.5037 195.258 85.0728 213.054 70.7255 230.891C68.7954 230.869 66.8743 230.625 65 230.163C79.9668 211.58 95.0004 193.039 110.101 174.54C111.834 172.381 113.617 170.196 115.374 168.036C122.732 159.021 130.098 150.014 137.473 141.016C143.173 134.06 148.824 127.054 155.001 120.499C155.554 119.897 156.106 119.319 156.684 118.716C169.214 105.759 184.859 94.3077 203.593 94.0064C214.617 93.8306 225.264 97.3211 235.51 101.013C246.534 105.005 257.533 109.074 268.557 113.117L335.003 137.425L351.627 143.502C354.565 144.557 353.31 149.328 350.322 148.223Z" fill="#31BD64"/>
<path d="M1.74854 129.537V60.5795C1.75219 58.4274 2.60934 56.3646 4.13196 54.8437C5.65458 53.3227 7.71832 52.4678 9.87044 52.4665H99.2291V50.718H9.87044C7.25472 50.7198 4.7465 51.759 2.89607 53.6078C1.04563 55.4565 0.00410909 57.9638 0 60.5795V129.537L1.74854 129.537Z" fill="#3F3D56"/>
<path d="M7.95126 295.554C6.1799 295.129 4.60391 294.118 3.47828 292.686C2.35265 291.253 1.74324 289.483 1.74859 287.661V218.712H4.36646e-05V287.661C-0.00655056 289.875 0.733926 292.026 2.10165 293.767C3.46937 295.507 5.38434 296.735 7.53675 297.253C8.25792 297.43 8.99698 297.523 9.73949 297.532H99.2291V295.783H9.75016C9.14378 295.776 8.54026 295.699 7.95126 295.554V295.554Z" fill="#3F3D56"/>
<path d="M408.281 218.712V287.661C408.279 289.815 407.422 291.879 405.9 293.402C404.377 294.924 402.313 295.781 400.159 295.783H310.801V297.532H400.159C402.776 297.529 405.285 296.488 407.136 294.638C408.986 292.787 410.027 290.278 410.03 287.661V218.712H408.281Z" fill="#3F3D56"/>
<path d="M406.525 53.3831C406.984 53.6212 407.418 53.9046 407.82 54.2292C408.784 54.9827 409.563 55.9466 410.098 57.0472C410.632 58.1478 410.908 59.356 410.904 60.5795V129.537H412.653V60.5796C412.658 59.0927 412.323 57.6244 411.674 56.2866C411.025 54.9489 410.079 53.7771 408.908 52.8606C408.418 52.4659 407.89 52.1211 407.331 51.8314C405.928 51.096 404.367 50.7139 402.782 50.7181H313.424V52.4666H402.782C404.086 52.4632 405.371 52.7778 406.525 53.3831V53.3831Z" fill="#3F3D56"/>
<path d="M566.336 305.968L490.798 309.754L485.552 335.108V357.691L482.333 441.775L504.786 507.338H522.788L520.96 499.033C521.959 497.636 522.52 495.975 522.573 494.259C522.626 492.544 522.168 490.851 521.258 489.395L519.814 487.087L517.463 477.176L512.218 440.457L534.683 357.691L537.571 508.65H557.127L559.996 505.374C561.589 503.554 562.537 501.26 562.694 498.847C562.851 496.434 562.207 494.037 560.863 492.027V488.366L558.554 475.428L580.107 314.818L566.336 305.968Z" fill="#2F2E41"/>
<path d="M533.697 148.578L509.057 149.84L506.257 161.519L488.363 175.213C484.318 178.309 481.218 182.475 479.415 187.24C477.613 192.004 477.178 197.178 478.16 202.177L488.079 252.636L487.434 284.218L488.865 297.151L488.757 299.109L486.566 300.902C485.076 302.122 484.045 303.813 483.643 305.697C483.242 307.581 483.493 309.545 484.357 311.267V311.267C484.357 311.267 473.559 334.613 489.183 335.8C504.807 336.987 514.471 320.741 529.399 327.057C544.327 333.373 557.654 334.113 561.747 327.057C565.839 320.001 578.29 321.646 579.787 315.482C581.284 309.317 573.704 302.34 572.685 293.152C571.667 283.964 569.044 241.125 569.044 241.125L576.379 199.066C577.418 193.112 576.492 186.981 573.741 181.599C570.99 176.217 566.563 171.876 561.129 169.23L537.645 157.797L533.697 148.578Z" fill="#FFC83D"/>
<path d="M405.369 280.26C406.36 278.121 408.146 276.454 410.348 275.612C412.549 274.77 414.993 274.821 417.158 275.753C417.595 275.95 418.015 276.182 418.414 276.448L443.733 257.594L457.821 267.075L420.343 289.153C419.113 290.721 417.399 291.838 415.468 292.33C413.536 292.821 411.497 292.659 409.667 291.869C408.63 291.41 407.694 290.751 406.912 289.93C406.129 289.108 405.517 288.141 405.108 287.083C404.7 286.025 404.504 284.897 404.532 283.763C404.56 282.63 404.81 281.512 405.27 280.476C405.302 280.403 405.335 280.332 405.369 280.26Z" fill="#EDD0D4"/>
<path d="M484.039 180.828C484.039 180.828 451.217 240.592 438.507 258.17L428.858 265.706L429.733 290.338L451.293 278.441C451.293 278.441 494.801 245.484 493.554 231.762C492.307 218.041 484.039 180.828 484.039 180.828Z" fill="#FFC83D"/>
<path d="M519.286 146.605C532.145 146.605 542.569 136.18 542.569 123.322C542.569 110.463 532.145 100.038 519.286 100.038C506.427 100.038 496.003 110.463 496.003 123.322C496.003 136.18 506.427 146.605 519.286 146.605Z" fill="#EDD0D4"/>
<path d="M528.283 144.696C521.601 144.477 520.995 142.712 514.313 142.493C512.186 142.423 509.675 142.132 508.647 140.268C507.914 138.941 508.251 137.269 508.896 135.897C509.658 134.588 510.346 133.236 510.954 131.848C511.321 130.76 511.417 129.599 511.234 128.465C511.052 127.331 510.596 126.259 509.906 125.341C509.216 124.423 508.313 123.687 507.275 123.196C506.237 122.706 505.095 122.475 503.947 122.525C501.914 122.613 500.005 123.569 497.977 123.743C495.196 123.983 489.047 114.802 490.327 112.322C491.574 109.908 494.082 108.086 494.476 105.398C494.734 103.64 494.008 101.893 493.909 100.119C493.762 97.4882 500.43 103.42 499.209 101.085C496.213 95.3582 524.443 88.2583 529.09 95.4318C530.827 98.1128 533.923 97.9299 536.682 99.5401C538.49 100.595 543.057 104.236 544.095 106.505C545.049 108.821 545.499 111.312 545.417 113.815C545.459 125.455 543.686 136.163 534.296 143.043" fill="#2F2E41"/>
<path d="M412.206 540.649C405.892 541.206 399.534 540.345 393.596 538.13C387.658 535.914 382.29 532.401 377.883 527.845C372.121 521.77 368.167 513.951 364.343 506.389C363.23 504.189 362.079 501.913 360.909 499.733C359.604 497.355 359.041 494.641 359.292 491.94C359.543 489.24 360.597 486.676 362.318 484.58C363.967 482.484 366.206 480.931 368.747 480.119C371.287 479.307 374.012 479.275 376.571 480.026L377.129 480.187L382.151 499.783C382.9 496.86 384.508 490.275 385.524 483.823L385.609 483.282L386.109 483.505C391.353 485.825 396.284 488.796 400.785 492.348C408.759 498.744 415.244 506.8 419.791 515.956C424.337 525.112 426.835 535.148 427.111 545.366L427.124 545.976L412.206 540.649Z" fill="#F2F2F2"/>
<path d="M603.886 547.285L360.184 547.554C359.909 547.553 359.645 547.443 359.45 547.248C359.256 547.053 359.146 546.789 359.146 546.513C359.146 546.237 359.256 545.973 359.45 545.778C359.645 545.583 359.909 545.473 360.184 545.472L603.886 545.203C604.023 545.203 604.158 545.23 604.285 545.282C604.412 545.334 604.527 545.411 604.624 545.507C604.721 545.604 604.798 545.719 604.85 545.845C604.903 545.972 604.93 546.107 604.93 546.244C604.93 546.381 604.903 546.517 604.85 546.643C604.798 546.77 604.721 546.885 604.624 546.982C604.527 547.078 604.412 547.155 604.285 547.207C604.158 547.259 604.023 547.286 603.886 547.285Z" fill="#31BD64"/>
<path d="M139.404 369.447C134.88 369.447 130.458 368.106 126.696 365.592C122.935 363.079 120.003 359.507 118.271 355.327C116.54 351.147 116.087 346.548 116.97 342.111C117.852 337.674 120.031 333.598 123.23 330.399C126.429 327.2 130.505 325.021 134.942 324.139C139.379 323.256 143.978 323.709 148.158 325.44C152.338 327.172 155.91 330.104 158.424 333.865C160.937 337.627 162.279 342.049 162.279 346.573C162.279 352.64 159.869 358.458 155.579 362.748C151.289 367.037 145.471 369.447 139.404 369.447V369.447Z" fill="#E6E6E6"/>
<path d="M148.429 344.317H141.66V337.548C141.659 336.95 141.421 336.377 140.997 335.955C140.574 335.533 140.001 335.296 139.404 335.296C138.806 335.296 138.233 335.533 137.81 335.955C137.387 336.377 137.148 336.95 137.147 337.548V344.317H130.378C129.78 344.318 129.207 344.557 128.785 344.98C128.363 345.403 128.126 345.976 128.126 346.573C128.126 347.171 128.363 347.744 128.785 348.167C129.207 348.59 129.78 348.829 130.378 348.83H137.147V355.599C137.148 356.197 137.387 356.769 137.81 357.192C138.233 357.614 138.806 357.851 139.404 357.851C140.001 357.851 140.574 357.614 140.997 357.192C141.421 356.769 141.659 356.197 141.66 355.599V348.83H148.429C148.726 348.83 149.02 348.773 149.294 348.659C149.568 348.546 149.817 348.38 150.027 348.171C150.237 347.961 150.404 347.712 150.518 347.438C150.631 347.164 150.69 346.87 150.69 346.573C150.69 346.277 150.631 345.983 150.518 345.709C150.404 345.435 150.237 345.186 150.027 344.976C149.817 344.767 149.568 344.601 149.294 344.488C149.02 344.374 148.726 344.317 148.429 344.317H148.429Z" fill="white"/>
<path d="M206.326 369.448C201.802 369.448 197.38 368.106 193.618 365.593C189.856 363.079 186.925 359.507 185.193 355.327C183.462 351.147 183.009 346.548 183.892 342.111C184.774 337.674 186.953 333.598 190.152 330.399C193.351 327.2 197.427 325.021 201.864 324.139C206.301 323.256 210.9 323.709 215.08 325.441C219.26 327.172 222.832 330.104 225.345 333.865C227.859 337.627 229.2 342.049 229.2 346.573C229.2 352.64 226.79 358.458 222.501 362.748C218.211 367.038 212.393 369.448 206.326 369.448V369.448Z" fill="#E6E6E6"/>
<path d="M215.352 344.317H197.301C196.703 344.318 196.13 344.556 195.708 344.979C195.286 345.402 195.049 345.976 195.049 346.573C195.049 347.171 195.286 347.744 195.708 348.167C196.13 348.59 196.703 348.829 197.301 348.83H215.352C215.95 348.83 216.524 348.592 216.947 348.169C217.371 347.746 217.608 347.172 217.608 346.573C217.608 345.975 217.371 345.401 216.947 344.978C216.524 344.555 215.95 344.317 215.352 344.317V344.317Z" fill="white"/>
<path d="M273.249 369.447C268.725 369.447 264.303 368.106 260.541 365.592C256.779 363.079 253.847 359.507 252.116 355.327C250.385 351.147 249.932 346.548 250.815 342.111C251.697 337.674 253.876 333.598 257.075 330.399C260.274 327.2 264.349 325.021 268.787 324.139C273.224 323.256 277.823 323.709 282.003 325.44C286.182 327.172 289.755 330.104 292.268 333.865C294.782 337.627 296.123 342.049 296.123 346.573C296.123 352.64 293.713 358.458 289.424 362.748C285.134 367.037 279.316 369.447 273.249 369.447Z" fill="#E6E6E6"/>
<path d="M286.117 345.487L279.633 336.022C279.49 335.813 279.307 335.635 279.096 335.497C278.884 335.359 278.648 335.265 278.399 335.218C278.151 335.172 277.896 335.175 277.649 335.227C277.402 335.279 277.167 335.379 276.959 335.522C276.751 335.665 276.573 335.847 276.435 336.059C276.297 336.271 276.202 336.507 276.156 336.755C276.109 337.004 276.112 337.259 276.164 337.506C276.216 337.753 276.317 337.987 276.46 338.196L280.653 344.317H264.223C263.927 344.317 263.633 344.375 263.36 344.489C263.086 344.602 262.837 344.768 262.628 344.978C262.418 345.187 262.252 345.436 262.139 345.71C262.025 345.984 261.967 346.277 261.967 346.573C261.967 346.87 262.025 347.163 262.139 347.437C262.252 347.711 262.418 347.959 262.628 348.169C262.837 348.378 263.086 348.545 263.36 348.658C263.633 348.771 263.927 348.83 264.223 348.83H280.86L276.46 355.252C276.171 355.673 276.062 356.191 276.156 356.693C276.249 357.194 276.538 357.638 276.959 357.926C277.38 358.214 277.898 358.324 278.399 358.23C278.901 358.136 279.344 357.847 279.633 357.426L286.117 347.961C286.328 347.583 286.439 347.157 286.439 346.724C286.439 346.291 286.328 345.865 286.117 345.487V345.487Z" fill="white"/>
<path d="M206.326 48.5742C219.74 48.5742 230.613 37.7005 230.613 24.2871C230.613 10.8737 219.74 0 206.326 0C192.913 0 182.039 10.8737 182.039 24.2871C182.039 37.7005 192.913 48.5742 206.326 48.5742Z" fill="#6C63FF"/>
<path d="M203.013 36.9273C202.593 36.9273 202.18 36.8297 201.805 36.6421C201.43 36.4545 201.103 36.1821 200.852 35.8465L194.226 27.0118C194.012 26.7281 193.857 26.405 193.768 26.061C193.679 25.7171 193.66 25.359 193.709 25.0073C193.759 24.6557 193.878 24.3173 194.059 24.0116C194.24 23.7059 194.479 23.4389 194.763 23.2258C195.047 23.0127 195.371 22.8577 195.715 22.7697C196.059 22.6817 196.417 22.6625 196.769 22.713C197.12 22.7636 197.458 22.883 197.764 23.0644C198.069 23.2458 198.336 23.4856 198.548 23.7701L202.883 29.5495L214.017 12.8494C214.213 12.5538 214.466 12.2999 214.761 12.1022C215.056 11.9045 215.387 11.7668 215.735 11.697C216.083 11.6272 216.442 11.6267 216.79 11.6955C217.138 11.7643 217.469 11.9011 217.765 12.098C218.06 12.2949 218.314 12.5481 218.511 12.8431C218.709 13.1381 218.846 13.4692 218.916 13.8173C218.985 14.1654 218.985 14.5238 218.916 14.872C218.847 15.2202 218.71 15.5514 218.513 15.8466L205.261 35.7243C205.021 36.0838 204.699 36.3805 204.321 36.5897C203.943 36.7989 203.52 36.9144 203.088 36.9265C203.063 36.9269 203.038 36.9273 203.013 36.9273Z" fill="white"/>
</svg>
