<svg width="327" height="370" viewBox="0 0 327 370" fill="none" xmlns="http://www.w3.org/2000/svg">
<path d="M210.23 273.937C210.961 274.328 211.795 274.484 212.619 274.385C213.443 274.286 214.216 273.936 214.834 273.383C215.453 272.83 215.886 272.1 216.075 271.293C216.265 270.485 216.202 269.639 215.894 268.868C215.976 268.458 216.036 268.164 216.118 267.754C217.701 266.276 219.689 265.305 221.827 264.965C223.965 264.625 226.157 264.931 228.12 265.844C230.083 266.757 231.729 268.236 232.846 270.091C233.963 271.945 234.501 274.091 234.391 276.254C233.89 288.449 234.493 301.608 226.387 311.439C263.381 281.209 280.249 229.711 268.952 183.392C263.408 175.668 260.822 165.406 263.308 156.107C266.428 159.141 272.509 158.326 271.58 153.074C271.081 150.998 270.565 148.928 270.067 146.852C291.374 138.538 296.937 170.22 271.698 183.119C273.745 191.925 274.866 200.921 275.043 209.96C277.893 201.81 282.636 194.452 288.884 188.492C294.933 183.046 302.931 179.844 310.372 176.19C319.427 171.732 329.476 180.57 325.911 190.005C319.883 189.234 315.618 196.438 321.088 200.31C311.481 216.444 293.06 226.699 274.345 226.861C272.452 245.271 266.657 263.066 257.347 279.06C269.302 260.88 292.44 266.114 310.726 265.34C311.939 265.187 313.17 265.39 314.27 265.925C315.37 266.46 316.29 267.304 316.918 268.353C317.546 269.402 317.856 270.611 317.809 271.833C317.762 273.055 317.36 274.237 316.653 275.234C314.247 275.093 311.834 275.191 309.448 275.527C308.325 275.693 307.282 276.203 306.46 276.985C305.639 277.768 305.08 278.785 304.859 279.898C304.639 281.011 304.768 282.165 305.229 283.202C305.69 284.238 306.46 285.107 307.434 285.689C291.394 300.394 266.538 303.555 247.031 294.171C241.263 301.436 234.756 308.082 227.615 314.002L198.613 300.177C198.663 299.805 198.728 299.428 198.788 299.061C201.392 300.51 204.163 301.634 207.041 302.408C203.947 290.614 200.499 283.706 210.228 273.937H210.23Z" fill="#F2F2F2"/>
<path d="M158.983 246.036C158.453 246.674 157.739 247.134 156.939 247.353C156.139 247.572 155.291 247.539 154.51 247.26C153.728 246.981 153.052 246.469 152.572 245.792C152.091 245.116 151.831 244.308 151.825 243.478C151.594 243.13 151.428 242.879 151.197 242.531C149.174 241.76 146.967 241.61 144.858 242.102C142.749 242.593 140.835 243.703 139.362 245.289C137.888 246.876 136.922 248.866 136.586 251.005C136.251 253.144 136.562 255.334 137.48 257.296C142.544 268.401 146.95 280.815 158.165 286.863C112.501 272.82 77.4535 231.488 70.445 184.33C72.6653 175.085 71.1895 164.606 65.3795 156.932C63.6348 160.918 57.6953 162.457 56.5747 157.242C56.2535 155.132 55.9507 153.02 55.6292 150.91C32.7596 151.247 39.558 182.687 67.7989 185.113C69.2243 194.041 71.579 202.795 74.8247 211.233C69.1115 204.76 61.943 199.735 53.9089 196.572C46.2525 193.81 37.6369 193.861 29.3673 193.284C19.3002 192.57 13.3273 204.546 20.1878 211.939C25.4791 208.951 32.1466 214.015 28.5413 219.664C43.5243 230.982 64.4523 233.531 81.8469 226.623C90.544 242.958 102.623 257.253 117.279 268.554C99.3487 256.226 79.8945 269.802 62.6677 275.982C61.4864 276.298 60.4226 276.95 59.6061 277.861C58.7895 278.771 58.2555 279.899 58.0692 281.108C57.8829 282.316 58.0524 283.553 58.5569 284.667C59.0614 285.781 59.8792 286.724 60.9105 287.381C63.0851 286.342 65.3573 285.523 67.6939 284.934C68.796 284.665 69.9545 284.743 71.0104 285.158C72.0664 285.573 72.9682 286.304 73.5923 287.252C74.2163 288.199 74.532 289.316 74.4961 290.45C74.4602 291.584 74.0744 292.679 73.3917 293.586C93.794 301.154 118.006 294.706 132.533 278.657C140.614 283.21 149.147 286.911 157.994 289.699L179.639 265.956C179.453 265.631 179.25 265.306 179.056 264.989C177.191 267.312 175.048 269.399 172.676 271.201C171.092 259.111 171.679 251.413 158.984 246.035L158.983 246.036Z" fill="#F2F2F2"/>
<path d="M164.554 145.709C165.379 145.626 166.159 145.291 166.787 144.749C167.416 144.208 167.863 143.486 168.068 142.682C168.272 141.878 168.225 141.031 167.932 140.255C167.639 139.479 167.115 138.811 166.43 138.343C166.27 137.957 166.155 137.68 165.995 137.293C166.485 135.184 167.594 133.27 169.179 131.795C170.765 130.321 172.754 129.353 174.893 129.017C177.032 128.68 179.223 128.99 181.184 129.907C183.146 130.823 184.789 132.305 185.903 134.161C192.287 144.564 200.124 155.152 198.876 167.833C212.732 122.112 198.022 69.9558 162.818 37.804C153.91 34.4823 146.041 27.4054 142.92 18.2997C147.202 19.0791 151.796 15.0119 148.096 11.1697C146.524 9.72447 144.942 8.29411 143.371 6.84877C156.424 -11.9334 178.706 11.2655 164.946 36.0462C171.555 42.2148 177.502 49.0575 182.688 56.4626C180.509 48.1078 180.345 39.3552 182.209 30.9245C184.193 23.0308 189.048 15.9127 193.188 8.73069C198.218 -0.0184209 211.488 1.71561 213.789 11.5357C208.355 14.2561 208.832 22.6148 215.531 22.7791C216.552 41.529 206.978 60.3124 191.532 70.8825C200.225 87.2206 205.336 105.224 206.524 123.692C206.313 101.934 228.439 93.3791 243.187 82.541C244.108 81.7376 245.244 81.2198 246.455 81.0509C247.666 80.8819 248.9 81.0691 250.007 81.5895C251.114 82.11 252.045 82.9412 252.687 83.9818C253.329 85.0225 253.654 86.2275 253.623 87.4499C251.548 88.6739 249.599 90.1011 247.806 91.7103C246.967 92.4741 246.384 93.4787 246.139 94.5863C245.893 95.694 245.996 96.8505 246.434 97.8973C246.871 98.9442 247.621 99.8301 248.582 100.434C249.543 101.037 250.667 101.329 251.8 101.269C246.683 122.419 227.811 138.901 206.386 141.988C205.649 151.235 203.952 160.38 201.324 169.276L169.541 173.969C169.375 173.633 169.218 173.284 169.064 172.946C172.033 172.696 174.96 172.084 177.781 171.123C168.636 163.057 161.923 159.244 164.553 145.71L164.554 145.709Z" fill="#F2F2F2"/>
<path d="M196.52 135.518C182.05 135.518 174.202 133.75 171.461 129.976C169.042 126.645 170.663 122.251 172.541 117.164C173.89 113.507 175.42 109.362 175.42 105.26C175.42 85.308 185.536 75.1914 205.488 75.1914C215.415 75.1914 226.074 80.4647 234 89.2978C241.206 97.3279 244.796 106.939 243.849 115.665C243.073 122.822 239.741 127.529 233.365 130.478L232.992 130.651L232.886 130.254C232.336 128.2 231.404 126.267 230.139 124.557C230.016 127.241 229.34 129.871 228.152 132.281L228.084 132.418L227.937 132.46C220.721 134.516 212.156 135.073 205.501 135.328C202.262 135.454 199.268 135.518 196.52 135.518Z" fill="#2F2E41"/>
<path d="M200.464 163.317C199.909 161.687 198.974 160.212 197.735 159.016C196.497 157.82 194.991 156.936 193.342 156.438C191.694 155.94 189.95 155.843 188.257 156.154C186.563 156.465 184.968 157.175 183.604 158.226L136.008 186.682L121.115 150.342C122.373 148.496 123.014 146.3 122.946 144.067C122.879 141.834 122.106 139.68 120.739 137.914C119.371 136.147 117.48 134.86 115.335 134.235C113.19 133.61 110.903 133.681 108.801 134.436C106.699 135.192 104.89 136.594 103.634 138.441C102.378 140.288 101.739 142.485 101.809 144.718C101.879 146.951 102.655 149.104 104.024 150.869C105.393 152.633 107.286 153.919 109.432 154.541C110.35 165.021 115.451 211.859 133.198 210.156C148.116 208.725 185.162 184.053 196.668 175.499C198.509 174.132 199.868 172.215 200.551 170.026C201.233 167.837 201.202 165.488 200.464 163.317Z" fill="#FFB6B6"/>
<path d="M236.331 370H194.905L187.958 335.653L185.705 370H147.224C147.239 343.027 148.644 316.072 151.434 289.244L151.911 287.619L152.664 285.02L153.141 283.389L161.104 256.044L161.733 253.874H209.684C212.443 256.465 214.988 259.276 217.294 262.279C218.075 263.274 218.891 264.353 219.727 265.514C220.308 266.336 220.909 267.2 221.511 268.106C226.854 276.06 230.847 284.841 233.331 294.096V294.103C233.752 295.686 234.126 297.306 234.45 298.962V298.969C234.741 300.442 234.996 301.935 235.197 303.462C235.349 304.575 235.48 305.702 235.577 306.842C236.153 313.161 235.951 319.526 234.976 325.796L236.331 370Z" fill="#2F2E41"/>
<path d="M16.6939 55.9348C19.3841 54.8934 20.9777 52.5321 20.2533 50.6606C19.5288 48.7891 16.7606 48.1162 14.0704 49.1576C11.3801 50.1989 9.78651 52.5603 10.511 54.4318C11.2354 56.3033 14.0036 56.9762 16.6939 55.9348Z" fill="#E6E6E6"/>
<path d="M50.5662 51.5896C53.2565 50.5482 54.8501 48.1869 54.1256 46.3154C53.4011 44.4439 50.633 43.771 47.9427 44.8124C45.2524 45.8537 43.6588 48.2151 44.3833 50.0866C45.1078 51.958 47.8759 52.631 50.5662 51.5896Z" fill="#3F3D56"/>
<path d="M13.7559 84.8337C16.4462 83.7923 18.0398 81.431 17.3153 79.5595C16.5909 77.688 13.8227 77.0151 11.1324 78.0565C8.44213 79.0979 6.84852 81.4592 7.57299 83.3307C8.29745 85.2022 11.0656 85.8751 13.7559 84.8337Z" fill="#FF6584"/>
<path d="M3.95692 97.5812C5.19113 97.2891 5.85123 95.614 5.43128 93.8399C5.01133 92.0657 3.67035 90.8643 2.43614 91.1564C1.20194 91.4485 0.541855 93.1235 0.961806 94.8977C1.38176 96.6719 2.72272 97.8733 3.95692 97.5812Z" fill="#E6E6E6"/>
<path d="M3.75538 119.163C4.98958 118.871 5.64968 117.196 5.22976 115.421C4.80984 113.647 3.46892 112.446 2.23472 112.738C1.00051 113.03 0.340412 114.705 0.76033 116.479C1.18025 118.253 2.52118 119.455 3.75538 119.163Z" fill="#3F3D56"/>
<path d="M33.4845 74.462C34.7187 74.1699 35.3788 72.4949 34.9588 70.7207C34.5389 68.9465 33.1979 67.7451 31.9637 68.0372C30.7295 68.3293 30.0694 70.0044 30.4894 71.7785C30.9093 73.5527 32.2503 74.7541 33.4845 74.462Z" fill="#E6E6E6"/>
<path d="M15.6446 70.1296C16.8788 69.8375 17.5389 68.1625 17.119 66.3883C16.699 64.6141 15.3581 63.4127 14.1239 63.7048C12.8897 63.9969 12.2296 65.672 12.6495 67.4462C13.0694 69.2203 14.4104 70.4218 15.6446 70.1296Z" fill="#FF6584"/>
<path d="M34.5536 50.2565C35.7878 49.9644 36.4479 48.2893 36.0279 46.5151C35.608 44.741 34.267 43.5396 33.0328 43.8317C31.7986 44.1238 31.1385 45.7988 31.5585 47.573C31.9784 49.3471 33.3194 50.5486 34.5536 50.2565Z" fill="#3F3D56"/>
<path d="M43.3478 199.629C44.6486 198.101 43.9223 195.346 41.7255 193.476C39.5288 191.606 36.6935 191.329 35.3927 192.858C34.092 194.386 34.8183 197.14 37.015 199.01C39.2117 200.88 42.047 201.157 43.3478 199.629Z" fill="#E6E6E6"/>
<path d="M23.3983 171.911C24.6991 170.383 23.9728 167.629 21.7761 165.759C19.5793 163.889 16.7441 163.612 15.4433 165.14C14.1425 166.668 14.8688 169.423 17.0655 171.293C19.2623 173.163 22.0976 173.44 23.3983 171.911Z" fill="#3F3D56"/>
<path d="M70.1592 188.452C71.46 186.924 70.7337 184.169 68.5369 182.299C66.3402 180.43 63.5049 180.153 62.2041 181.681C60.9034 183.209 61.6297 185.963 63.8264 187.833C66.0231 189.703 68.8584 189.98 70.1592 188.452Z" fill="#FF6584"/>
<path d="M83.4786 188.758C84.8388 187.544 85.2568 185.793 84.4123 184.847C83.5677 183.9 81.7805 184.118 80.4203 185.332C79.0602 186.546 78.6421 188.297 79.4867 189.243C80.3312 190.189 82.1185 189.972 83.4786 188.758Z" fill="#E6E6E6"/>
<path d="M102.553 178.659C103.914 177.445 104.332 175.694 103.487 174.748C102.643 173.802 100.855 174.019 99.4951 175.233C98.1349 176.447 97.7169 178.198 98.5614 179.144C99.406 180.09 101.193 179.873 102.553 178.659Z" fill="#3F3D56"/>
<path d="M49.0891 173.801C50.4493 172.587 50.8673 170.836 50.0228 169.889C49.1782 168.943 47.3909 169.16 46.0307 170.374C44.6705 171.588 44.2525 173.34 45.0971 174.286C45.9416 175.232 47.7289 175.015 49.0891 173.801Z" fill="#E6E6E6"/>
<path d="M53.7737 191.551C55.1339 190.337 55.5519 188.586 54.7074 187.64C53.8628 186.694 52.0755 186.911 50.7153 188.125C49.3551 189.339 48.9371 191.09 49.7816 192.036C50.6262 192.983 52.4135 192.765 53.7737 191.551Z" fill="#FF6584"/>
<path d="M27.2947 184.386C28.6549 183.172 29.0729 181.421 28.2283 180.475C27.3838 179.528 25.5965 179.745 24.2363 180.96C22.8761 182.174 22.4581 183.925 23.3026 184.871C24.1472 185.817 25.9345 185.6 27.2947 184.386Z" fill="#3F3D56"/>
<path d="M177.367 21.8587C179.168 20.973 179.596 18.1565 178.323 15.5679C177.05 12.9792 174.558 11.5986 172.757 12.4843C170.956 13.3699 170.528 16.1864 171.802 18.7751C173.075 21.3637 175.566 22.7443 177.367 21.8587Z" fill="#E6E6E6"/>
<path d="M184.663 55.2203C186.464 54.3347 186.892 51.5182 185.619 48.9295C184.346 46.3408 181.854 44.9603 180.053 45.8459C178.252 46.7315 177.825 49.548 179.098 52.1367C180.371 54.7253 182.863 56.1059 184.663 55.2203Z" fill="#3F3D56"/>
<path d="M148.322 21.4644C150.123 20.5788 150.551 17.7623 149.278 15.1736C148.005 12.585 145.513 11.2044 143.712 12.09C141.911 12.9756 141.483 15.7921 142.756 18.3808C144.029 20.9695 146.521 22.35 148.322 21.4644Z" fill="#FF6584"/>
<path d="M133.055 10.877C134.786 10.3032 135.865 8.86218 135.466 7.65832C135.067 6.45446 133.341 5.94365 131.61 6.51743C129.879 7.0912 128.8 8.53228 129.199 9.73614C129.598 10.94 131.325 11.4508 133.055 10.877Z" fill="#E6E6E6"/>
<path d="M111.539 12.5674C113.269 11.9936 114.349 10.5526 113.95 9.34873C113.55 8.14487 111.824 7.63409 110.093 8.20785C108.363 8.78162 107.284 10.2227 107.683 11.4265C108.082 12.6304 109.808 13.1412 111.539 12.5674Z" fill="#3F3D56"/>
<path d="M158.673 38.2652C160.404 37.6914 161.483 36.2504 161.084 35.0465C160.685 33.8426 158.958 33.3318 157.228 33.9056C155.497 34.4794 154.418 35.9205 154.817 37.1243C155.216 38.3282 156.943 38.839 158.673 38.2652Z" fill="#E6E6E6"/>
<path d="M161.425 20.1146C163.156 19.5409 164.235 18.0998 163.836 16.896C163.437 15.6921 161.71 15.1813 159.98 15.7551C158.249 16.3288 157.17 17.7699 157.569 18.9737C157.968 20.1776 159.695 20.6884 161.425 20.1146Z" fill="#FF6584"/>
<path d="M182.879 37.2096C184.609 36.6358 185.689 35.1947 185.29 33.9909C184.89 32.787 183.164 32.2762 181.433 32.85C179.703 33.4238 178.623 34.8648 179.023 36.0687C179.422 37.2725 181.148 37.7833 182.879 37.2096Z" fill="#3F3D56"/>
<path d="M189.522 141.073L212.344 139.897L222.944 156.646C222.944 156.646 242.888 159.981 241.505 183.482C240.123 206.984 217.239 227.607 217.239 227.607L218.217 239.846L216.518 244.7L216.736 247.426L219.054 250.312L219.293 253.298L217.239 258.021L220.032 262.544L161.323 256.856L159.176 249.035L162.308 244.836L160.558 239.358L163.188 234.089L164.56 217.354C164.56 217.354 149.557 194.815 166.78 177.839L173.692 166.088L181.426 156.652L189.522 141.073Z" fill="#FA7228"/>
<path d="M200.867 136.343C214.223 136.343 225.049 125.516 225.049 112.161C225.049 98.8056 214.223 87.979 200.867 87.979C187.512 87.979 176.685 98.8056 176.685 112.161C176.685 125.516 187.512 136.343 200.867 136.343Z" fill="#FFB6B6"/>
<path d="M197.629 110.695C195.545 110.695 193.463 110.637 191.381 110.519L191.009 110.498L191.058 110.129C191.365 107.821 191.192 105.474 190.551 103.236C189.463 105.784 187.843 108.072 185.8 109.945L185.685 110.051L185.53 110.034C179.877 109.416 174.275 108.394 168.767 106.977L168.556 106.923L168.514 106.71C168.103 104.69 167.89 102.634 167.878 100.573C167.878 94.1336 170.213 88.7138 174.452 85.312C179.066 81.6091 185.681 80.4703 193.084 82.1036H216.755C219.357 82.1065 221.852 83.1416 223.692 84.9817C225.532 86.8218 226.568 89.3168 226.57 91.9191V106.909L226.312 106.977C216.95 109.437 207.31 110.687 197.629 110.695Z" fill="#2F2E41"/>
<path d="M32.6243 83.797C31.5646 84.1845 30.7019 84.9766 30.2255 85.9994C29.7491 87.0222 29.6979 88.1922 30.0831 89.2528L55.6193 159.322C56.0068 160.381 56.7989 161.244 57.8217 161.721C58.8444 162.197 60.0145 162.248 61.075 161.863L160.185 125.743C161.245 125.355 162.108 124.563 162.584 123.54C163.061 122.518 163.112 121.348 162.727 120.287L137.19 50.2182C136.803 49.1585 136.011 48.2958 134.988 47.8194C133.965 47.3429 132.795 47.2917 131.735 47.6768L32.6243 83.797Z" fill="#CCCCCC"/>
<path d="M123.298 135.323L62.6327 157.432C61.4912 157.847 60.232 157.791 59.1312 157.279C58.0304 156.766 57.1779 155.837 56.7608 154.697L33.5997 91.145C33.1851 90.0035 33.2403 88.7443 33.753 87.6434C34.2657 86.5426 35.1942 85.6901 36.3347 85.273L129.845 51.1939C130.986 50.7794 132.245 50.8345 133.346 51.3473C134.447 51.8601 135.299 52.7886 135.717 53.9291L146.908 84.6368C150.486 94.4896 150.01 105.359 145.584 114.862C141.158 124.364 133.143 131.722 123.298 135.323Z" fill="white"/>
<path d="M79.6464 89.4123L65.2302 94.6662C65.0494 94.7321 64.8574 94.7617 64.6651 94.7534C64.4729 94.7451 64.2842 94.699 64.1097 94.6177C63.9353 94.5365 63.7786 94.4217 63.6486 94.2799C63.5185 94.1381 63.4176 93.972 63.3518 93.7912C63.2859 93.6104 63.2562 93.4184 63.2646 93.2262C63.2729 93.034 63.319 92.8452 63.4002 92.6708C63.4815 92.4964 63.5963 92.3397 63.7381 92.2096C63.8799 92.0796 64.0459 91.9787 64.2267 91.9128L78.643 86.6589C79.0081 86.5258 79.4111 86.5433 79.7634 86.7073C80.1156 86.8714 80.3883 87.1687 80.5214 87.5338C80.6545 87.899 80.637 88.302 80.4729 88.6543C80.3088 89.0065 80.0115 89.2792 79.6464 89.4123H79.6464Z" fill="#31BD64"/>
<path d="M114.015 83.2653L67.282 100.297C67.1012 100.363 66.9091 100.393 66.7167 100.385C66.5243 100.376 66.3354 100.33 66.1607 100.249C65.9861 100.168 65.8292 100.053 65.699 99.9114C65.5688 99.7695 65.4679 99.6033 65.4019 99.4224C65.336 99.2414 65.3064 99.0493 65.3147 98.8569C65.3231 98.6645 65.3693 98.4757 65.4508 98.3011C65.5322 98.1266 65.6472 97.9699 65.7892 97.8398C65.9313 97.7098 66.0976 97.6091 66.2786 97.5433L113.011 80.5119C113.192 80.446 113.384 80.4163 113.576 80.4247C113.769 80.433 113.957 80.4791 114.132 80.5603C114.306 80.6416 114.463 80.7564 114.593 80.8982C114.723 81.04 114.824 81.206 114.89 81.3868C114.956 81.5676 114.985 81.7596 114.977 81.9519C114.969 82.1441 114.923 82.3328 114.841 82.5072C114.76 82.6817 114.645 82.8384 114.503 82.9685C114.362 83.0985 114.196 83.1994 114.015 83.2653Z" fill="#31BD64"/>
<path d="M116.37 89.7285L69.6374 106.76C69.4566 106.826 69.2646 106.856 69.0724 106.847C68.8801 106.839 68.6914 106.793 68.517 106.712C68.3425 106.63 68.1858 106.515 68.0558 106.374C67.9257 106.232 67.8249 106.066 67.759 105.885C67.6931 105.704 67.6635 105.512 67.6718 105.32C67.6801 105.128 67.7262 104.939 67.8074 104.765C67.8887 104.59 68.0035 104.433 68.1453 104.303C68.2871 104.173 68.4532 104.073 68.6339 104.007L115.367 86.9752C115.732 86.8426 116.134 86.8604 116.486 87.0246C116.838 87.1888 117.11 87.4859 117.243 87.8507C117.376 88.2156 117.359 88.6183 117.195 88.9703C117.032 89.3224 116.735 89.5951 116.37 89.7285Z" fill="#31BD64"/>
<path d="M118.726 96.1921L71.9931 113.224C71.8123 113.29 71.6201 113.32 71.4277 113.311C71.2353 113.303 71.0464 113.257 70.8718 113.176C70.6972 113.095 70.5403 112.98 70.4101 112.838C70.2799 112.696 70.1789 112.53 70.113 112.349C70.047 112.168 70.0174 111.976 70.0258 111.784C70.0342 111.591 70.0804 111.402 70.1618 111.228C70.2432 111.053 70.3583 110.897 70.5003 110.767C70.6423 110.637 70.8086 110.536 70.9896 110.47L117.722 93.4387C117.903 93.3728 118.095 93.3432 118.287 93.3515C118.48 93.3598 118.668 93.4059 118.843 93.4871C119.017 93.5684 119.174 93.6832 119.304 93.825C119.434 93.9668 119.535 94.1329 119.601 94.3137C119.667 94.4944 119.696 94.6864 119.688 94.8787C119.68 95.0709 119.634 95.2596 119.552 95.4341C119.471 95.6085 119.356 95.7652 119.214 95.8953C119.073 96.0253 118.907 96.1262 118.726 96.1921Z" fill="#31BD64"/>
<path d="M121.081 102.655L74.3486 119.686C73.9835 119.819 73.5804 119.802 73.2282 119.638C72.8759 119.474 72.6032 119.177 72.4702 118.811C72.3371 118.446 72.3545 118.043 72.5186 117.691C72.6827 117.339 72.98 117.066 73.3451 116.933L120.078 99.9016C120.259 99.8357 120.451 99.806 120.643 99.8144C120.835 99.8227 121.024 99.8688 121.198 99.95C121.373 100.031 121.529 100.146 121.66 100.288C121.79 100.43 121.89 100.596 121.956 100.777C122.022 100.957 122.052 101.149 122.044 101.342C122.035 101.534 121.989 101.723 121.908 101.897C121.827 102.071 121.712 102.228 121.57 102.358C121.428 102.488 121.262 102.589 121.081 102.655H121.081Z" fill="#31BD64"/>
<path d="M269.364 120.605L243.778 181.834C242.686 184.425 240.619 186.483 238.024 187.563C235.428 188.644 232.512 188.661 229.904 187.61C228.555 187.066 227.331 186.254 226.306 185.222C225.281 184.19 224.478 182.96 223.944 181.607C223.41 180.254 223.157 178.806 223.201 177.353C223.244 175.899 223.584 174.469 224.198 173.151L252.726 110.364L268.453 71.4812C267.094 70.1258 266.185 68.385 265.85 66.4951C265.515 64.6053 265.769 62.6581 266.579 60.9181C267.39 59.1781 268.716 57.7297 270.378 56.7696C272.039 55.8095 273.957 55.3843 275.869 55.5518C277.781 55.7192 279.595 56.4712 281.064 57.7056C282.534 58.94 283.588 60.5968 284.084 62.4512C284.579 64.3055 284.491 66.2673 283.833 68.0701C283.174 69.8729 281.977 71.4293 280.403 72.5278L269.364 120.605Z" fill="#FFB6B6"/>
</svg>
