<svg width="505" height="356" viewBox="0 0 505 356" fill="none" xmlns="http://www.w3.org/2000/svg">
<path d="M447.792 284.648C458.619 284.648 469.09 280.781 477.319 273.744C480.064 271.395 482.989 267.309 486.012 261.603C487.942 257.928 489.022 253.867 489.175 249.718C489.327 245.57 488.547 241.441 486.893 237.633C488.488 239.256 490.252 240.702 492.154 241.949L493.116 242.589L493.172 241.436C493.208 240.685 493.227 239.938 493.227 239.213C493.227 234.945 489.998 230.613 491.487 226.668C497.763 210.038 517.668 193.511 488.819 167.774C486.151 165.394 489.716 160.634 489.716 157.031C489.716 121.73 451.359 68.7743 425.682 93.0099C410.694 107.156 379.467 117.206 364.887 136.883L364.694 137.466L365.263 137.696C368.176 138.92 371.244 139.736 374.381 140.121C371.037 140.803 367.625 141.089 364.214 140.973L363.685 140.954L363.557 141.468C362.288 146.559 361.647 151.785 361.648 157.031L361.65 157.598C361.662 161.583 360.834 165.526 359.22 169.169C357.606 172.812 355.242 176.074 352.282 178.742C347.608 183.004 343.873 188.194 341.315 193.979C338.757 199.765 337.432 206.019 337.426 212.345C337.426 219.829 342.512 229.653 346.779 236.576C347.861 238.34 349.327 239.836 351.069 240.951C352.811 242.067 354.784 242.774 356.838 243.019C358.783 243.264 360.759 243.079 362.625 242.476C364.492 241.873 366.202 240.868 367.637 239.53C365.617 243.591 362.985 247.318 359.833 250.579L359.251 251.179L359.974 251.6C366.921 255.651 374.819 257.784 382.86 257.78L383.331 257.779C395.54 257.779 407.128 262.509 415.125 270.756C419.371 275.13 424.448 278.612 430.057 280.997C435.667 283.383 441.696 284.624 447.792 284.648Z" fill="#38AF78"/>
<path d="M463.813 355.82C464.01 355.82 464.2 355.749 464.348 355.62C464.497 355.491 464.594 355.313 464.621 355.118C464.656 354.874 468.056 330.351 465.003 297.759C462.182 267.659 453.125 224.304 425.995 188.698C425.93 188.613 425.848 188.541 425.756 188.487C425.663 188.433 425.56 188.397 425.454 188.383C425.347 188.368 425.239 188.375 425.135 188.403C425.031 188.43 424.934 188.478 424.849 188.543C424.763 188.608 424.691 188.689 424.637 188.782C424.584 188.875 424.548 188.977 424.534 189.084C424.52 189.19 424.527 189.298 424.554 189.402C424.582 189.506 424.629 189.603 424.695 189.689C451.591 224.987 460.575 268.024 463.375 297.911C466.412 330.314 463.038 354.646 463.003 354.888C462.987 355.004 462.996 355.122 463.029 355.234C463.062 355.346 463.119 355.45 463.196 355.539C463.273 355.627 463.368 355.698 463.474 355.746C463.581 355.795 463.696 355.82 463.813 355.82H463.813Z" fill="white"/>
<path d="M439.041 238.021C439.213 238.021 439.381 237.967 439.521 237.866C439.661 237.764 439.765 237.621 439.818 237.457C439.872 237.293 439.872 237.116 439.818 236.952C439.765 236.788 439.661 236.645 439.522 236.543C431.791 231.31 423.44 227.059 414.66 223.887C400.943 218.865 380.085 214.313 358.612 221.147C358.509 221.18 358.414 221.232 358.332 221.301C358.25 221.37 358.183 221.455 358.134 221.55C358.084 221.646 358.054 221.75 358.045 221.856C358.036 221.963 358.048 222.071 358.081 222.173C358.113 222.276 358.166 222.37 358.235 222.452C358.304 222.534 358.389 222.602 358.484 222.651C358.579 222.701 358.683 222.731 358.79 222.74C358.897 222.749 359.005 222.737 359.107 222.704C380.14 216.01 400.621 220.488 414.098 225.422C422.737 228.539 430.954 232.719 438.561 237.865C438.7 237.967 438.868 238.021 439.041 238.021Z" fill="white"/>
<path d="M110.367 284.648C121.194 284.648 131.666 280.781 139.894 273.744C142.64 271.395 145.564 267.31 148.588 261.604C150.517 257.928 151.597 253.867 151.75 249.719C151.902 245.57 151.123 241.441 149.468 237.633C151.063 239.256 152.827 240.702 154.73 241.949L155.691 242.589L155.747 241.436C155.783 240.685 155.802 239.938 155.802 239.213C155.802 234.945 152.573 230.613 154.062 226.668C160.338 210.038 180.243 193.511 151.395 167.775C148.726 165.394 152.291 160.634 152.291 157.031C152.291 121.73 102.398 60.6569 88.2569 93.01C70.8179 132.91 40.7727 128.642 27.4624 136.883L27.2694 137.466L27.8383 137.696C30.7514 138.92 33.8196 139.737 36.9559 140.121C33.6123 140.803 30.2 141.089 26.7894 140.973L26.2606 140.954L26.1318 141.468C24.8631 146.559 24.222 151.785 24.2228 157.031L24.2251 157.599C24.2369 161.583 23.4088 165.526 21.7948 169.169C20.1807 172.812 17.817 176.074 14.8576 178.743C10.1832 183.004 6.44792 188.194 3.89001 193.979C1.33209 199.765 0.00759888 206.02 0.000961304 212.345C0.000961304 219.829 5.08739 229.653 9.35446 236.576C10.4359 238.34 11.9026 239.836 13.6447 240.951C15.3867 242.067 17.3588 242.774 19.413 243.019C21.3587 243.264 23.3345 243.079 25.2007 242.476C27.0668 241.873 28.7776 240.868 30.2121 239.53C28.1924 243.591 25.5604 247.318 22.4084 250.579L21.8262 251.179L22.549 251.6C29.4958 255.651 37.3939 257.784 45.4355 257.78L45.9064 257.779C58.1151 257.779 69.7036 262.509 77.7003 270.756C81.9462 275.13 87.0227 278.612 92.6322 280.997C98.2417 283.383 104.271 284.624 110.367 284.648Z" fill="#38AF78"/>
<path d="M126.389 355.82C126.585 355.82 126.775 355.749 126.924 355.62C127.072 355.491 127.169 355.313 127.197 355.118C127.231 354.874 130.632 330.351 127.578 297.759C124.757 267.659 115.701 224.304 88.5697 188.698C88.5047 188.613 88.4235 188.541 88.3308 188.487C88.238 188.433 88.1354 188.397 88.029 188.383C87.9226 188.368 87.8144 188.375 87.7105 188.403C87.6067 188.43 87.5093 188.478 87.4238 188.543C87.3384 188.608 87.2667 188.689 87.2127 188.782C87.1587 188.875 87.1236 188.977 87.1093 189.084C87.095 189.19 87.1018 189.298 87.1293 189.402C87.1569 189.506 87.2046 189.603 87.2699 189.689C114.166 224.987 123.15 268.024 125.951 297.911C128.987 330.314 125.613 354.646 125.579 354.888C125.562 355.004 125.571 355.122 125.604 355.234C125.637 355.346 125.694 355.45 125.771 355.539C125.848 355.627 125.943 355.698 126.049 355.746C126.156 355.795 126.272 355.82 126.389 355.82Z" fill="white"/>
<path d="M103.858 239.703C104.031 239.703 104.199 239.649 104.339 239.547C104.478 239.446 104.582 239.303 104.636 239.139C104.689 238.975 104.689 238.798 104.636 238.634C104.583 238.469 104.479 238.326 104.339 238.225C96.6084 232.992 88.257 228.741 79.4772 225.569C65.7605 220.547 44.9022 215.994 23.4289 222.829C23.3266 222.861 23.2318 222.914 23.1498 222.983C23.0678 223.052 23.0002 223.137 22.9509 223.232C22.9016 223.327 22.8716 223.431 22.8626 223.538C22.8535 223.645 22.8656 223.753 22.8981 223.855C22.9306 223.957 22.983 224.052 23.0522 224.134C23.1214 224.216 23.206 224.284 23.3013 224.333C23.3966 224.382 23.5007 224.412 23.6076 224.421C23.7145 224.43 23.8221 224.418 23.9244 224.386C44.9577 217.692 65.438 222.169 78.9153 227.104C87.554 230.221 95.7714 234.401 103.378 239.547C103.518 239.648 103.686 239.703 103.858 239.703Z" fill="white"/>
<path d="M141.256 146.561C141.268 146.389 141.226 146.217 141.135 146.07C141.044 145.924 140.909 145.81 140.749 145.744C140.589 145.679 140.413 145.667 140.245 145.708C140.077 145.749 139.927 145.842 139.816 145.974C134.04 153.308 129.198 161.332 125.402 169.86C119.406 183.18 113.363 203.656 118.633 225.566C118.658 225.67 118.703 225.769 118.767 225.855C118.83 225.942 118.909 226.016 119.001 226.072C119.092 226.128 119.194 226.166 119.3 226.182C119.406 226.199 119.514 226.195 119.619 226.17C119.723 226.145 119.821 226.099 119.908 226.036C119.995 225.973 120.069 225.893 120.125 225.802C120.181 225.71 120.218 225.608 120.235 225.502C120.251 225.396 120.247 225.288 120.222 225.184C115.06 203.723 121.001 183.618 126.893 170.531C130.624 162.14 135.385 154.245 141.065 147.028C141.177 146.896 141.243 146.733 141.256 146.561Z" fill="white"/>
<path d="M476.999 141.516C477.011 141.344 476.969 141.172 476.878 141.026C476.787 140.879 476.652 140.765 476.492 140.7C476.332 140.635 476.156 140.622 475.988 140.663C475.821 140.705 475.67 140.798 475.559 140.93C469.783 148.264 464.942 156.287 461.146 164.816C455.149 178.135 449.106 198.612 454.376 220.521C454.401 220.626 454.447 220.724 454.51 220.811C454.573 220.898 454.652 220.971 454.744 221.028C454.835 221.084 454.937 221.121 455.043 221.138C455.149 221.155 455.257 221.15 455.362 221.125C455.466 221.1 455.565 221.055 455.651 220.992C455.738 220.928 455.812 220.849 455.868 220.757C455.924 220.666 455.961 220.564 455.978 220.458C455.994 220.352 455.99 220.244 455.965 220.139C450.803 198.678 456.744 178.574 462.636 165.487C466.367 157.095 471.128 149.2 476.809 141.983C476.92 141.852 476.986 141.688 476.999 141.516Z" fill="white"/>
<path d="M251.466 58.914C252.441 57.9144 253.64 57.1617 254.965 56.7184C256.289 56.2751 257.699 56.154 259.08 56.3651C260.46 56.5762 261.77 57.1134 262.901 57.9322C264.032 58.7509 264.952 59.8276 265.583 61.0729C278.878 70.3255 287.307 82.7232 290.486 98.5137L314.072 77.1147C313.795 75.3246 314.093 73.4929 314.921 71.8823C315.75 70.2718 317.068 68.965 318.685 68.1495C320.302 67.3341 322.136 67.0517 323.924 67.343C325.712 67.6344 327.361 68.4844 328.636 69.7711C329.911 71.0579 330.745 72.7154 331.02 74.5057C331.295 76.2961 330.995 78.1275 330.165 79.7371C329.334 81.3468 328.015 82.652 326.397 83.4657C324.778 84.2793 322.944 84.5596 321.157 84.2662C316.827 91.6157 296.744 124.116 284.349 116.675C273.93 110.421 255.428 79.4324 249.992 69.1549C249.122 67.5117 248.796 65.6347 249.061 63.7943C249.326 61.9539 250.168 60.2451 251.466 58.914Z" fill="#EDD0D4"/>
<path d="M250.712 73.1055C249.528 69.8954 248.579 66.3569 249.606 63.0931C250.735 59.5036 254.205 56.9334 257.916 56.3082C261.627 55.683 265.483 56.8019 268.674 58.7972C271.864 60.7925 274.459 63.6106 276.764 66.5849L276.146 65.6021C279.147 69.5338 282.148 73.4654 285.149 77.397C277.532 82.6889 269.916 87.9808 262.299 93.2727C257.334 87.2466 253.417 80.4294 250.712 73.1055Z" fill="#FFC83D"/>
<path d="M283.561 343.925L294.471 343.924L299.661 301.841L283.559 301.842L283.561 343.925Z" fill="#EDD0D4"/>
<path d="M283.177 355.306L316.728 355.305V354.881C316.727 351.417 315.351 348.096 312.902 345.647C310.454 343.198 307.132 341.822 303.669 341.822H303.668L297.54 337.173L286.106 341.823L283.177 341.823L283.177 355.306Z" fill="#2F2E41"/>
<path d="M123.523 188.986L118.943 198.888L154.958 221.267L161.718 206.652L123.523 188.986Z" fill="#EDD0D4"/>
<path d="M113.354 183.859L99.2697 214.31L99.6548 214.488C102.798 215.942 106.39 216.087 109.641 214.893C112.892 213.698 115.535 211.262 116.989 208.118L116.989 208.118L123.782 204.508L124.362 192.178L125.592 189.52L113.354 183.859Z" fill="#2F2E41"/>
<path d="M365.005 21.1237C362.764 20.4512 361.327 18.6426 361.795 17.084C362.263 15.5254 364.459 14.8071 366.699 15.4796C368.94 16.1521 370.377 17.9608 369.909 19.5194C369.441 21.0779 367.245 21.7963 365.005 21.1237Z" fill="#E6E6E6"/>
<path d="M337.347 19.7438C335.106 19.0713 333.669 17.2627 334.137 15.7041C334.605 14.1455 336.8 13.4272 339.041 14.0997C341.281 14.7722 342.718 16.5809 342.251 18.1395C341.783 19.698 339.587 20.4164 337.347 19.7438Z" fill="#3F3D56"/>
<path d="M369.2 44.3014C366.96 43.6289 365.523 41.8203 365.991 40.2617C366.458 38.7031 368.654 37.9848 370.894 38.6573C373.135 39.3298 374.572 41.1385 374.104 42.6971C373.636 44.2557 371.441 44.974 369.2 44.3014Z" fill="#FF6584"/>
<path d="M377.923 53.9902C376.907 53.8318 376.268 52.5192 376.496 51.0584C376.723 49.5977 377.732 48.542 378.748 48.7004C379.764 48.8589 380.403 50.1715 380.175 51.6322C379.948 53.0929 378.939 54.1487 377.923 53.9902Z" fill="#E6E6E6"/>
<path d="M379.446 71.4248C378.429 71.2663 377.79 69.9537 378.018 68.493C378.246 67.0322 379.254 65.9765 380.27 66.135C381.287 66.2934 381.926 67.606 381.698 69.0668C381.47 70.5275 380.462 71.5832 379.446 71.4248Z" fill="#3F3D56"/>
<path d="M352.597 37.1587C351.581 37.0002 350.942 35.6876 351.169 34.2269C351.397 32.7662 352.406 31.7104 353.422 31.8689C354.438 32.0273 355.077 33.3399 354.849 34.8007C354.621 36.2614 353.613 37.3171 352.597 37.1587Z" fill="#E6E6E6"/>
<path d="M366.746 32.5332C365.73 32.3747 365.091 31.0621 365.319 29.6014C365.547 28.1406 366.555 27.0849 367.571 27.2434C368.587 27.4018 369.226 28.7144 368.999 30.1752C368.771 31.6359 367.763 32.6916 366.746 32.5332Z" fill="#FF6584"/>
<path d="M350.208 17.6577C349.192 17.4992 348.553 16.1866 348.781 14.7259C349.009 13.2651 350.017 12.2094 351.033 12.3679C352.049 12.5263 352.688 13.8389 352.461 15.2997C352.233 16.7604 351.224 17.8161 350.208 17.6577Z" fill="#3F3D56"/>
<path d="M195.464 295.863C193.149 295.526 191.462 293.948 191.697 292.337C191.931 290.727 193.998 289.695 196.312 290.031C198.627 290.368 200.314 291.947 200.08 293.557C199.845 295.167 197.779 296.2 195.464 295.863Z" fill="#E6E6E6"/>
<path d="M223.025 293.173C220.71 292.837 219.023 291.258 219.257 289.648C219.492 288.037 221.558 287.005 223.873 287.342C226.188 287.679 227.875 289.257 227.64 290.867C227.406 292.478 225.339 293.51 223.025 293.173Z" fill="#3F3D56"/>
<path d="M187.916 273.55C185.601 273.213 183.915 271.635 184.149 270.024C184.383 268.414 186.45 267.381 188.765 267.718C191.08 268.055 192.766 269.634 192.532 271.244C192.298 272.854 190.231 273.887 187.916 273.55Z" fill="#FF6584"/>
<path d="M178.675 264.767C177.646 264.759 176.822 263.555 176.833 262.076C176.844 260.598 177.687 259.406 178.715 259.414C179.743 259.421 180.568 260.626 180.557 262.105C180.546 263.583 179.703 264.775 178.675 264.767Z" fill="#E6E6E6"/>
<path d="M174.613 247.744C173.585 247.736 172.76 246.531 172.771 245.053C172.782 243.575 173.625 242.382 174.653 242.39C175.682 242.398 176.507 243.603 176.495 245.081C176.484 246.559 175.641 247.752 174.613 247.744Z" fill="#3F3D56"/>
<path d="M206.195 277.704C205.167 277.696 204.342 276.491 204.353 275.013C204.364 273.535 205.207 272.342 206.236 272.35C207.264 272.358 208.089 273.563 208.077 275.041C208.066 276.519 207.223 277.712 206.195 277.704Z" fill="#E6E6E6"/>
<path d="M192.877 284.354C191.848 284.346 191.024 283.141 191.035 281.663C191.046 280.184 191.889 278.992 192.917 279C193.946 279.008 194.77 280.213 194.759 281.691C194.748 283.169 193.905 284.361 192.877 284.354Z" fill="#FF6584"/>
<path d="M211.416 296.645C210.387 296.637 209.563 295.432 209.574 293.954C209.585 292.475 210.428 291.283 211.456 291.291C212.485 291.299 213.309 292.504 213.298 293.982C213.287 295.46 212.444 296.652 211.416 296.645Z" fill="#3F3D56"/>
<path d="M266.404 153.712L273.034 161.832C272.884 164.031 273.577 165.288 275.636 165.018C275.636 165.018 275.328 169.044 277.852 167.731C280.375 166.418 279.756 170.063 279.756 170.063L281.641 172.372C281.641 172.372 281.7 176.299 283.56 174.722C285.419 173.144 286.016 177.729 286.016 177.729L288.382 180.627L312.505 210.169L298.982 318.747L283.177 317.755L279.325 222.567C278.342 219.942 276.85 218.567 274.57 219.129C273.549 219.353 272.952 218.738 272.576 217.687L270.759 216.373L246.975 199.174L215.559 253.015L137.446 211.819L144.732 197.807L199.532 215.937L200.969 198.793C202.841 197.702 202.527 196.399 201.286 195.006L201.645 190.728C199.787 189.588 200.708 187.781 202.052 185.872C204.858 183.8 204.583 181.439 202.634 178.922C202.634 178.922 200.173 146.72 212.106 142.277C224.039 137.833 266.404 153.712 266.404 153.712Z" fill="#2F2E41"/>
<path d="M242.978 48.0103L257.955 48.7115L265.802 59.9216C271.265 71.9407 272.765 85.3855 270.085 98.3131L264.681 124.38L266.113 143.709C269.949 146.804 270.268 150.442 266.923 154.647C271.041 168.856 235.999 162.461 203.586 157.45C203.474 150.68 205.228 143.787 209.751 136.711L205.39 80.2361L221.522 61.0427L233.869 52.9114L242.978 48.0103Z" fill="#FFC83D"/>
<path d="M228.962 63.5002C230.16 64.2181 231.169 65.2113 231.906 66.3973C232.643 67.5833 233.086 68.9279 233.2 70.3197C233.313 71.7114 233.093 73.1101 232.557 74.3997C232.022 75.6893 231.186 76.8325 230.12 77.7346C228.313 89.4581 217.09 100.752 199.44 110.608L225.706 128.616C227.384 127.934 229.234 127.801 230.993 128.235C232.751 128.67 234.327 129.65 235.494 131.035C236.661 132.421 237.359 134.14 237.488 135.947C237.617 137.754 237.171 139.555 236.213 141.092C235.255 142.63 233.835 143.824 232.157 144.505C230.478 145.185 228.627 145.317 226.869 144.88C225.111 144.443 223.537 143.461 222.372 142.075C221.206 140.688 220.51 138.968 220.383 137.161C212.232 134.645 175.973 122.607 180.352 108.829C184.032 97.2483 209.912 72.0917 218.657 64.4301C220.055 63.2042 221.806 62.4536 223.658 62.2865C225.51 62.1194 227.367 62.5444 228.962 63.5002Z" fill="#EDD0D4"/>
<path d="M257.527 116.017C259.273 116.014 260.954 115.353 262.235 114.167C263.516 112.981 264.303 111.355 264.439 109.615L265.369 97.7573C265.513 95.9211 264.922 94.1029 263.725 92.7027C262.529 91.3025 260.825 90.435 258.989 90.2909L235.955 88.4846C234.119 88.3407 232.301 88.9321 230.901 90.1286C229.501 91.3252 228.633 93.0289 228.489 94.865L227.559 106.723C227.415 108.559 228.007 110.377 229.203 111.777C230.4 113.177 232.104 114.045 233.94 114.189L256.973 115.995C257.159 116.01 257.343 116.017 257.527 116.017Z" fill="#F2F2F2"/>
<path d="M254.211 45.1679C243.382 45.1679 234.603 36.3887 234.603 25.559C234.603 14.7294 243.382 5.9502 254.211 5.9502C265.041 5.9502 273.82 14.7294 273.82 25.559C273.82 36.3887 265.041 45.1679 254.211 45.1679Z" fill="#EDD0D4"/>
<path d="M233.837 13.0797C234.767 11.8734 235.83 10.7656 236.639 9.47568C237.418 8.23373 237.95 6.83966 238.828 5.66579C241.426 2.19394 246.255 1.48397 250.569 1.05158C253.418 0.766093 256.267 0.480601 259.115 0.195091C260.716 -0.0315413 262.339 -0.0608477 263.947 0.107846C265.477 0.345449 266.931 0.934019 268.195 1.82745C269.46 2.72087 270.5 3.8949 271.235 5.25756C272.069 6.83689 272.627 8.80523 274.254 9.54184C275.021 9.78368 275.802 9.97787 276.593 10.1233C277.362 10.3618 278.135 10.9761 278.106 11.7806C278.053 13.2704 275.425 14.1232 276.066 15.4689C276.632 16.6573 278.9 15.814 279.222 17.6081C279.265 17.867 279.254 18.1321 279.19 18.3865C279.125 18.6409 279.007 18.8789 278.845 19.0854C278.114 20.0222 276.913 20.2657 275.788 20.4724L277.786 23.3298C271.317 25.988 264.116 26.2676 257.46 24.1189C256.466 23.7897 255.406 23.7152 254.376 23.9022C253.346 24.0893 252.38 24.5319 251.565 25.1895C250.751 25.8471 250.115 26.6986 249.715 27.666C249.315 28.6334 249.165 29.6857 249.277 30.7264L249.286 30.8076C249.33 31.1214 249.287 31.441 249.163 31.7325C249.039 32.0241 248.839 32.2766 248.583 32.4632C247.569 33.1522 246.539 32.1855 246.079 31.229C245.612 30.256 245.301 29.0756 244.17 28.7346C243.708 28.6181 243.221 28.6546 242.782 28.8386C242.343 29.0226 241.975 29.3441 241.734 29.7549C240.854 31.136 241.216 32.7842 241.722 34.2458C242.893 37.6184 244.795 40.6908 247.292 43.2433C243.031 42.9615 244.278 43.3885 240.018 43.1068L238.83 43.2917C235.979 41.5132 234.566 38.1293 233.814 34.8544C232.109 27.4255 229.186 19.1177 233.837 13.0797Z" fill="#2F2E41"/>
<path d="M217.212 61.8953C220.043 59.9744 223.25 58.2031 226.665 58.4158C230.421 58.6499 233.75 61.4009 235.248 64.8527C236.746 68.3045 236.587 72.3168 235.416 75.8932C234.246 79.4696 232.134 82.6653 229.801 85.6175L230.606 84.7821C227.511 88.6398 224.415 92.4975 221.32 96.3551C214.353 90.2327 207.386 84.1103 200.419 77.9878C205.076 71.721 210.753 66.2811 217.212 61.8953Z" fill="#FFC83D"/>
<path d="M254.756 354.275L254.747 353.885C254.57 347.333 252.969 340.899 250.054 335.029C247.14 329.159 242.982 323.995 237.869 319.894C234.983 317.617 231.822 315.712 228.461 314.224L228.14 314.081L228.085 314.428C227.434 318.565 226.403 322.787 225.923 324.661L222.703 312.097L222.346 311.994C220.705 311.512 218.958 311.533 217.329 312.054C215.701 312.574 214.265 313.57 213.208 314.914C212.104 316.258 211.428 317.901 211.267 319.632C211.106 321.364 211.468 323.104 212.304 324.628C213.055 326.026 213.792 327.485 214.506 328.896C216.958 333.744 219.493 338.757 223.187 342.652C226.012 345.572 229.454 347.825 233.261 349.245C237.068 350.665 241.144 351.217 245.192 350.86L254.756 354.275Z" fill="#38AF78"/>
<path d="M326.995 56.1909C327.319 56.1909 327.638 56.2579 327.934 56.3877C328.23 56.5175 328.496 56.7072 328.715 56.945C328.934 57.1827 329.102 57.4633 329.207 57.769C329.312 58.0747 329.353 58.3989 329.326 58.721C326.938 69.9778 325.887 80.7123 326.696 90.7208C326.645 91.3048 326.378 91.8487 325.946 92.2458C325.515 92.643 324.951 92.8648 324.365 92.8679H309.277C308.69 92.8648 308.126 92.643 307.695 92.2458C307.264 91.8487 306.997 91.3048 306.946 90.7208C308.165 80.6255 306.876 69.8466 304.316 58.721C304.289 58.3989 304.33 58.0747 304.435 57.769C304.54 57.4633 304.707 57.1827 304.926 56.945C305.145 56.7072 305.411 56.5174 305.707 56.3877C306.004 56.2579 306.323 56.1909 306.647 56.1909H326.995Z" fill="#FA7228"/>
<path d="M303.107 60.4558L304.233 55.1086C304.335 54.6224 304.601 54.1861 304.987 53.873C305.373 53.5599 305.855 53.389 306.352 53.389H313.379C313.407 53.2957 313.452 53.2085 313.511 53.1317L314.292 52.1556C314.366 52.0636 314.459 51.9894 314.565 51.9384C314.671 51.8873 314.788 51.8608 314.905 51.8608H319.244C319.362 51.8608 319.479 51.8873 319.585 51.9384C319.691 51.9894 319.784 52.0636 319.858 52.1556L320.639 53.1317C320.698 53.2084 320.743 53.2957 320.771 53.389H327.289C327.786 53.389 328.267 53.5599 328.653 53.873C329.039 54.1861 329.306 54.6224 329.408 55.1086L330.534 60.4558C330.6 60.7711 330.595 61.0973 330.52 61.4106C330.444 61.7238 330.299 62.0163 330.096 62.2665C329.893 62.5168 329.637 62.7186 329.346 62.8572C329.055 62.9958 328.737 63.0677 328.414 63.0677C321.053 65.4002 313.324 65.4002 305.226 63.0677C304.904 63.0677 304.586 62.9958 304.295 62.8572C304.004 62.7186 303.747 62.5168 303.544 62.2665C303.341 62.0163 303.197 61.7239 303.121 61.4106C303.045 61.0973 303.04 60.7711 303.107 60.4558Z" fill="#2F2E41"/>
</svg>
