<svg width="351" height="219" viewBox="0 0 351 219" fill="none" xmlns="http://www.w3.org/2000/svg">
<path d="M271.677 97.8027H94.9338C90.6739 97.7979 86.5898 96.1036 83.5776 93.0914C80.5654 90.0791 78.871 85.9951 78.8662 81.7351V16.0676C78.8711 11.8077 80.5654 7.72365 83.5776 4.71144C86.5899 1.69923 90.6739 0.00484431 94.9338 0H271.677C275.937 0.00484247 280.021 1.69923 283.033 4.71144C286.046 7.72365 287.74 11.8077 287.745 16.0676V81.7351C287.74 85.9951 286.046 90.0791 283.034 93.0914C280.021 96.1036 275.937 97.7979 271.677 97.8027Z" fill="white"/>
<path d="M271.677 97.8027H94.9338C90.6739 97.7979 86.5898 96.1036 83.5776 93.0914C80.5654 90.0791 78.871 85.9951 78.8662 81.7351V16.0676C78.8711 11.8077 80.5654 7.72365 83.5776 4.71144C86.5899 1.69923 90.6739 0.00484431 94.9338 0H271.677C275.937 0.00484247 280.021 1.69923 283.033 4.71144C286.046 7.72365 287.74 11.8077 287.745 16.0676V81.7351C287.74 85.9951 286.046 90.0791 283.034 93.0914C280.021 96.1036 275.937 97.7979 271.677 97.8027ZM94.9338 1.39718C91.0443 1.40154 87.3154 2.94857 84.5651 5.69886C81.8148 8.44915 80.2678 12.1781 80.2634 16.0676V81.7351C80.2678 85.6246 81.8149 89.3535 84.5651 92.1038C87.3154 94.8541 91.0443 96.4011 94.9338 96.4055H271.677C275.567 96.4011 279.296 94.8541 282.046 92.1038C284.796 89.3535 286.343 85.6246 286.348 81.7351V16.0676C286.343 12.1781 284.796 8.44915 282.046 5.69886C279.296 2.94857 275.567 1.40154 271.677 1.39718H94.9338Z" fill="#3F3D56"/>
<path d="M338.555 106.74H244.546C243.953 106.733 243.362 106.658 242.786 106.517C241.066 106.104 239.536 105.122 238.443 103.731C237.35 102.34 236.758 100.622 236.764 98.8528V66.899C236.767 64.8089 237.599 62.8054 239.078 61.3282C240.556 59.8509 242.561 59.0205 244.651 59.0191H338.555C339.821 59.0157 341.069 59.3211 342.19 59.9087C342.636 60.1402 343.059 60.4157 343.45 60.7311C344.386 61.4634 345.142 62.3998 345.66 63.4687C346.179 64.5377 346.446 65.7109 346.442 66.899V98.8528C346.44 100.944 345.608 102.949 344.13 104.427C342.651 105.906 340.646 106.738 338.555 106.74Z" fill="white"/>
<path d="M332.255 106.041C336.523 95.6671 341.02 85.3955 345.745 75.2263V92.4676C342.523 97.369 338.795 101.919 334.623 106.041H332.255Z" fill="#E6E6E6"/>
<path d="M343.013 61.2753C334.567 76.4278 325.73 91.3497 316.501 106.041H314.895C324.277 91.1191 333.268 75.9481 341.867 60.5278C342.273 60.7382 342.657 60.9886 343.013 61.2753Z" fill="#E6E6E6"/>
<path d="M281.035 77.8182C275.515 87.5767 269.425 97.0007 262.794 106.041H253.217C259.49 98.3987 265.768 90.7561 272.051 83.1135C273.853 80.9129 275.809 78.6076 278.513 77.7134L281.035 77.8182Z" fill="#E6E6E6"/>
<path d="M268.306 76.2532C267.307 77.2941 266.35 78.3769 265.449 79.5017C263.465 81.8908 261.509 84.301 259.546 86.7041C258.323 88.1991 257.1 89.6941 255.892 91.1891C255.508 90.9426 255.144 90.667 254.802 90.3647C252.872 88.6893 251.675 86.3244 251.467 83.7769C251.259 81.2293 252.058 78.7018 253.691 76.7358C255.325 74.7698 257.663 73.5218 260.205 73.2593C262.748 72.9967 265.292 73.7404 267.293 75.3311C267.653 75.6123 267.992 75.9206 268.306 76.2532V76.2532Z" fill="#6C63FF"/>
<path d="M322.328 83.0433L303.969 76.3299L294.852 72.9976C291.883 71.9148 288.921 70.6783 285.855 69.8959C283.188 69.1336 280.356 69.1701 277.709 70.0006C275.349 70.874 273.189 72.2141 271.359 73.9407C270.548 74.6882 269.764 75.459 269.005 76.253C268.006 77.2939 267.048 78.3768 266.147 79.5015C264.163 81.8907 262.207 84.3008 260.244 86.704C259.022 88.1989 257.799 89.6939 256.591 91.1889C252.553 96.1279 248.538 101.079 244.547 106.041C244.01 106.035 243.476 105.967 242.954 105.838C247.118 100.669 251.3 95.5109 255.501 90.3646C255.983 89.7638 256.479 89.156 256.968 88.5552C259.015 86.0473 261.064 83.5417 263.115 81.0384C264.701 79.1033 266.273 77.1542 267.992 75.3309C268.145 75.1632 268.299 75.0026 268.46 74.8349C271.946 71.2302 276.298 68.0446 281.509 67.9608C284.576 67.9119 287.538 68.8829 290.388 69.9098C293.455 71.0206 296.515 72.1523 299.582 73.277L318.067 80.0394L322.691 81.73C323.509 82.0234 323.159 83.3507 322.328 83.0433Z" fill="#E6E6E6"/>
<path d="M338.555 106.74H244.546C243.953 106.733 243.362 106.658 242.786 106.517C241.066 106.104 239.536 105.122 238.443 103.731C237.35 102.34 236.758 100.622 236.764 98.8528V66.899C236.767 64.8089 237.599 62.8054 239.078 61.3282C240.556 59.8509 242.561 59.0205 244.651 59.0191H338.555C339.821 59.0157 341.069 59.3211 342.19 59.9087C342.636 60.1402 343.059 60.4157 343.45 60.7311C344.386 61.4634 345.142 62.3998 345.66 63.4687C346.179 64.5377 346.446 65.7109 346.442 66.899V98.8528C346.44 100.944 345.608 102.949 344.13 104.427C342.651 105.906 340.646 106.738 338.555 106.74ZM244.651 60.4163C242.931 60.4173 241.282 61.1004 240.065 62.3157C238.849 63.531 238.164 65.1793 238.161 66.899V98.8528C238.157 100.308 238.644 101.723 239.543 102.868C240.443 104.012 241.702 104.82 243.117 105.16C243.588 105.275 244.07 105.337 244.555 105.343H338.555C340.276 105.341 341.926 104.656 343.142 103.44C344.359 102.223 345.043 100.573 345.045 98.8528V66.899C345.048 65.9214 344.828 64.9559 344.401 64.0765C343.973 63.197 343.351 62.4268 342.581 61.8247C342.259 61.5654 341.913 61.3389 341.546 61.1486C340.624 60.6649 339.597 60.4135 338.555 60.4163H244.651Z" fill="#3F3D56"/>
<path d="M151.594 137.265H16.0676C11.8077 137.26 7.7236 135.566 4.71137 132.554C1.69915 129.541 0.00478527 125.457 0 121.197V97.4453C0.00484247 93.1854 1.69923 89.1013 4.71144 86.0891C7.72365 83.0769 11.8077 81.3825 16.0676 81.3777H151.594C155.854 81.3825 159.938 83.0769 162.95 86.0891C165.963 89.1013 167.657 93.1854 167.662 97.4453V121.197C167.657 125.457 165.963 129.541 162.95 132.554C159.938 135.566 155.854 137.26 151.594 137.265V137.265Z" fill="white"/>
<path d="M151.594 137.265H16.0676C11.8077 137.26 7.7236 135.566 4.71137 132.554C1.69915 129.541 0.00478527 125.457 0 121.197V97.4453C0.00484247 93.1854 1.69923 89.1013 4.71144 86.0891C7.72365 83.0769 11.8077 81.3825 16.0676 81.3777H151.594C155.854 81.3825 159.938 83.0769 162.95 86.0891C165.963 89.1013 167.657 93.1854 167.662 97.4453V121.197C167.657 125.457 165.963 129.541 162.95 132.554C159.938 135.566 155.854 137.26 151.594 137.265V137.265ZM16.0676 82.7749C12.1781 82.7792 8.44915 84.3263 5.69886 87.0765C2.94857 89.8268 1.40154 93.5558 1.39718 97.4453V121.197C1.4016 125.087 2.94865 128.816 5.69893 131.566C8.44921 134.316 12.1781 135.863 16.0676 135.868H151.594C155.484 135.863 159.213 134.316 161.963 131.566C164.713 128.816 166.26 125.087 166.265 121.197V97.4453C166.26 93.5558 164.713 89.8268 161.963 87.0765C159.213 84.3263 155.484 82.7792 151.594 82.7749H16.0676Z" fill="#3F3D56"/>
<path d="M55.8613 123.905H34.0734C32.9088 123.904 31.7922 123.44 30.9687 122.617C30.1452 121.793 29.682 120.677 29.6807 119.512V99.13C29.682 97.9654 30.1452 96.8489 30.9687 96.0253C31.7922 95.2018 32.9088 94.7386 34.0734 94.7373H55.8613C57.0259 94.7386 58.1425 95.2018 58.966 96.0253C59.7895 96.8489 60.2527 97.9654 60.254 99.13V119.512C60.2527 120.677 59.7895 121.793 58.966 122.617C58.1425 123.44 57.0259 123.904 55.8613 123.905Z" fill="#6C63FF"/>
<path d="M94.7255 123.905H72.9377C71.773 123.904 70.6565 123.44 69.8329 122.617C69.0094 121.793 68.5462 120.677 68.5449 119.512V99.13C68.5462 97.9654 69.0094 96.8489 69.8329 96.0253C70.6565 95.2018 71.773 94.7386 72.9377 94.7373H94.7255C95.8902 94.7386 97.0067 95.2018 97.8302 96.0253C98.6538 96.8489 99.117 97.9654 99.1183 99.13V119.512C99.117 120.677 98.6538 121.793 97.8302 122.617C97.0067 123.44 95.8902 123.904 94.7255 123.905V123.905Z" fill="#E6E6E6"/>
<path d="M133.589 123.905H111.801C110.636 123.904 109.52 123.44 108.696 122.617C107.873 121.793 107.409 120.677 107.408 119.512V99.13C107.409 97.9654 107.873 96.8489 108.696 96.0253C109.52 95.2018 110.636 94.7386 111.801 94.7373H133.589C134.753 94.7386 135.87 95.2018 136.694 96.0253C137.517 96.8489 137.98 97.9654 137.982 99.13V119.512C137.98 120.677 137.517 121.793 136.694 122.617C135.87 123.44 134.753 123.904 133.589 123.905V123.905Z" fill="#E6E6E6"/>
<path d="M191.924 38.7635H163.98C163.239 38.7635 162.528 38.4691 162.004 37.9451C161.48 37.421 161.186 36.7103 161.186 35.9692C161.186 35.2281 161.48 34.5173 162.004 33.9933C162.528 33.4692 163.239 33.1748 163.98 33.1748H191.924C192.665 33.1748 193.375 33.4692 193.899 33.9933C194.424 34.5173 194.718 35.2281 194.718 35.9692C194.718 36.7103 194.424 37.421 193.899 37.9451C193.375 38.4691 192.665 38.7635 191.924 38.7635Z" fill="#CCCCCC"/>
<path d="M252.002 54.1327H163.281C162.54 54.1327 161.829 53.8383 161.305 53.3142C160.781 52.7902 160.486 52.0794 160.486 51.3383C160.486 50.5972 160.781 49.8864 161.305 49.3624C161.829 48.8383 162.54 48.5439 163.281 48.5439H252.002C252.743 48.5439 253.454 48.8383 253.978 49.3624C254.502 49.8864 254.796 50.5972 254.796 51.3383C254.796 52.0794 254.502 52.7902 253.978 53.3142C253.454 53.8383 252.743 54.1327 252.002 54.1327Z" fill="#CCCCCC"/>
<path d="M130.793 62.3893C141.14 62.3893 149.528 54.0012 149.528 43.6539C149.528 33.3066 141.14 24.9185 130.793 24.9185C120.446 24.9185 112.058 33.3066 112.058 43.6539C112.058 54.0012 120.446 62.3893 130.793 62.3893Z" fill="#FFC83D"/>
<path d="M334.626 219H157.882C153.622 218.995 149.538 217.301 146.526 214.289C143.514 211.276 141.819 207.192 141.814 202.932V137.265C141.819 133.005 143.514 128.921 146.526 125.909C149.538 122.896 153.622 121.202 157.882 121.197H334.626C338.885 121.202 342.969 122.896 345.982 125.909C348.994 128.921 350.688 133.005 350.693 137.265V202.932C350.688 207.192 348.994 211.276 345.982 214.289C342.97 217.301 338.885 218.995 334.626 219V219Z" fill="white"/>
<path d="M334.626 219H157.882C153.622 218.995 149.538 217.301 146.526 214.289C143.514 211.276 141.819 207.192 141.814 202.932V137.265C141.819 133.005 143.514 128.921 146.526 125.909C149.538 122.896 153.622 121.202 157.882 121.197H334.626C338.885 121.202 342.969 122.896 345.982 125.909C348.994 128.921 350.688 133.005 350.693 137.265V202.932C350.688 207.192 348.994 211.276 345.982 214.289C342.97 217.301 338.885 218.995 334.626 219V219ZM157.882 122.594C153.993 122.599 150.264 124.146 147.513 126.896C144.763 129.646 143.216 133.375 143.212 137.265V202.932C143.216 206.822 144.763 210.551 147.513 213.301C150.264 216.051 153.993 217.598 157.882 217.603H334.626C338.515 217.598 342.244 216.051 344.994 213.301C347.744 210.551 349.292 206.822 349.296 202.932V137.265C349.292 133.375 347.745 129.646 344.994 126.896C342.244 124.146 338.515 122.599 334.626 122.594H157.882Z" fill="#3F3D56"/>
<path d="M226.72 147.215H197.032C196.659 147.216 196.29 147.143 195.946 147.001C195.601 146.858 195.288 146.65 195.024 146.386C194.761 146.123 194.551 145.81 194.409 145.466C194.266 145.122 194.192 144.753 194.192 144.38C194.192 144.007 194.266 143.638 194.409 143.294C194.551 142.95 194.761 142.637 195.024 142.374C195.288 142.11 195.601 141.902 195.946 141.759C196.29 141.617 196.659 141.544 197.032 141.545H226.72C227.471 141.546 228.191 141.845 228.722 142.377C229.252 142.908 229.55 143.629 229.55 144.38C229.55 145.131 229.252 145.852 228.722 146.383C228.191 146.915 227.471 147.214 226.72 147.215V147.215Z" fill="#6C63FF"/>
<path d="M293.27 158.811H197.032C196.28 158.811 195.559 158.512 195.028 157.98C194.496 157.449 194.197 156.728 194.197 155.976C194.197 155.224 194.496 154.503 195.028 153.971C195.559 153.439 196.28 153.141 197.032 153.141H293.27C294.022 153.141 294.743 153.439 295.275 153.971C295.807 154.503 296.105 155.224 296.105 155.976C296.105 156.728 295.807 157.449 295.275 157.98C294.743 158.512 294.022 158.811 293.27 158.811V158.811Z" fill="#E6E6E6"/>
<path d="M293.27 172.121H197.032C196.66 172.121 196.291 172.047 195.947 171.905C195.603 171.763 195.291 171.554 195.028 171.29C194.764 171.027 194.556 170.715 194.413 170.371C194.271 170.027 194.197 169.658 194.197 169.286C194.197 168.913 194.271 168.545 194.413 168.201C194.556 167.857 194.764 167.544 195.028 167.281C195.291 167.018 195.603 166.809 195.947 166.666C196.291 166.524 196.66 166.451 197.032 166.451H293.27C294.022 166.451 294.743 166.749 295.275 167.281C295.807 167.813 296.105 168.534 296.105 169.286C296.105 170.038 295.807 170.759 295.275 171.29C294.743 171.822 294.022 172.121 293.27 172.121Z" fill="#E6E6E6"/>
<path d="M293.27 185.431H197.032C196.659 185.431 196.29 185.359 195.946 185.216C195.601 185.074 195.288 184.865 195.024 184.602C194.761 184.339 194.551 184.026 194.409 183.682C194.266 183.338 194.192 182.968 194.192 182.596C194.192 182.223 194.266 181.854 194.409 181.51C194.551 181.166 194.761 180.853 195.024 180.59C195.288 180.326 195.601 180.117 195.946 179.975C196.29 179.833 196.659 179.76 197.032 179.761H293.27C294.021 179.762 294.741 180.061 295.272 180.593C295.802 181.124 296.1 181.845 296.1 182.596C296.1 183.347 295.802 184.067 295.272 184.599C294.741 185.13 294.021 185.43 293.27 185.431V185.431Z" fill="#E6E6E6"/>
<path d="M293.27 198.741H197.032C196.28 198.741 195.559 198.442 195.028 197.911C194.496 197.379 194.197 196.658 194.197 195.906C194.197 195.154 194.496 194.433 195.028 193.901C195.559 193.369 196.28 193.071 197.032 193.071H293.27C294.022 193.071 294.743 193.369 295.275 193.901C295.807 194.433 296.105 195.154 296.105 195.906C296.105 196.658 295.807 197.379 295.275 197.911C294.743 198.442 294.022 198.741 293.27 198.741V198.741Z" fill="#E6E6E6"/>
</svg>
