<svg width="292" height="220" viewBox="0 0 292 220" fill="none" xmlns="http://www.w3.org/2000/svg">
<path d="M292 219.076H0V0H292V219.076Z" fill="white"/>
<path d="M70.7579 45.7228C77.1771 45.7228 82.381 40.5189 82.381 34.0997C82.381 27.6804 77.1771 22.4766 70.7579 22.4766C64.3386 22.4766 59.1348 27.6804 59.1348 34.0997C59.1348 40.5189 64.3386 45.7228 70.7579 45.7228Z" fill="#FFC83D"/>
<path d="M97.6007 26.3511C97.0875 26.352 96.5957 26.5565 96.2332 26.9197C95.8706 27.2829 95.667 27.7751 95.667 28.2883C95.667 28.8014 95.8706 29.2936 96.2332 29.6568C96.5957 30.02 97.0875 30.2245 97.6007 30.2254H239.038C239.551 30.2245 240.043 30.02 240.405 29.6568C240.768 29.2936 240.971 28.8014 240.971 28.2883C240.971 27.7751 240.768 27.2829 240.405 26.9197C240.043 26.5565 239.551 26.352 239.038 26.3511H97.6007Z" fill="#E6E6E6"/>
<path d="M97.6014 37.9741C97.0877 37.973 96.5945 38.1761 96.2304 38.5386C95.8664 38.9011 95.6612 39.3934 95.6602 39.9072C95.6591 40.421 95.8621 40.9141 96.2247 41.2782C96.5872 41.6423 97.0795 41.8474 97.5933 41.8485H187.011C187.266 41.8489 187.518 41.7992 187.754 41.702C187.989 41.6049 188.203 41.4623 188.383 41.2823C188.563 41.1024 188.706 40.8887 188.804 40.6534C188.902 40.4182 188.952 40.166 188.952 39.9113C188.952 39.6566 188.902 39.4044 188.804 39.1692C188.706 38.9339 188.563 38.7202 188.383 38.5403C188.203 38.3604 187.989 38.2177 187.754 38.1206C187.518 38.0234 187.266 37.9737 187.011 37.9741H97.6014Z" fill="#E6E6E6"/>
<path d="M292 219.076H0V0H292V219.076ZM3.26821 215.808H288.732V3.26824H3.26821V215.808Z" fill="#E6E6E6"/>
<path d="M16.3203 66.8091V197.112H275.679V66.8091H16.3203ZM274.432 99.073H211.151V68.056H274.432V99.073ZM146.623 99.073V68.056H209.904V99.073H146.623ZM209.904 100.32V131.337H146.623V100.32H209.904ZM145.376 99.073H82.0952V68.056H145.376V99.073ZM145.376 100.32V131.337H82.0952V100.32H145.376ZM80.8482 131.337H17.5672V100.32H80.8482V131.337ZM80.8482 132.584V163.601H17.5672V132.584H80.8482ZM82.0952 132.584H145.376V163.601H82.0952V132.584ZM145.376 164.848V195.865H82.0952V164.848H145.376ZM146.623 164.848H209.904V195.865H146.623V164.848ZM146.623 163.601V132.584H209.904V163.601H146.623ZM211.151 132.584H274.432V163.601H211.151V132.584ZM211.151 131.337V100.32H274.432V131.337H211.151ZM80.8482 68.056V99.073H17.5672V68.056H80.8482ZM17.5672 164.848H80.8482V195.865H17.5672V164.848ZM211.151 195.865V164.848H274.432V195.865H211.151Z" fill="#E4E4E4"/>
<path d="M122.789 101.865L96.9824 101.28C94.4011 91.2808 95.5632 81.7599 97.6231 72.9863L123.43 73.5706C120.819 82.7949 120.599 92.5316 122.789 101.865V101.865Z" fill="#6C63FF"/>
<path d="M102.045 79.2398L102.059 78.2578L115.429 78.7354L115.414 79.7173L102.045 79.2398Z" fill="white"/>
<path d="M101.989 83.1675L102.003 82.1855L115.372 82.6637L115.359 83.6457L101.989 83.1675Z" fill="white"/>
<path d="M101.933 87.0952L101.947 86.1133L115.316 86.5915L115.303 87.5734L101.933 87.0952Z" fill="white"/>
<path d="M101.877 91.023L101.891 90.041L115.261 90.5192L115.246 91.5012L101.877 91.023Z" fill="white"/>
<path d="M101.82 94.9507L101.834 93.9688L115.204 94.4469L115.19 95.4289L101.82 94.9507Z" fill="white"/>
<path d="M66.6787 174.186L40.872 173.602C38.2907 163.602 39.4529 154.081 41.5128 145.308L67.3193 145.892C64.709 155.116 64.4885 164.853 66.6787 174.186Z" fill="#F0F0F0"/>
<path d="M45.9336 151.561L45.9473 150.579L59.3174 151.056L59.303 152.038L45.9336 151.561Z" fill="white"/>
<path d="M45.8779 155.489L45.8916 154.507L59.2611 154.985L59.2474 155.967L45.8779 155.489Z" fill="white"/>
<path d="M45.8203 159.416L45.8346 158.434L59.2041 158.913L59.1904 159.894L45.8203 159.416Z" fill="white"/>
<path d="M45.7646 163.344L45.7784 162.362L59.1484 162.84L59.1341 163.822L45.7646 163.344Z" fill="white"/>
<path d="M45.709 167.272L45.7227 166.29L59.0928 166.768L59.0784 167.75L45.709 167.272Z" fill="white"/>
<path d="M201.346 141.143L175.539 140.558C172.958 130.559 174.12 121.038 176.18 112.264L201.986 112.849C199.376 122.073 199.156 131.81 201.346 141.143V141.143Z" fill="#F0F0F0"/>
<path d="M180.601 118.518L180.614 117.536L193.984 118.013L193.97 118.995L180.601 118.518Z" fill="white"/>
<path d="M180.544 122.445L180.558 121.463L193.927 121.942L193.913 122.924L180.544 122.445Z" fill="white"/>
<path d="M180.488 126.373L180.503 125.391L193.872 125.869L193.858 126.851L180.488 126.373Z" fill="white"/>
<path d="M180.433 130.301L180.446 129.319L193.816 129.797L193.802 130.779L180.433 130.301Z" fill="white"/>
<path d="M180.376 134.229L180.39 133.247L193.76 133.725L193.745 134.707L180.376 134.229Z" fill="white"/>
<path d="M190.124 134.908L164.317 134.324C161.736 124.324 162.898 114.803 164.958 106.03L190.765 106.614C188.154 115.838 187.934 125.575 190.124 134.908V134.908Z" fill="#6C63FF"/>
<path d="M169.379 112.283L169.393 111.301L182.763 111.779L182.748 112.761L169.379 112.283Z" fill="white"/>
<path d="M169.322 116.211L169.336 115.229L182.705 115.707L182.692 116.689L169.322 116.211Z" fill="white"/>
<path d="M169.266 120.138L169.28 119.156L182.649 119.635L182.636 120.617L169.266 120.138Z" fill="white"/>
<path d="M169.21 124.066L169.224 123.084L182.594 123.562L182.579 124.544L169.21 124.066Z" fill="white"/>
<path d="M169.154 127.994L169.168 127.012L182.538 127.49L182.524 128.472L169.154 127.994Z" fill="white"/>
<path d="M285.304 191.861L259.497 191.276C256.916 181.277 258.078 171.756 260.138 162.982L285.944 163.567C283.334 172.791 283.114 182.528 285.304 191.861Z" fill="#6C63FF"/>
<path d="M264.56 169.235L264.574 168.253L277.943 168.731L277.929 169.713L264.56 169.235Z" fill="white"/>
<path d="M264.504 173.163L264.518 172.181L277.888 172.659L277.873 173.641L264.504 173.163Z" fill="white"/>
<path d="M264.447 177.091L264.462 176.109L277.831 176.587L277.817 177.569L264.447 177.091Z" fill="white"/>
<path d="M264.391 181.019L264.405 180.037L277.774 180.515L277.76 181.497L264.391 181.019Z" fill="white"/>
<path d="M264.335 184.947L264.349 183.965L277.719 184.443L277.704 185.425L264.335 184.947Z" fill="white"/>
<path d="M257.457 106.852L231.65 106.268C229.069 96.2686 230.231 86.7477 232.291 77.9741L258.098 78.5584C255.487 87.7827 255.267 97.5194 257.457 106.852V106.852Z" fill="#F0F0F0"/>
<path d="M236.712 84.2273L236.726 83.2454L250.096 83.7229L250.081 84.7049L236.712 84.2273Z" fill="white"/>
<path d="M236.656 88.155L236.67 87.1731L250.039 87.6513L250.026 88.6332L236.656 88.155Z" fill="white"/>
<path d="M236.6 92.0828L236.614 91.1008L249.983 91.579L249.97 92.561L236.6 92.0828Z" fill="white"/>
<path d="M236.543 96.0105L236.557 95.0286L249.927 95.5068L249.912 96.4887L236.543 96.0105Z" fill="white"/>
<path d="M236.487 99.9385L236.501 98.9565L249.871 99.4347L249.857 100.417L236.487 99.9385Z" fill="white"/>
</svg>
