<svg width="657" height="550" viewBox="0 0 657 550" fill="none" xmlns="http://www.w3.org/2000/svg">
<path d="M420.934 242.656H261.206C256.78 242.651 252.538 240.891 249.408 237.761C246.279 234.632 244.519 230.389 244.514 225.963V17.4983C244.519 13.0728 246.279 8.82995 249.408 5.70066C252.538 2.57136 256.78 0.811139 261.206 0.806152H420.934C425.36 0.811141 429.603 2.57136 432.732 5.70066C435.861 8.82995 437.622 13.0728 437.627 17.4983V225.963C437.622 230.389 435.861 234.632 432.732 237.761C429.603 240.891 425.36 242.651 420.934 242.656Z" fill="white"/>
<path d="M420.934 243.462H261.205C256.566 243.456 252.118 241.611 248.838 238.331C245.558 235.05 243.712 230.602 243.707 225.963V17.4983C243.712 12.8591 245.558 8.41141 248.838 5.13099C252.118 1.85058 256.566 0.00530644 261.205 0H420.934C425.573 0.00522533 430.021 1.85045 433.301 5.13088C436.582 8.4113 438.427 12.859 438.432 17.4983V225.963C438.427 230.602 436.582 235.05 433.301 238.331C430.021 241.611 425.573 243.456 420.934 243.462ZM261.205 1.61233C256.994 1.61708 252.956 3.2923 249.977 6.27046C246.999 9.24863 245.324 13.2865 245.319 17.4983V225.963C245.324 230.175 246.999 234.213 249.977 237.191C252.956 240.169 256.993 241.845 261.205 241.849H420.934C425.145 241.845 429.184 240.169 432.162 237.191C435.14 234.213 436.815 230.175 436.82 225.963V17.4983C436.815 13.2865 435.14 9.24852 432.162 6.27035C429.183 3.29218 425.145 1.617 420.934 1.61233H261.205Z" fill="#6C63FF"/>
<path d="M639.424 242.656H479.695C475.27 242.651 471.027 240.891 467.897 237.761C464.768 234.632 463.008 230.389 463.003 225.963V17.4983C463.008 13.0728 464.768 8.82995 467.898 5.70066C471.027 2.57136 475.27 0.811139 479.695 0.806152H639.424C643.849 0.811139 648.092 2.57136 651.221 5.70066C654.351 8.82995 656.111 13.0728 656.116 17.4983V225.963C656.111 230.389 654.351 234.632 651.221 237.761C648.092 240.891 643.849 242.651 639.424 242.656Z" fill="white"/>
<path d="M338.244 268.456C354.188 268.456 367.113 255.531 367.113 239.586C367.113 223.642 354.188 210.717 338.244 210.717C322.299 210.717 309.374 223.642 309.374 239.586C309.374 255.531 322.299 268.456 338.244 268.456Z" fill="#6C63FF"/>
<path d="M334.305 254.611C333.806 254.611 333.315 254.495 332.869 254.272C332.423 254.049 332.035 253.725 331.736 253.326L323.86 242.825C323.607 242.487 323.423 242.103 323.318 241.695C323.214 241.286 323.19 240.861 323.25 240.444C323.31 240.026 323.451 239.625 323.666 239.262C323.881 238.899 324.165 238.582 324.502 238.329C324.84 238.076 325.224 237.892 325.632 237.787C326.041 237.683 326.466 237.659 326.883 237.719C327.301 237.779 327.702 237.92 328.065 238.135C328.428 238.35 328.745 238.634 328.998 238.971L334.151 245.841L347.385 225.99C347.859 225.284 348.593 224.795 349.427 224.63C350.261 224.464 351.126 224.636 351.833 225.108C352.54 225.579 353.032 226.312 353.2 227.145C353.368 227.978 353.199 228.844 352.729 229.553L336.977 253.181C336.692 253.608 336.309 253.961 335.859 254.21C335.41 254.458 334.908 254.596 334.394 254.61C334.364 254.611 334.335 254.611 334.305 254.611Z" fill="white"/>
<path d="M559.512 109.07L559.493 109.088C557.655 107.219 555.17 106.129 552.551 106.043C549.932 105.956 547.38 106.881 545.424 108.625C543.469 110.369 542.258 112.798 542.045 115.41C541.831 118.021 542.63 120.615 544.277 122.654L544.257 122.671L557.858 137.926L573.113 124.325C574.116 123.432 574.933 122.351 575.518 121.142C576.102 119.933 576.443 118.621 576.521 117.281C576.598 115.94 576.411 114.598 575.969 113.33C575.527 112.062 574.84 110.893 573.946 109.891C573.053 108.889 571.97 108.073 570.761 107.489C569.552 106.905 568.24 106.566 566.899 106.489C565.559 106.413 564.216 106.602 562.949 107.045C561.681 107.488 560.513 108.176 559.512 109.07L559.512 109.07Z" fill="#FA7228"/>
<path d="M313.196 354.141H6.85241C5.03568 354.139 3.29396 353.416 2.00934 352.132C0.724716 350.847 0.00209523 349.105 0 347.289V69.9676C0.00202709 68.1509 0.724627 66.4091 2.00926 65.1245C3.2939 63.8399 5.03566 63.1173 6.85241 63.1152H313.196C315.012 63.1173 316.754 63.8398 318.039 65.1245C319.323 66.4091 320.046 68.1509 320.048 69.9676V347.289C320.046 349.105 319.323 350.847 318.039 352.132C316.754 353.416 315.012 354.139 313.196 354.141Z" fill="#3F3D56"/>
<path d="M306.746 347.692H13.3016C11.4849 347.69 9.74318 346.967 8.45856 345.682C7.17393 344.398 6.45131 342.656 6.44922 340.839V76.4169C6.45125 74.6001 7.17385 72.8584 8.45848 71.5737C9.74312 70.2891 11.4849 69.5665 13.3016 69.5645H306.746C308.563 69.5665 310.305 70.2891 311.589 71.5737C312.874 72.8583 313.596 74.6001 313.599 76.4169V340.839C313.596 342.656 312.874 344.398 311.589 345.682C310.305 346.967 308.563 347.69 306.746 347.692Z" fill="white"/>
<path d="M28.2107 98.292C62.7447 97.6915 97.2824 97.6052 131.824 98.0332C166.36 98.4637 200.885 99.4107 235.398 100.874C254.765 101.696 274.124 102.679 293.475 103.826C295.03 103.918 295.024 101.499 293.475 101.408C258.996 99.3673 224.492 97.8406 189.963 96.8276C155.439 95.8173 120.904 95.3236 86.3602 95.3465C66.976 95.3594 47.5928 95.535 28.2107 95.8735C26.6562 95.9005 26.6513 98.3191 28.2107 98.292V98.292Z" fill="#3F3D56"/>
<path d="M268.879 83.127L283.98 82.0031C285.523 81.8883 285.535 79.4688 283.98 79.5846L268.879 80.7085C267.337 80.8233 267.324 83.2427 268.879 83.127Z" fill="#3F3D56"/>
<path d="M268.879 97.6382L283.98 96.5143C285.523 96.3995 285.535 93.9801 283.98 94.0958L268.879 95.2197C267.337 95.3345 267.324 97.754 268.879 97.6382Z" fill="#3F3D56"/>
<path d="M267.744 91.0113L289.214 92.9619C290.764 93.1026 290.754 90.6833 289.214 90.5434L267.744 88.5928C266.195 88.4521 266.205 90.8714 267.744 91.0113Z" fill="#3F3D56"/>
<path d="M37.1475 79.8741C36.0974 79.8676 35.0686 80.1704 34.1894 80.7446C33.3101 81.3188 32.6194 82.1391 32.2032 83.1033C31.7376 84.0469 31.5938 85.117 31.794 86.1501C31.9941 87.1831 32.527 88.1222 33.3113 88.8237C34.0486 89.4509 34.9329 89.881 35.8816 90.0738C36.8302 90.2665 37.8122 90.2155 38.7358 89.9257C39.6804 89.5958 40.4995 88.9812 41.0804 88.1666C41.6612 87.3519 41.9753 86.3773 41.9793 85.3768C42.0215 84.2667 41.7208 83.1707 41.1181 82.2376C40.5154 81.3045 39.6399 80.5797 38.6107 80.1617C38.3015 80.0777 37.9716 80.1193 37.693 80.2775C37.4143 80.4357 37.2095 80.6977 37.1232 81.0063C37.047 81.3152 37.092 81.6416 37.2491 81.9183C37.4062 82.195 37.6634 82.401 37.9678 82.4938C38.1786 82.5752 37.7753 82.3902 37.9721 82.4974C38.053 82.5415 38.1354 82.5813 38.2149 82.6284C38.2824 82.6684 38.3471 82.7122 38.4128 82.755C38.6385 82.9024 38.3026 82.6469 38.4469 82.7793C38.572 82.8942 38.696 83.0063 38.8097 83.133C38.8527 83.1809 39.0212 83.3141 38.8903 83.221C38.7901 83.1498 38.8516 83.1665 38.8903 83.2237C38.9195 83.2672 38.9505 83.3094 38.9794 83.3531C39.0737 83.4957 39.1594 83.6439 39.2361 83.7968C39.2539 83.8321 39.2701 83.8683 39.2882 83.9035C39.3221 83.9695 39.3712 83.9868 39.2915 83.9041C39.2155 83.8252 39.2639 83.8306 39.2911 83.9066C39.309 83.9565 39.3285 84.0058 39.3459 84.0559C39.4026 84.219 39.4502 84.3851 39.4885 84.5535C39.5062 84.6314 39.5205 84.7097 39.5357 84.788C39.5897 85.0657 39.5279 84.6153 39.5409 84.8216C39.5518 84.9939 39.5645 85.1642 39.5615 85.3372C39.5601 85.4163 39.5567 85.4953 39.5512 85.5742C39.5484 85.6136 39.544 85.6529 39.5414 85.6923C39.5289 85.882 39.5285 85.6229 39.555 85.6052C39.4998 85.7663 39.4631 85.9332 39.4458 86.1026C39.4241 86.1778 39.3984 86.2513 39.3743 86.3257C39.2902 86.5851 39.4533 86.1842 39.3636 86.3616C39.2898 86.5139 39.2073 86.6619 39.1165 86.8047C39.0771 86.8646 38.9286 86.9997 39.0501 86.9057C39.1819 86.8036 38.9809 86.9794 38.9381 87.0246C38.883 87.0827 38.8258 87.1387 38.7666 87.1928C38.7286 87.2298 38.6886 87.2646 38.6467 87.297C38.639 87.2932 38.8487 87.157 38.7356 87.2291C38.5919 87.3207 38.4559 87.4187 38.3045 87.4985C38.2868 87.5078 38.0933 87.5975 38.0941 87.6007C38.0857 87.568 38.3429 87.5101 38.1664 87.5672C38.1293 87.5791 38.0929 87.5936 38.0559 87.6061C37.8952 87.6602 37.7311 87.7039 37.5647 87.7369C37.5266 87.7445 37.4863 87.7483 37.4488 87.758C37.3238 87.7904 37.5683 87.7391 37.5756 87.7433C37.4832 87.7394 37.3907 87.7475 37.3004 87.7677C37.1288 87.7775 36.9568 87.7775 36.7853 87.7676C36.7456 87.7654 36.706 87.7614 36.6663 87.7591C36.5741 87.7538 36.5065 87.6874 36.6291 87.7594C36.7237 87.8151 36.7159 87.7745 36.6321 87.759C36.5929 87.7517 36.5535 87.7456 36.5143 87.7383C36.3445 87.7065 36.1765 87.6654 36.0113 87.6151C35.9223 87.588 35.8352 87.5564 35.7474 87.5258C35.7092 87.5147 35.672 87.5004 35.6362 87.483C35.6356 87.473 35.8623 87.5913 35.7426 87.5268C35.5916 87.4454 35.4354 87.3771 35.2879 87.2881C35.2092 87.2407 35.1336 87.189 35.057 87.1382C35.0234 87.1179 34.9914 87.095 34.9613 87.0697C34.9639 87.0595 35.1488 87.2308 35.0517 87.1383C34.9289 87.0213 34.7976 86.9166 34.6813 86.792C34.6547 86.7635 34.6296 86.7336 34.6031 86.7051L34.5774 86.6757C34.5119 86.5956 34.5106 86.596 34.5738 86.6769C34.6378 86.6958 34.6349 86.7661 34.5741 86.6747C34.5524 86.6422 34.5294 86.6106 34.5078 86.578C34.4096 86.438 34.3258 86.2885 34.2578 86.1316C34.2637 86.127 34.3626 86.4226 34.287 86.1996C34.2727 86.1574 34.2566 86.116 34.2426 86.0737C34.2149 85.9899 34.1904 85.9052 34.1692 85.8196C34.1483 85.7347 34.1376 85.6472 34.1165 85.5628C34.081 85.4203 34.1373 85.6751 34.1309 85.6688C34.1107 85.6488 34.1193 85.5253 34.1178 85.4958C34.1081 85.306 34.1297 85.1219 34.1331 84.9333C34.1357 84.7871 34.121 85.0471 34.118 85.0395C34.1187 84.9957 34.1265 84.9524 34.1409 84.9111C34.1628 84.8116 34.1832 84.7122 34.21 84.6139C34.2407 84.5012 34.276 84.39 34.316 84.2801C34.3309 84.239 34.3491 84.1985 34.363 84.157C34.4139 84.0052 34.2622 84.3404 34.3458 84.2035C34.4609 84.0151 34.5466 83.8112 34.6687 83.6252C34.6977 83.5811 34.8737 83.3354 34.7803 83.4594C34.6872 83.583 34.8758 83.3488 34.9115 83.3091C35.0599 83.1439 35.2343 83.0083 35.3879 82.8501C35.4788 82.7565 35.3244 82.8962 35.3153 82.9028C35.3629 82.8688 35.4095 82.8335 35.4576 82.8003C35.5416 82.7424 35.6276 82.6877 35.7157 82.6362C35.8149 82.578 35.927 82.5347 36.0232 82.4732C36.1368 82.4005 35.9363 82.5051 35.9327 82.5073C35.9846 82.4815 36.0389 82.4609 36.0947 82.4456C36.1884 82.4124 36.5956 82.2366 36.681 82.2916C36.6772 82.2891 36.3718 82.3161 36.6187 82.3003C36.677 82.2965 36.7351 82.2908 36.7935 82.2884C36.9117 82.2835 37.0294 82.2865 37.1475 82.2926C37.4676 82.2905 37.7739 82.1625 38.0002 81.9361C38.2266 81.7098 38.3546 81.4034 38.3567 81.0834C38.3499 80.7648 38.2203 80.4612 37.995 80.2359C37.7697 80.0106 37.4661 79.881 37.1475 79.8741Z" fill="#3F3D56"/>
<path d="M54.0772 79.8741C53.0271 79.8676 51.9983 80.1704 51.119 80.7446C50.2398 81.3188 49.549 82.1391 49.1328 83.1033C48.6673 84.0469 48.5235 85.117 48.7236 86.1501C48.9238 87.1831 49.4567 88.1222 50.241 88.8237C50.9783 89.4509 51.8626 89.881 52.8113 90.0738C53.7599 90.2665 54.7419 90.2155 55.6655 89.9257C56.6101 89.5958 57.4292 88.9812 58.01 88.1666C58.5909 87.3519 58.905 86.3773 58.909 85.3768C58.9512 84.2667 58.6505 83.1707 58.0478 82.2376C57.4451 81.3045 56.5696 80.5797 55.5404 80.1617C55.2312 80.0777 54.9013 80.1193 54.6227 80.2775C54.344 80.4357 54.1392 80.6977 54.0529 81.0063C53.9767 81.3152 54.0217 81.6416 54.1788 81.9183C54.3359 82.195 54.5931 82.401 54.8975 82.4938C55.1082 82.5752 54.705 82.3902 54.9018 82.4974C54.9827 82.5415 55.0651 82.5813 55.1445 82.6284C55.2121 82.6684 55.2768 82.7122 55.3425 82.755C55.5682 82.9024 55.2323 82.6469 55.3766 82.7793C55.5017 82.8942 55.6257 83.0063 55.7394 83.133C55.7824 83.1809 55.9509 83.3141 55.8199 83.221C55.7198 83.1498 55.7813 83.1665 55.8199 83.2237C55.8492 83.2672 55.8802 83.3094 55.9091 83.3531C56.0034 83.4957 56.0891 83.6439 56.1658 83.7968C56.1836 83.8321 56.1998 83.8683 56.2179 83.9035C56.2517 83.9695 56.3008 83.9868 56.2212 83.9041C56.1452 83.8252 56.1936 83.8306 56.2208 83.9066C56.2387 83.9565 56.2582 84.0058 56.2756 84.0559C56.3323 84.219 56.3799 84.3851 56.4182 84.5535C56.4359 84.6314 56.4502 84.7097 56.4654 84.788C56.5194 85.0657 56.4576 84.6153 56.4706 84.8216C56.4815 84.9939 56.4942 85.1642 56.4912 85.3372C56.4898 85.4163 56.4864 85.4953 56.4809 85.5742C56.4781 85.6136 56.4737 85.6529 56.4711 85.6923C56.4586 85.882 56.4582 85.6229 56.4847 85.6052C56.4294 85.7663 56.3928 85.9332 56.3754 86.1026C56.3538 86.1778 56.3281 86.2513 56.304 86.3257C56.2198 86.5851 56.383 86.1842 56.2933 86.3616C56.2195 86.5139 56.137 86.6619 56.0462 86.8047C56.0068 86.8646 55.8583 86.9997 55.9798 86.9057C56.1116 86.8036 55.9106 86.9794 55.8678 87.0246C55.8127 87.0827 55.7555 87.1387 55.6963 87.1928C55.6583 87.2298 55.6183 87.2646 55.5763 87.297C55.5686 87.2932 55.7784 87.157 55.6653 87.2291C55.5216 87.3207 55.3856 87.4187 55.2342 87.4985C55.2165 87.5078 55.0229 87.5975 55.0237 87.6007C55.0154 87.568 55.2726 87.5101 55.096 87.5672C55.059 87.5791 55.0226 87.5936 54.9856 87.6061C54.8248 87.6602 54.6608 87.7039 54.4944 87.7369C54.4563 87.7445 54.416 87.7483 54.3785 87.758C54.2535 87.7904 54.4979 87.7391 54.5053 87.7433C54.4129 87.7394 54.3204 87.7475 54.2301 87.7677C54.0585 87.7775 53.8865 87.7775 53.715 87.7676C53.6753 87.7654 53.6356 87.7614 53.596 87.7591C53.5038 87.7538 53.4362 87.6874 53.5588 87.7594C53.6534 87.8151 53.6456 87.7745 53.5617 87.759C53.5225 87.7517 53.4832 87.7456 53.444 87.7383C53.2742 87.7065 53.1062 87.6654 52.9409 87.6151C52.852 87.588 52.7648 87.5564 52.6771 87.5258C52.6389 87.5147 52.6016 87.5004 52.5658 87.483C52.5653 87.473 52.792 87.5913 52.6723 87.5268C52.5213 87.4454 52.3651 87.3771 52.2176 87.2881C52.1389 87.2407 52.0633 87.189 51.9867 87.1382C51.9531 87.1179 51.9211 87.095 51.891 87.0697C51.8936 87.0595 52.0785 87.2308 51.9814 87.1383C51.8586 87.0213 51.7273 86.9166 51.611 86.792C51.5844 86.7635 51.5592 86.7336 51.5327 86.7051L51.5071 86.6757C51.4415 86.5956 51.4403 86.596 51.5034 86.6769C51.5675 86.6958 51.5646 86.7661 51.5038 86.6747C51.4821 86.6422 51.4591 86.6106 51.4375 86.578C51.3393 86.438 51.2555 86.2885 51.1875 86.1316C51.1934 86.127 51.2923 86.4226 51.2167 86.1996C51.2024 86.1574 51.1863 86.116 51.1723 86.0737C51.1445 85.9899 51.1201 85.9052 51.0989 85.8196C51.078 85.7347 51.0673 85.6472 51.0462 85.5628C51.0107 85.4203 51.067 85.6751 51.0606 85.6688C51.0404 85.6488 51.049 85.5253 51.0475 85.4958C51.0378 85.306 51.0594 85.1219 51.0628 84.9333C51.0654 84.7871 51.0507 85.0471 51.0476 85.0395C51.0484 84.9957 51.0561 84.9524 51.0706 84.9111C51.0925 84.8116 51.1129 84.7122 51.1397 84.6139C51.1704 84.5012 51.2057 84.39 51.2456 84.2801C51.2606 84.239 51.2788 84.1985 51.2927 84.157C51.3436 84.0052 51.1919 84.3404 51.2755 84.2035C51.3906 84.0151 51.4763 83.8112 51.5984 83.6252C51.6273 83.5811 51.8033 83.3354 51.7099 83.4594C51.6169 83.583 51.8055 83.3488 51.8412 83.3091C51.9896 83.1439 52.164 83.0083 52.3176 82.8501C52.4085 82.7565 52.2541 82.8962 52.245 82.9028C52.2926 82.8688 52.3391 82.8335 52.3873 82.8003C52.4713 82.7424 52.5573 82.6877 52.6453 82.6362C52.7445 82.578 52.8567 82.5347 52.9529 82.4732C53.0665 82.4005 52.866 82.5051 52.8624 82.5073C52.9143 82.4815 52.9685 82.4609 53.0244 82.4456C53.118 82.4124 53.5253 82.2366 53.6107 82.2916C53.6068 82.2891 53.3015 82.3161 53.5483 82.3003C53.6067 82.2965 53.6648 82.2908 53.7232 82.2884C53.8414 82.2835 53.9591 82.2865 54.0772 82.2926C54.3972 82.2905 54.7036 82.1625 54.9299 81.9361C55.1563 81.7098 55.2843 81.4034 55.2864 81.0834C55.2796 80.7648 55.15 80.4612 54.9247 80.2359C54.6993 80.0106 54.3957 79.881 54.0772 79.8741Z" fill="#3F3D56"/>
<path d="M71.0069 79.8741C69.9568 79.8676 68.9279 80.1704 68.0487 80.7446C67.1695 81.3188 66.4787 82.1391 66.0625 83.1033C65.5969 84.0469 65.4532 85.117 65.6533 86.1501C65.8535 87.1831 66.3864 88.1222 67.1707 88.8237C67.908 89.4509 68.7923 89.881 69.7409 90.0738C70.6896 90.2665 71.6716 90.2155 72.5952 89.9257C73.5398 89.5958 74.3589 88.9812 74.9397 88.1666C75.5206 87.3519 75.8347 86.3773 75.8387 85.3768C75.8809 84.2667 75.5802 83.1707 74.9775 82.2376C74.3748 81.3045 73.4993 80.5797 72.4701 80.1617C72.1609 80.0777 71.831 80.1193 71.5524 80.2775C71.2737 80.4357 71.0689 80.6977 70.9826 81.0063C70.9063 81.3152 70.9514 81.6416 71.1085 81.9183C71.2656 82.195 71.5228 82.401 71.8272 82.4938C72.0379 82.5752 71.6347 82.3902 71.8315 82.4974C71.9124 82.5415 71.9948 82.5813 72.0742 82.6284C72.1418 82.6684 72.2065 82.7122 72.2722 82.755C72.4979 82.9024 72.1619 82.6469 72.3062 82.7793C72.4314 82.8942 72.5554 83.0063 72.6691 83.133C72.7121 83.1809 72.8805 83.3141 72.7496 83.221C72.6494 83.1498 72.711 83.1665 72.7496 83.2237C72.7789 83.2672 72.8098 83.3094 72.8388 83.3531C72.9331 83.4957 73.0188 83.6439 73.0955 83.7968C73.1132 83.8321 73.1295 83.8683 73.1475 83.9035C73.1814 83.9695 73.2305 83.9868 73.1509 83.9041C73.0748 83.8252 73.1232 83.8306 73.1505 83.9066C73.1684 83.9565 73.1879 84.0058 73.2053 84.0559C73.262 84.219 73.3096 84.3851 73.3478 84.5535C73.3656 84.6314 73.3798 84.7097 73.3951 84.788C73.4491 85.0657 73.3872 84.6153 73.4002 84.8216C73.4111 84.9939 73.4238 85.1642 73.4208 85.3372C73.4195 85.4163 73.416 85.4953 73.4105 85.5742C73.4077 85.6136 73.4034 85.6529 73.4008 85.6923C73.3882 85.882 73.3878 85.6229 73.4144 85.6052C73.3591 85.7663 73.3224 85.9332 73.3051 86.1026C73.2834 86.1778 73.2577 86.2513 73.2336 86.3257C73.1495 86.5851 73.3126 86.1842 73.2229 86.3616C73.1491 86.5139 73.0667 86.6619 72.9759 86.8047C72.9365 86.8646 72.7879 86.9997 72.9094 86.9057C73.0412 86.8036 72.8403 86.9794 72.7974 87.0246C72.7423 87.0827 72.6852 87.1387 72.6259 87.1928C72.588 87.2298 72.5479 87.2646 72.506 87.297C72.4983 87.2932 72.708 87.157 72.595 87.2291C72.4513 87.3207 72.3152 87.4187 72.1638 87.4985C72.1462 87.5078 71.9526 87.5975 71.9534 87.6007C71.945 87.568 72.2023 87.5101 72.0257 87.5672C71.9886 87.5791 71.9522 87.5936 71.9153 87.6061C71.7545 87.6602 71.5904 87.7039 71.424 87.7369C71.386 87.7445 71.3457 87.7483 71.3081 87.758C71.1831 87.7904 71.4276 87.7391 71.4349 87.7433C71.3425 87.7394 71.25 87.7475 71.1597 87.7677C70.9882 87.7775 70.8162 87.7775 70.6446 87.7676C70.6049 87.7654 70.5653 87.7614 70.5256 87.7591C70.4335 87.7538 70.3659 87.6874 70.4885 87.7594C70.5831 87.8151 70.5752 87.7745 70.4914 87.759C70.4522 87.7517 70.4128 87.7456 70.3736 87.7383C70.2038 87.7065 70.0359 87.6654 69.8706 87.6151C69.7817 87.588 69.6945 87.5564 69.6068 87.5258C69.5685 87.5147 69.5313 87.5004 69.4955 87.483C69.495 87.473 69.7217 87.5913 69.602 87.5268C69.4509 87.4454 69.2947 87.3771 69.1472 87.2881C69.0685 87.2407 68.9929 87.189 68.9164 87.1382C68.8827 87.1179 68.8507 87.095 68.8207 87.0697C68.8232 87.0595 69.0082 87.2308 68.9111 87.1383C68.7883 87.0213 68.6569 86.9166 68.5407 86.792C68.5141 86.7635 68.4889 86.7336 68.4624 86.7051L68.4367 86.6757C68.3712 86.5956 68.3699 86.596 68.4331 86.6769C68.4972 86.6958 68.4943 86.7661 68.4334 86.6747C68.4118 86.6422 68.3887 86.6106 68.3671 86.578C68.2689 86.438 68.1852 86.2885 68.1172 86.1316C68.1231 86.127 68.2219 86.4226 68.1463 86.1996C68.132 86.1574 68.116 86.116 68.102 86.0737C68.0742 85.9899 68.0497 85.9052 68.0286 85.8196C68.0077 85.7347 67.997 85.6472 67.9759 85.5628C67.9404 85.4203 67.9967 85.6751 67.9902 85.6688C67.9701 85.6488 67.9787 85.5253 67.9772 85.4958C67.9675 85.306 67.9891 85.1219 67.9925 84.9333C67.9951 84.7871 67.9804 85.0471 67.9773 85.0395C67.9781 84.9957 67.9858 84.9524 68.0003 84.9111C68.0222 84.8116 68.0426 84.7122 68.0694 84.6139C68.1 84.5012 68.1354 84.39 68.1753 84.2801C68.1903 84.239 68.2085 84.1985 68.2224 84.157C68.2733 84.0052 68.1216 84.3404 68.2052 84.2035C68.3203 84.0151 68.4059 83.8112 68.5281 83.6252C68.557 83.5811 68.733 83.3354 68.6396 83.4594C68.5466 83.583 68.7352 83.3488 68.7709 83.3091C68.9193 83.1439 69.0937 83.0083 69.2473 82.8501C69.3382 82.7565 69.1838 82.8962 69.1747 82.9028C69.2223 82.8688 69.2688 82.8335 69.317 82.8003C69.4009 82.7424 69.487 82.6877 69.575 82.6362C69.6743 82.578 69.7864 82.5347 69.8826 82.4732C69.9962 82.4005 69.7957 82.5051 69.7921 82.5073C69.844 82.4815 69.8982 82.4609 69.9541 82.4456C70.0477 82.4124 70.455 82.2366 70.5404 82.2916C70.5365 82.2891 70.2312 82.3161 70.478 82.3003C70.5364 82.2965 70.5945 82.2908 70.6529 82.2884C70.7711 82.2835 70.8888 82.2865 71.0069 82.2926C71.3269 82.2905 71.6333 82.1625 71.8596 81.9361C72.0859 81.7098 72.214 81.4034 72.2161 81.0834C72.2093 80.7648 72.0797 80.4612 71.8544 80.2359C71.6291 80.0106 71.3254 79.881 71.0069 79.8741Z" fill="#3F3D56"/>
<path d="M35.6754 143.386L36.7538 184.665L37.8322 225.944C37.9683 231.153 37.2325 238.258 42.5157 241.309C44.7197 242.581 47.3548 242.86 49.8526 242.93C53.1683 243.022 56.4947 242.954 59.8117 242.957L101.128 243.001C106.556 243.007 112.519 242.849 116.408 238.476C119.654 234.827 120.574 229.767 120.9 225.046C121.329 218.815 121.123 212.507 121.179 206.264L121.365 185.518L121.55 164.773C121.606 158.47 121.904 152.117 121.628 145.818C121.417 141.013 120.605 135.881 117.383 132.104C113.712 127.802 107.909 127.221 102.616 127.052C88.926 126.614 75.2339 126.244 61.5432 125.84C58.3936 125.747 55.2348 125.578 52.0833 125.62C49.2807 125.566 46.4895 125.993 43.8317 126.884C39.4052 128.541 35.9474 132.516 36.1013 137.447C36.1113 138.479 36.3393 139.498 36.7703 140.437C37.2013 141.375 37.8256 142.212 38.6024 142.893C39.7838 143.892 41.5029 142.19 40.3125 141.183C37.086 138.453 38.6486 133.339 41.469 130.916C45.5556 127.406 51.9621 127.976 56.9452 128.123L95.7284 129.267C98.7361 129.356 101.752 129.385 104.756 129.562C107.438 129.72 110.239 130.069 112.639 131.36C116.79 133.593 118.41 138.175 118.955 142.606C119.641 148.182 119.228 153.935 119.178 159.536L119.002 179.274L118.652 218.349C118.61 223.101 118.683 228.007 117.084 232.551C116.397 234.659 115.138 236.535 113.449 237.971C111.327 239.511 108.791 240.378 106.17 240.459C103.226 240.697 100.249 240.582 97.2984 240.579L87.2213 240.568L67.8733 240.547L57.7963 240.536C54.8517 240.533 51.8858 240.637 48.9449 240.475C46.6877 240.351 44.169 239.96 42.506 238.282C40.6432 236.401 40.4703 233.496 40.3848 231.002C39.4943 205.028 39.0251 179.032 38.3463 153.051L38.0938 143.386C38.0532 141.832 35.6346 141.826 35.6753 143.386L35.6754 143.386Z" fill="#3F3D56"/>
<path d="M188.846 143.386L189.925 184.665L191.003 225.944C191.139 231.153 190.403 238.258 195.687 241.309C197.891 242.581 200.526 242.86 203.023 242.93C206.339 243.022 209.666 242.954 212.983 242.957L254.299 243.001C259.727 243.007 265.689 242.849 269.579 238.476C272.825 234.827 273.745 229.767 274.071 225.046C274.5 218.815 274.294 212.507 274.35 206.264L274.535 185.518L274.721 164.773C274.777 158.47 275.075 152.117 274.799 145.818C274.588 141.013 273.776 135.881 270.554 132.104C266.883 127.802 261.08 127.221 255.786 127.052C242.097 126.614 228.405 126.244 214.714 125.84C211.564 125.747 208.406 125.578 205.254 125.62C202.452 125.566 199.66 125.993 197.003 126.884C192.576 128.541 189.118 132.516 189.272 137.447C189.282 138.479 189.51 139.498 189.941 140.437C190.372 141.375 190.996 142.212 191.773 142.893C192.955 143.892 194.674 142.19 193.483 141.183C190.257 138.453 191.819 133.339 194.64 130.916C198.726 127.406 205.133 127.976 210.116 128.123L248.899 129.267C251.907 129.356 254.923 129.385 257.927 129.562C260.609 129.72 263.41 130.069 265.81 131.36C269.961 133.593 271.581 138.175 272.126 142.606C272.812 148.182 272.399 153.935 272.349 159.536L272.173 179.274L271.823 218.349C271.781 223.101 271.854 228.007 270.255 232.551C269.568 234.659 268.309 236.535 266.62 237.971C264.498 239.511 261.962 240.378 259.341 240.459C256.397 240.697 253.42 240.582 250.469 240.579L240.392 240.568L221.044 240.547L210.967 240.536C208.023 240.533 205.057 240.637 202.116 240.475C199.859 240.351 197.34 239.96 195.677 238.282C193.814 236.401 193.641 233.496 193.556 231.002C192.665 205.028 192.196 179.032 191.517 153.051L191.265 143.386C191.224 141.832 188.805 141.826 188.846 143.386L188.846 143.386Z" fill="#3F3D56"/>
<path d="M77.4207 251.938C76.5753 251.124 75.5348 250.542 74.3991 250.246C73.2635 249.951 72.071 249.952 70.9362 250.251C69.8086 250.56 68.7637 251.116 67.8766 251.877C66.9895 252.639 66.2823 253.588 65.806 254.655C63.521 259.522 65.5681 265.194 68.7253 269.167C71.659 272.86 76.4253 275.293 81.0683 273.355C83.1837 272.448 84.9611 270.901 86.1498 268.93C87.3384 266.959 87.8783 264.665 87.6934 262.371C87.108 256.968 82.7172 252.592 77.561 251.272C76.0525 250.886 75.4089 253.218 76.9181 253.604C78.7105 254.038 80.3696 254.904 81.7513 256.125C83.133 257.347 84.1953 258.887 84.846 260.613C85.4168 262.301 85.4415 264.126 84.9165 265.829C84.3915 267.532 83.3435 269.027 81.9212 270.1C74.7145 275.634 66.4714 265.053 67.2794 258.13C67.3657 257.109 67.6857 256.121 68.2148 255.243C68.7439 254.365 69.4678 253.62 70.3306 253.067C71.1707 252.573 72.1477 252.362 73.1168 252.467C74.0859 252.571 74.9954 252.986 75.7106 253.648C75.9399 253.862 76.2434 253.979 76.5572 253.974C76.8709 253.968 77.1703 253.841 77.3922 253.62C77.6141 253.398 77.7411 253.098 77.7464 252.784C77.7517 252.471 77.635 252.167 77.4207 251.938L77.4207 251.938Z" fill="#3F3D56"/>
<path d="M225.172 168.004C222.349 167.033 219.073 166.07 216.153 167.207C213.398 168.281 211.881 170.909 211.582 173.761C211.249 176.942 212.602 179.976 214.035 182.73C215.76 186.043 217.538 189.329 219.291 192.626L225.352 204.034C225.49 204.257 225.697 204.429 225.941 204.526C226.185 204.622 226.453 204.637 226.707 204.568C226.96 204.5 227.184 204.351 227.346 204.145C227.508 203.939 227.599 203.686 227.606 203.423C227.263 199.598 227.87 195.748 229.373 192.214C230.923 188.642 233.456 185.626 235.257 182.191C236.914 179.029 238.02 175.402 237.141 171.838C236.431 168.956 234.335 166.151 231.314 165.48C229.788 165.094 228.174 165.265 226.762 165.962C225.35 166.659 224.234 167.837 223.613 169.285C223.043 170.733 225.38 171.361 225.945 169.927C226.75 167.885 229.566 167.259 231.442 168.041C233.887 169.059 235.047 171.982 235.045 174.466C235.041 177.862 233.301 180.965 231.536 183.754C229.753 186.571 227.878 189.296 226.693 192.436C225.386 195.942 224.872 199.695 225.187 203.423L227.441 202.813C223.505 195.406 219.352 188.074 215.637 180.554C214.208 177.662 212.923 173.762 215.113 170.877C217.359 167.92 221.646 169.345 224.529 170.336C226.004 170.843 226.637 168.508 225.172 168.004L225.172 168.004Z" fill="#3F3D56"/>
<path d="M71.2448 258.694L74.806 265.602C74.9294 265.802 75.1083 265.963 75.3209 266.064C75.5336 266.166 75.771 266.203 76.0046 266.173C76.2382 266.142 76.458 266.045 76.6375 265.892C76.817 265.74 76.9485 265.538 77.0162 265.313C77.9439 260.531 80.1666 256.096 83.442 252.491C84.4898 251.344 82.7842 249.629 81.7318 250.781C78.1584 254.68 75.721 259.483 74.6841 264.67L76.8943 264.381L73.3331 257.474C72.6197 256.09 70.532 257.312 71.2448 258.694Z" fill="#3F3D56"/>
<path d="M111.639 226.808L83.5016 251.661C83.343 251.801 83.1366 251.875 82.9251 251.867C82.7136 251.86 82.5131 251.771 82.3648 251.621C82.2165 251.47 82.1318 251.267 82.1281 251.056C82.1244 250.844 82.202 250.639 82.3449 250.483L108.562 221.858L111.639 226.808Z" fill="#3F3D56"/>
<path d="M149.151 529.266H160.21L165.474 486.608H149.151V529.266Z" fill="#EDD0D4"/>
<path d="M143.314 548.427H151.246L152.661 540.939L156.287 548.427H177.322C178.33 548.427 179.312 548.105 180.124 547.507C180.937 546.91 181.537 546.068 181.837 545.106C182.137 544.143 182.121 543.11 181.792 542.157C181.464 541.204 180.839 540.38 180.009 539.808L163.211 528.206V520.636L145.542 521.691L143.314 548.427Z" fill="#2F2E41"/>
<path d="M243.881 529.266H254.94L260.203 486.608H243.881V529.266Z" fill="#EDD0D4"/>
<path d="M238.043 548.427H245.974L247.39 540.939L251.015 548.427H272.051C273.059 548.427 274.041 548.105 274.853 547.507C275.665 546.91 276.265 546.068 276.565 545.106C276.865 544.143 276.85 543.11 276.521 542.157C276.192 541.204 275.567 540.38 274.737 539.808L257.939 528.206V520.636L240.271 521.691L238.043 548.427Z" fill="#2F2E41"/>
<path d="M211.916 303.155L155.826 296.923C155.826 296.923 130.898 329.33 140.246 357.375V388.605L147.101 510.687L164.24 511.622L169.226 456.155L173.9 434.031L177.837 349.739L197.894 373.89L199.763 383.239L205.996 387.601L217.525 403.444L241.207 500.715L262.078 501.027C262.078 501.027 250.867 400.066 249.621 400.066C248.374 400.066 217.213 332.135 217.213 332.135V328.54L215.967 321.54C215.967 321.54 219.083 319.047 217.837 317.801C216.59 316.554 215.344 312.815 215.344 312.815L211.916 303.155Z" fill="#2F2E41"/>
<path d="M191.662 216.216L202.88 228.68L218.461 234.289L209.736 285.393L212.629 300.088L216.903 316.243C200.437 325.351 180.879 312.772 162.911 307.185L145.232 314.996L146.167 293.495L146.647 239.322C146.665 237.242 147.111 235.187 147.957 233.286C148.802 231.385 150.03 229.678 151.563 228.271C153.095 226.864 154.901 225.787 156.868 225.107C158.834 224.427 160.92 224.158 162.994 224.318L174.835 215.593L191.662 216.216Z" fill="#FFC83D"/>
<path d="M89.8974 239.077C89.9859 240.001 90.2761 240.895 90.7475 241.696C91.219 242.496 91.8602 243.184 92.626 243.71C93.3918 244.235 94.2636 244.587 95.1799 244.739C96.0963 244.892 97.0349 244.841 97.9297 244.592L110.791 263.152L115.163 252.263L102.28 236.307C101.761 234.832 100.719 233.598 99.3512 232.84C97.9834 232.081 96.3849 231.851 94.8586 232.192C93.3323 232.533 91.9842 233.423 91.0699 234.692C90.1555 235.961 89.7383 237.521 89.8974 239.077Z" fill="#EDD0D4"/>
<path d="M157.237 224.584C157.237 224.584 140.497 223.842 142.372 257.11L135.25 271.724L120.927 258.356L120.862 254.101L108.749 240.562L99.0254 251.31L105.498 261.205L106.745 266.732L110.687 269.14L120.972 284.864L125.729 289.547C125.729 289.547 131.765 295.561 138.591 294.655C140.412 294.418 142.185 293.897 143.845 293.11C147.092 291.564 150.3 288.793 152.997 284.101C158.65 274.411 163.718 264.392 168.174 254.097L157.237 224.584Z" fill="#FFC83D"/>
<path d="M230.521 187.026C230.265 187.919 230.208 188.858 230.355 189.775C230.501 190.692 230.847 191.567 231.367 192.336C231.888 193.105 232.571 193.751 233.368 194.228C234.165 194.705 235.057 195.001 235.981 195.096L241.169 217.073L249.219 208.535L243.059 188.974C243.115 187.411 242.596 185.882 241.6 184.676C240.604 183.47 239.2 182.671 237.655 182.431C236.109 182.191 234.529 182.526 233.215 183.373C231.9 184.22 230.941 185.52 230.521 187.026Z" fill="#EDD0D4"/>
<path d="M194.895 231.327C194.895 231.327 203.746 217.099 230.128 237.452L246.209 239.84L243.279 220.467L239.806 218.008L235.486 200.363L249.848 198.418L254.352 209.351L258.205 213.504L257.963 218.117L265.12 235.49L266.293 242.062C266.293 242.062 267.842 250.44 263.235 255.559C262.011 256.927 260.578 258.095 258.991 259.019C255.88 260.824 251.78 261.903 246.385 261.476C235.197 260.661 224.067 259.177 213.056 257.033L194.895 231.327Z" fill="#FFC83D"/>
<path d="M193.645 211.02C204.107 205.301 207.951 192.185 202.233 181.723C196.514 171.262 183.397 167.417 172.936 173.136C162.475 178.854 158.63 191.971 164.349 202.432C170.067 212.894 183.184 216.738 193.645 211.02Z" fill="#EDD0D4"/>
<path d="M211.694 184.63C211.629 184.654 211.573 184.678 211.508 184.702C211.385 184.756 211.258 184.802 211.129 184.839C210.305 185.14 209.447 185.335 208.574 185.42C208.202 185.459 207.827 185.478 207.453 185.476C206.973 185.477 206.494 185.444 206.018 185.38C205.489 185.313 204.966 185.205 204.454 185.057C204.211 184.991 203.972 184.913 203.737 184.823C202.136 184.25 200.689 183.313 199.512 182.086C198.334 180.86 197.457 179.376 196.949 177.753V177.745C196.895 177.586 196.849 177.425 196.812 177.261C196.574 176.353 196.455 175.419 196.457 174.48V174.464C196.457 172.176 197.176 169.945 198.513 168.087C199.319 166.951 200.247 166.763 199.73 165.459C198.08 161.301 204.882 157.923 208.888 159.76C209.033 159.746 209.178 159.741 209.323 159.743C212.024 159.743 213.016 163.734 214.62 165.983L214.573 165.998C214.165 166.14 213.812 166.406 213.562 166.758C213.312 167.111 213.179 167.532 213.181 167.964C213.183 168.396 213.32 168.817 213.572 169.167C213.825 169.518 214.181 169.781 214.59 169.919C215.661 170.271 216.743 170.582 217.837 170.852C221.434 175.124 217.266 187.582 211.694 184.63Z" fill="#2F2E41"/>
<path d="M209.678 196.053C208.477 200.592 206.268 205.017 202.616 207.96C198.956 210.902 181.761 217.852 180.326 211.862C181.285 216.046 180.697 217.642 179.133 219.133C178.867 218.771 178.585 218.424 178.294 218.085C177.225 216.847 175.942 215.812 174.505 215.03C174.462 217.556 174.637 220.08 175.029 222.576C174.385 223.167 173.771 223.791 173.191 224.446C170.434 216.159 164.37 206.225 168.798 198.697C170.555 195.709 169.097 195.296 167.548 194.948C164.844 194.342 163.38 183.235 162.743 180.534C161.953 177.148 161.647 173.254 163.751 170.481C165.855 167.708 171.16 167.603 172.224 170.917L174.465 167.885C177.367 161.541 185.026 162.831 191.951 163.669C198.876 164.5 204.978 169.385 208.082 175.633C211.178 181.88 211.46 189.305 209.678 196.053Z" fill="#2F2E41"/>
<path d="M198.832 167.01C198.675 170.84 199.647 174.632 201.628 177.914C203.608 181.195 206.509 183.823 209.971 185.469C211.377 186.11 212.607 184.027 211.192 183.381C208.099 181.945 205.502 179.622 203.732 176.707C201.962 173.792 201.098 170.417 201.25 167.01C201.335 165.455 198.916 165.46 198.832 167.01Z" fill="#FF6584"/>
<path d="M570.871 527.109C570.239 527.138 569.612 526.972 569.077 526.633C568.542 526.294 568.124 525.799 567.879 525.215C567.635 524.631 567.576 523.986 567.711 523.368C567.846 522.749 568.167 522.187 568.632 521.757L568.844 520.916C568.816 520.848 568.788 520.781 568.76 520.714C565.916 513.936 547.767 532.831 546.982 539.201C546.637 542.017 546.782 544.872 547.413 547.638C541.534 534.821 538.482 520.891 538.462 506.791C538.461 503.253 538.658 499.718 539.051 496.202C539.377 493.319 539.828 490.457 540.405 487.616C543.556 472.198 550.321 457.748 560.145 445.451C565.763 445.764 570.687 444.909 571.162 434.026C571.247 432.091 572.684 430.415 573 428.508C572.464 428.578 571.919 428.622 571.382 428.657C571.215 428.666 571.039 428.675 570.872 428.683L570.809 428.686C570.22 428.713 569.635 428.568 569.126 428.27C568.617 427.972 568.204 427.534 567.939 427.007C567.673 426.48 567.565 425.888 567.629 425.302C567.692 424.716 567.923 424.16 568.295 423.702C568.527 423.417 568.759 423.133 568.991 422.848C569.342 422.409 569.703 421.978 570.054 421.539C570.095 421.497 570.133 421.453 570.169 421.407C570.573 420.906 570.978 420.414 571.382 419.913C570.644 418.768 569.651 417.808 568.481 417.109C564.427 414.737 558.835 416.38 555.907 420.045C552.97 423.709 552.416 428.85 553.436 433.429C554.439 437.325 556.098 441.022 558.342 444.361C558.123 444.642 557.894 444.915 557.674 445.196C553.656 450.36 550.154 455.906 547.218 461.753C548.048 455.268 537.891 431.848 533.962 426.888C529.244 420.929 519.568 423.53 518.737 431.083C518.729 431.156 518.721 431.229 518.714 431.302C519.297 431.631 519.868 431.98 520.427 432.35C521.129 432.818 521.673 433.488 521.988 434.271C522.302 435.054 522.373 435.914 522.19 436.738C522.008 437.562 521.58 438.311 520.964 438.888C520.348 439.465 519.572 439.843 518.737 439.971L518.652 439.985C510.842 451.13 535.879 480.139 542.146 473.625C539.196 481.98 537.346 490.683 536.642 499.515C536.243 504.725 536.267 509.959 536.712 515.166L536.686 514.982C535.293 503.641 511.405 486.781 504.429 488.185C500.41 488.994 496.452 488.81 497.063 492.862C497.072 492.926 497.082 492.991 497.092 493.056C498.175 493.496 499.229 494.004 500.249 494.576C500.832 494.905 501.403 495.254 501.962 495.623C502.664 496.092 503.208 496.762 503.523 497.545C503.838 498.328 503.908 499.188 503.726 500.012C503.543 500.836 503.116 501.585 502.499 502.162C501.883 502.739 501.107 503.117 500.273 503.245L500.187 503.258C500.126 503.267 500.073 503.276 500.011 503.285C496.456 515.511 522.821 535.241 538.849 528.963H538.858C540.446 535.862 542.748 542.577 545.725 549H570.257C570.345 548.728 570.424 548.446 570.503 548.174C568.232 548.317 565.952 548.181 563.715 547.77C565.535 545.538 567.355 543.288 569.175 541.056C569.216 541.014 569.254 540.97 569.289 540.924C570.213 539.781 571.145 538.648 572.068 537.505L572.068 537.504C572.118 534.002 571.716 530.508 570.872 527.109L570.871 527.109ZM542.779 471.876L542.792 471.859L542.779 471.894V471.876ZM537.345 520.834L537.134 520.36C537.143 520.017 537.143 519.674 537.134 519.323C537.134 519.226 537.117 519.13 537.117 519.033C537.196 519.639 537.266 520.246 537.354 520.852L537.345 520.834Z" fill="#31BD64"/>
<path d="M656 548H0V550H656V548Z" fill="#31BD64"/>
</svg>
