<svg width="408" height="349" viewBox="0 0 408 349" fill="none" xmlns="http://www.w3.org/2000/svg">
<path d="M134.765 347.483C151.548 347.483 165.153 333.878 165.153 317.095C165.153 300.312 151.548 286.707 134.765 286.707C117.982 286.707 104.377 300.312 104.377 317.095C104.377 333.878 117.982 347.483 134.765 347.483Z" fill="#6C63FF"/>
<path d="M342.474 346.288C352.857 343.174 363.897 339.926 372.132 332.521C379.49 325.904 384.458 315.8 381.41 305.877C378.367 295.974 369.255 289.371 359.846 286.087C354.51 284.224 348.928 283.191 343.347 282.379C337.281 281.496 331.187 280.773 325.097 280.078C300.436 277.26 275.683 275.539 250.837 274.914C238.577 274.606 226.319 274.614 214.057 274.791C203.107 274.95 191.574 274.946 181.415 270.297C173.515 266.682 166.346 260.106 164.144 251.463C161.603 241.486 166.29 231.327 173.013 224.101C176.557 220.293 180.699 217.087 184.971 214.14C189.606 210.942 194.403 207.971 199.303 205.198C208.955 199.738 219.046 195.091 229.471 191.306C234.614 189.439 239.833 187.827 245.098 186.341C249.543 185.085 254.002 183.828 258.298 182.118C266.603 178.812 274.503 173.211 276.615 164.03C278.616 155.328 275.241 145.882 269.326 139.418C262.481 131.939 252.161 128.66 242.267 128.13C231.16 127.534 220.308 130.311 209.868 133.835C198.733 137.593 187.838 141.915 176.468 144.959C165.192 147.975 153.699 150.109 142.092 151.342C136.41 151.946 130.556 152.629 124.84 152.166C120.05 151.778 115.284 150.371 111.753 146.975C108.726 144.063 106.923 140.062 107.542 135.839C107.655 135.072 108.822 135.398 108.71 136.16C107.955 141.301 111.453 146.038 115.764 148.464C120.747 151.268 126.81 151.272 132.357 150.952C144.384 150.226 156.331 148.501 168.072 145.795C179.609 143.163 190.733 139.4 201.846 135.381C212.399 131.564 223.189 127.838 234.464 127.012C244.247 126.294 254.538 127.718 263.061 132.824C270.552 137.312 276.06 144.797 277.815 153.385C279.53 161.778 277.155 170.226 270.794 176.082C264.208 182.146 255.179 184.739 246.763 187.126C236.09 190.155 225.646 193.695 215.536 198.291C205.289 202.937 195.461 208.456 186.162 214.786C177.186 220.913 168.327 228.622 165.488 239.552C164.166 244.643 164.41 250.043 166.623 254.852C168.59 259.128 171.83 262.725 175.605 265.499C184.611 272.119 195.962 273.478 206.841 273.613C219.06 273.765 231.278 273.353 243.501 273.553C268.409 273.962 293.267 275.476 318.073 278.096C324.289 278.753 330.497 279.48 336.698 280.275C342.275 280.991 347.87 281.702 353.353 282.973C363.103 285.234 372.589 289.58 378.649 297.836C381.338 301.415 383.005 305.656 383.47 310.106C383.894 314.75 382.755 319.403 380.653 323.535C376 332.68 367.284 338.496 358.028 342.318C353.07 344.364 347.928 345.915 342.795 347.454C342.048 347.679 341.728 346.512 342.474 346.289L342.474 346.288Z" fill="white"/>
<path d="M108.412 145.996C113.702 145.996 117.991 141.559 117.991 136.086C117.991 130.614 113.702 126.177 108.412 126.177C103.122 126.177 98.833 130.614 98.833 136.086C98.833 141.559 103.122 145.996 108.412 145.996Z" fill="white"/>
<path d="M175.795 163.832C181.085 163.832 185.374 159.543 185.374 154.253C185.374 148.963 181.085 144.674 175.795 144.674C170.504 144.674 166.216 148.963 166.216 154.253C166.216 159.543 170.504 163.832 175.795 163.832Z" fill="#F2F2F2"/>
<path d="M232.607 127.499C237.898 127.499 242.186 123.21 242.186 117.92C242.186 112.629 237.898 108.341 232.607 108.341C227.317 108.341 223.028 112.629 223.028 117.92C223.028 123.21 227.317 127.499 232.607 127.499Z" fill="white"/>
<path d="M194.221 54.1704C202.977 54.1704 210.076 47.072 210.076 38.3157C210.076 29.5593 202.977 22.4609 194.221 22.4609C185.465 22.4609 178.366 29.5593 178.366 38.3157C178.366 47.072 185.465 54.1704 194.221 54.1704Z" fill="#F2F2F2"/>
<path d="M115.608 132.123C124.364 132.123 131.462 125.024 131.462 116.268C131.462 107.511 124.364 100.413 115.608 100.413C106.851 100.413 99.7529 107.511 99.7529 116.268C99.7529 125.024 106.851 132.123 115.608 132.123Z" fill="white"/>
<path d="M15.8547 169.778C24.6111 169.778 31.7095 162.679 31.7095 153.923C31.7095 145.167 24.6111 138.068 15.8547 138.068C7.0984 138.068 0 145.167 0 153.923C0 162.679 7.0984 169.778 15.8547 169.778Z" fill="#F2F2F2"/>
<path d="M121.553 228.572C130.309 228.572 137.408 221.474 137.408 212.718C137.408 203.961 130.309 196.863 121.553 196.863C112.797 196.863 105.698 203.961 105.698 212.718C105.698 221.474 112.797 228.572 121.553 228.572Z" fill="#F2F2F2"/>
<path d="M235.179 261.603C243.935 261.603 251.034 254.505 251.034 245.748C251.034 236.992 243.935 229.894 235.179 229.894C226.423 229.894 219.324 236.992 219.324 245.748C219.324 254.505 226.423 261.603 235.179 261.603Z" fill="#F2F2F2"/>
<path d="M367.962 254.336C376.718 254.336 383.817 247.238 383.817 238.482C383.817 229.725 376.718 222.627 367.962 222.627C359.206 222.627 352.107 229.725 352.107 238.482C352.107 247.238 359.206 254.336 367.962 254.336Z" fill="#F2F2F2"/>
<path d="M131.51 0.00228846C84.0172 0.337761 45.1307 38.9322 44.456 86.4214C44.4498 86.8598 44.4469 89.9428 44.4473 93.975C44.4476 99.8871 46.7963 105.557 50.9766 109.738C55.157 113.918 60.8268 116.267 66.739 116.268H66.739C69.6698 116.267 72.5716 115.689 75.2789 114.567C77.9861 113.444 80.4456 111.799 82.5168 109.726C84.588 107.652 86.2304 105.191 87.35 102.482C88.4697 99.774 89.0446 96.8715 89.0421 93.9408C89.0398 91.1979 89.0384 89.2994 89.0384 89.1829C89.0369 81.8435 90.946 74.6301 94.5778 68.2523C98.2097 61.8745 103.439 56.552 109.752 52.8083C116.065 49.0646 123.243 47.0288 130.582 46.901C137.92 46.7732 145.165 48.5578 151.605 52.0794C158.044 55.601 163.456 60.7382 167.307 66.9857C171.159 73.2331 173.318 80.3757 173.572 87.7107C173.826 95.0457 172.166 102.32 168.756 108.819C165.346 115.318 160.303 120.818 154.122 124.776L154.13 124.786C154.13 124.786 122.402 145.212 112.729 173.232L112.737 173.234C111.036 178.974 110.174 184.93 110.178 190.917C110.178 193.378 110.323 214.912 110.603 232.389C110.7 238.42 113.165 244.17 117.465 248.399C121.764 252.629 127.554 254.998 133.585 254.997H133.585C136.616 254.997 139.617 254.397 142.415 253.233C145.213 252.069 147.753 250.363 149.889 248.214C152.025 246.064 153.715 243.513 154.862 240.708C156.009 237.903 156.589 234.899 156.571 231.868C156.474 215.862 156.421 197.225 156.421 195.872C156.421 178.667 173.019 161.524 186.653 150.344C202.353 137.471 213.651 119.928 218.189 100.138C219.193 96.0639 219.747 91.8917 219.84 87.6965C219.84 76.1267 217.551 64.6713 213.104 53.9902C208.657 43.3092 202.14 33.6136 193.93 25.4621C185.719 17.3107 175.977 10.8644 165.264 6.49486C154.551 2.12528 143.079 -0.0812911 131.51 0.00228846Z" fill="#6C63FF"/>
<path d="M407.547 348.143H86.7334C86.6134 348.143 86.4984 348.073 86.4136 347.949C86.3289 347.825 86.2812 347.658 86.2812 347.483C86.2812 347.308 86.3289 347.14 86.4136 347.016C86.4984 346.893 86.6134 346.823 86.7334 346.822H407.547C407.667 346.822 407.782 346.892 407.867 347.016C407.952 347.14 408 347.308 408 347.483C408 347.658 407.952 347.826 407.867 347.95C407.782 348.074 407.667 348.143 407.547 348.143Z" fill="#31BD64"/>
<path d="M264.943 135.423C275.889 135.423 284.762 126.55 284.762 115.605C284.762 104.659 275.889 95.7861 264.943 95.7861C253.998 95.7861 245.125 104.659 245.125 115.605C245.125 126.55 253.998 135.423 264.943 135.423Z" fill="#2F2E41"/>
<path d="M228.321 339.641H220.223L216.369 308.402H228.323L228.321 339.641Z" fill="#EDD0D4"/>
<path d="M214.437 337.326H230.056V347.161H204.603C204.603 345.869 204.857 344.59 205.351 343.397C205.845 342.204 206.57 341.12 207.483 340.207C208.396 339.293 209.48 338.569 210.674 338.075C211.867 337.581 213.146 337.326 214.437 337.326Z" fill="#2F2E41"/>
<path d="M291.079 339.64H282.98L279.127 308.401H291.081L291.079 339.64Z" fill="#EDD0D4"/>
<path d="M277.196 337.326H292.815V347.161H267.361C267.361 345.869 267.616 344.59 268.11 343.397C268.604 342.204 269.329 341.12 270.242 340.207C271.155 339.293 272.239 338.569 273.432 338.075C274.625 337.581 275.904 337.326 277.196 337.326Z" fill="#2F2E41"/>
<path d="M261.931 135.539C270.892 135.539 278.157 128.275 278.157 119.314C278.157 110.353 270.892 103.088 261.931 103.088C252.97 103.088 245.706 110.353 245.706 119.314C245.706 128.275 252.97 135.539 261.931 135.539Z" fill="#EDD0D4"/>
<path d="M271.603 187.882L278.863 171.202C280.626 167.289 281.131 162.925 280.309 158.713C279.487 154.5 277.377 150.647 274.272 147.684C273.634 147.054 272.956 146.464 272.243 145.92C268.661 143.118 264.247 141.591 259.699 141.58C256.641 141.592 253.621 142.263 250.846 143.549C250.608 143.654 250.377 143.767 250.139 143.879C249.684 144.097 249.235 144.335 248.798 144.579C245.954 146.212 243.534 148.491 241.732 151.231C239.931 153.971 238.798 157.096 238.427 160.355L235.223 187.202C234.417 189.309 205.667 265.412 215.722 323.513C215.829 324.134 216.131 324.704 216.585 325.14C217.039 325.576 217.621 325.856 218.245 325.938L228.438 327.325C229.183 327.427 229.938 327.243 230.552 326.81C231.166 326.377 231.593 325.728 231.748 324.993L248.851 243.467C248.958 242.96 249.231 242.504 249.628 242.171C250.024 241.838 250.52 241.648 251.038 241.63C251.555 241.613 252.063 241.769 252.481 242.074C252.899 242.38 253.203 242.816 253.343 243.315L277.509 329.049C277.681 329.672 278.053 330.221 278.567 330.613C279.081 331.004 279.71 331.216 280.356 331.216C280.549 331.215 280.741 331.197 280.931 331.163L293.383 328.765C294.107 328.63 294.754 328.229 295.198 327.641C295.642 327.053 295.85 326.321 295.781 325.587C293.951 305.181 284.227 202.964 271.603 187.882Z" fill="#FFC83D"/>
<path d="M198.875 132.816C198.762 133.781 198.863 134.758 199.169 135.68C199.475 136.602 199.979 137.445 200.646 138.151C201.314 138.856 202.128 139.407 203.031 139.764C203.934 140.121 204.904 140.276 205.874 140.217L214.943 162.013L221.804 151.843L212.139 132.705C211.933 131.083 211.139 129.593 209.907 128.517C208.676 127.442 207.093 126.855 205.458 126.869C203.823 126.883 202.249 127.496 201.036 128.592C199.823 129.688 199.054 131.191 198.875 132.816L198.875 132.816Z" fill="#EDD0D4"/>
<path d="M261.031 209.829C261.995 209.713 262.923 209.388 263.748 208.876C264.573 208.363 265.275 207.676 265.806 206.863C266.337 206.05 266.683 205.13 266.82 204.168C266.956 203.207 266.881 202.227 266.598 201.298L285.68 187.4L274.192 183.098L257.832 196.955C256.303 197.534 255.039 198.653 254.28 200.101C253.521 201.55 253.319 203.226 253.714 204.813C254.108 206.4 255.071 207.787 256.419 208.711C257.768 209.636 259.409 210.033 261.031 209.829Z" fill="#EDD0D4"/>
<path d="M229.924 176.543C229.192 176.542 228.463 176.471 227.745 176.328C226.009 175.998 224.382 175.246 223.005 174.138C221.629 173.03 220.546 171.601 219.852 169.976L207.146 154.482C206.877 154.155 206.682 153.774 206.572 153.364C206.463 152.955 206.442 152.527 206.512 152.109C206.581 151.691 206.739 151.293 206.975 150.941C207.211 150.589 207.52 150.292 207.88 150.069L216.92 144.473C217.254 144.266 217.625 144.128 218.013 144.066C218.4 144.003 218.796 144.018 219.178 144.11C219.56 144.201 219.92 144.368 220.237 144.599C220.554 144.83 220.822 145.122 221.026 145.458L229.981 160.212L247.132 147.537C248.497 146.821 250.075 146.62 251.576 146.971C253.078 147.322 254.403 148.202 255.309 149.449C256.216 150.696 256.643 152.228 256.513 153.764C256.384 155.301 255.706 156.739 254.603 157.817L237.486 173.432C235.474 175.426 232.756 176.544 229.924 176.543Z" fill="#FFC83D"/>
<path d="M276.267 199.844C276.244 199.844 276.22 199.844 276.197 199.844C275.78 199.834 275.37 199.736 274.993 199.557C274.616 199.379 274.281 199.123 274.01 198.806L265.973 189.43C265.699 189.111 265.496 188.737 265.377 188.333C265.259 187.93 265.227 187.506 265.285 187.089C265.342 186.672 265.487 186.273 265.711 185.916C265.934 185.56 266.231 185.255 266.581 185.022L281.63 174.989L267.996 158.597C267.203 157.275 266.912 155.712 267.177 154.193C267.441 152.674 268.243 151.3 269.436 150.324C270.63 149.348 272.134 148.833 273.676 148.874C275.217 148.916 276.692 149.51 277.831 150.549L294.402 166.743C295.706 167.934 296.701 169.424 297.303 171.085C297.904 172.746 298.094 174.528 297.855 176.278C297.616 178.028 296.956 179.694 295.932 181.133C294.908 182.572 293.549 183.741 291.974 184.54L278.43 198.911C278.152 199.205 277.817 199.44 277.445 199.601C277.073 199.761 276.672 199.844 276.267 199.844Z" fill="#FFC83D"/>
<path d="M257.806 165.295C257.677 165.295 257.548 165.287 257.42 165.271C256.861 165.203 256.332 164.976 255.898 164.616C255.463 164.257 255.141 163.78 254.969 163.243L248.93 144.727C248.778 144.259 248.802 143.752 248.995 143.299C249.189 142.847 249.54 142.48 249.983 142.266L250.179 142.174C250.356 142.089 250.532 142.006 250.712 141.926C253.528 140.62 256.594 139.938 259.698 139.929C263.729 139.936 267.669 141.12 271.035 143.335C271.487 143.636 271.802 144.101 271.914 144.632C272.025 145.163 271.923 145.716 271.631 146.172L260.301 163.921C260.036 164.343 259.667 164.69 259.231 164.93C258.795 165.171 258.304 165.296 257.806 165.295Z" fill="#EDD0D4"/>
<path d="M280.568 106.757C284.15 106.757 287.053 103.854 287.053 100.272C287.053 96.6906 284.15 93.7871 280.568 93.7871C276.986 93.7871 274.083 96.6906 274.083 100.272C274.083 103.854 276.986 106.757 280.568 106.757Z" fill="#2F2E41"/>
<path d="M258.337 93.144C253.782 93.144 249.413 94.9536 246.192 98.1748C242.971 101.396 241.161 105.765 241.161 110.32V117.587H250.099L254.373 110.32L255.656 117.587H282.78L275.513 110.32C275.513 105.765 273.703 101.396 270.482 98.1748C267.261 94.9536 262.892 93.144 258.337 93.144Z" fill="#2F2E41"/>
<path d="M283.901 95.8302C284.619 93.5878 286.103 91.6699 288.095 90.4139C290.086 89.1579 292.456 88.6441 294.789 88.9627C298.922 89.6537 302.189 92.9757 304.136 96.686C306.083 100.396 306.982 104.549 308.291 108.529C309.6 112.51 311.456 116.512 314.76 119.089C318.065 121.665 323.135 122.364 326.38 119.714C326.01 122.476 324.78 125.052 322.865 127.077C320.95 129.102 318.447 130.474 315.709 130.999C312.972 131.523 310.139 131.174 307.611 130C305.083 128.826 302.988 126.887 301.623 124.458C299.91 121.411 299.468 117.84 298.96 114.383C298.452 110.925 297.793 107.347 295.748 104.513C293.704 101.678 289.877 99.8272 286.629 101.118L283.901 95.8302Z" fill="#2F2E41"/>
<path d="M73.0338 105.724C67.1216 105.723 61.4518 103.374 57.2714 99.1932C53.0909 95.0125 50.7423 89.3426 50.7419 83.4304C50.7416 79.3982 50.7445 76.3153 50.7506 75.8768C50.9385 62.0657 54.4167 48.4983 60.8969 36.3003C50.2502 50.8753 44.3961 68.3989 44.1445 86.4467C44.1383 86.8851 44.1354 89.968 44.1358 94.0003C44.1361 99.9124 46.4848 105.582 50.6652 109.763C54.8456 113.944 60.5154 116.293 66.4276 116.293C71.2858 116.291 76.0106 114.704 79.8842 111.772C83.7579 108.84 86.5686 104.724 87.8895 100.048C83.8077 103.709 78.5164 105.73 73.0338 105.724Z" fill="#3F3D56"/>
<path d="M133.021 46.9759C139.856 47.3023 146.509 49.2826 152.41 52.7469C158.311 56.2112 163.283 61.0558 166.899 66.8649C170.515 72.674 172.668 79.2739 173.171 86.098C173.675 92.922 172.514 99.7664 169.79 106.043C173.731 101.415 176.627 95.9924 178.282 90.1437C179.936 84.2951 180.31 78.1584 179.378 72.1521C178.446 66.1458 176.23 60.4111 172.881 55.3389C169.532 50.2667 165.128 45.9764 159.97 42.7603C154.813 39.5443 149.022 37.4781 142.994 36.7028C136.965 35.9275 130.84 36.4612 125.037 38.2675C119.233 40.0738 113.887 43.1103 109.364 47.17C104.84 51.2296 101.245 56.2169 98.8232 61.7919C103.008 56.8686 108.268 52.9723 114.198 50.4035C120.127 47.8347 126.567 46.662 133.021 46.9759Z" fill="#3F3D56"/>
<path d="M139.88 244.453C133.848 244.454 128.059 242.084 123.759 237.855C119.459 233.625 116.995 227.875 116.897 221.845C116.617 204.367 116.472 182.834 116.472 180.373C116.468 174.386 117.33 168.43 119.031 162.69L119.023 162.688C120.028 159.806 121.241 157.002 122.653 154.297C118.318 160.074 114.868 166.464 112.417 173.258L112.425 173.26C110.724 179 109.862 184.956 109.866 190.943C109.866 193.404 110.011 214.937 110.291 232.415C110.389 238.445 112.853 244.195 117.153 248.425C121.452 252.654 127.242 255.024 133.273 255.022C138.246 255.021 143.085 253.408 147.063 250.425C151.042 247.441 153.945 243.248 155.339 238.475C151.113 242.328 145.598 244.461 139.88 244.453Z" fill="#3F3D56"/>
<path d="M128.07 340.071C123.753 338.191 119.933 335.333 116.909 331.723C113.886 328.114 111.743 323.851 110.649 319.271C109.556 314.691 109.542 309.92 110.608 305.334C111.674 300.748 113.792 296.472 116.793 292.844C113.313 295.385 110.413 298.637 108.286 302.385C106.159 306.132 104.853 310.289 104.455 314.58C104.057 318.871 104.576 323.197 105.978 327.272C107.38 331.346 109.633 335.076 112.587 338.214C115.54 341.351 119.128 343.825 123.11 345.47C127.093 347.115 131.38 347.894 135.687 347.756C139.994 347.618 144.222 346.565 148.091 344.668C151.96 342.77 155.381 340.072 158.127 336.751C153.844 339.882 148.815 341.836 143.541 342.418C138.268 343.001 132.934 342.191 128.07 340.071Z" fill="#3F3D56"/>
</svg>
