<?xml version="1.0" encoding="utf-8"?><svg viewBox="0 0 70 71" xmlns="http://www.w3.org/2000/svg" xmlns:xlink="http://www.w3.org/1999/xlink"><style>:root>svg{display:none}:root>svg:target{display:block}</style><svg fill="none" viewBox="0 0 70 71" id="discord" xmlns="http://www.w3.org/2000/svg"><path d="M70 35.919c0 19.33-15.67 35-35 35s-35-15.67-35-35 15.67-35 35-35 35 15.67 35 35z" fill="url(#apaint0_linear_114_170)"/><path d="M51.476 20.627a39.523 39.523 0 00-9.68-2.908.208.208 0 00-.158.065 29.368 29.368 0 00-1.201 2.384 37.792 37.792 0 00-10.88 0 21.613 21.613 0 00-1.225-2.384c-.022-.044-.09-.065-.158-.065a39.822 39.822 0 00-9.68 2.908c-.022 0-.045.022-.067.044-6.166 8.9-7.866 17.56-7.027 26.134a.12.12 0 00.068.109c4.08 2.887 8.001 4.636 11.878 5.795.067.022.136 0 .158-.043a28.037 28.037 0 002.426-3.806c.045-.087 0-.175-.091-.196a28.36 28.36 0 01-3.717-1.706c-.091-.044-.091-.175-.023-.24.25-.176.498-.373.748-.548a.143.143 0 01.159-.021c7.797 3.433 16.207 3.433 23.913 0a.143.143 0 01.16.021c.248.197.498.372.747.57.09.065.09.196-.023.24-1.178.678-2.425 1.224-3.717 1.706-.09.021-.113.13-.09.196a33.267 33.267 0 002.425 3.806c.068.021.136.043.204.021 3.899-1.159 7.82-2.908 11.9-5.795a.12.12 0 00.068-.11c.997-9.906-1.655-18.5-7.027-26.133-.022-.022-.045-.044-.09-.044zm-24.368 20.95c-2.335 0-4.284-2.077-4.284-4.635 0-2.56 1.904-4.637 4.284-4.637 2.403 0 4.307 2.1 4.284 4.637 0 2.558-1.904 4.636-4.284 4.636zm15.8 0c-2.335 0-4.285-2.077-4.285-4.635 0-2.56 1.904-4.637 4.284-4.637 2.403 0 4.307 2.1 4.285 4.637 0 2.558-1.882 4.636-4.285 4.636z" fill="#fff"/><defs><linearGradient id="apaint0_linear_114_170" x1="35" y1=".918" x2="35" y2="70.918" gradientUnits="userSpaceOnUse"><stop stop-color="#5562F5"/><stop offset="1" stop-color="#5662F6"/></linearGradient></defs></svg><svg fill="none" viewBox="0 0 70 71" id="facebook" xmlns="http://www.w3.org/2000/svg"><path d="M70 35.919c0 19.33-15.67 35-35 35s-35-15.67-35-35 15.67-35 35-35 35 15.67 35 35z" fill="url(#bpaint0_linear_114_146)"/><path d="M29.4 46.419v23.8a.7.7 0 00.7.7h9.8a.7.7 0 00.7-.7v-23.8a.7.7 0 01.7-.7h7a.7.7 0 00.7-.7v-8.4a.7.7 0 00-.7-.7h-7a.7.7 0 01-.7-.7v-6.3c0-2.8 3.5-4.2 4.9-4.2h4.2a.7.7 0 00.7-.7v-8.4a.7.7 0 00-.7-.7h-9.1c-6.72 0-11.2 7-11.2 11.2v9.1a.7.7 0 01-.7.7h-7a.7.7 0 00-.7.7v8.4a.7.7 0 00.7.7h7a.7.7 0 01.7.7z" fill="#fff"/><defs><linearGradient id="bpaint0_linear_114_146" x1="35" y1=".918" x2="35" y2="70.918" gradientUnits="userSpaceOnUse"><stop stop-color="#18ACFE"/><stop offset="1" stop-color="#0165E1"/></linearGradient></defs></svg><svg fill="none" viewBox="0 0 70 71" id="instagram" xmlns="http://www.w3.org/2000/svg"><path d="M35.011.918c-14.612 0-18.885.016-19.716.084-2.999.25-4.865.722-6.897 1.734A13.972 13.972 0 004.376 5.68C2.156 7.985.809 10.82.322 14.192c-.237 1.637-.306 1.97-.32 10.33-.005 2.787 0 6.454 0 11.373 0 14.6.017 18.87.087 19.699.242 2.918.7 4.753 1.668 6.762 1.852 3.843 5.39 6.73 9.556 7.806 1.443.371 3.037.576 5.082.673.867.038 9.702.064 18.542.064 8.84 0 17.68-.01 18.525-.053 2.368-.112 3.744-.297 5.265-.69a14.654 14.654 0 009.556-7.822c.95-1.96 1.432-3.865 1.65-6.63.047-.604.067-10.217.067-19.818 0-9.602-.022-19.198-.069-19.8-.22-2.811-.703-4.7-1.683-6.698-.805-1.635-1.699-2.856-2.996-4.105-2.316-2.211-5.148-3.557-8.522-4.044-1.635-.236-1.96-.306-10.327-.32H35.011z" fill="url(#cpaint0_radial_114_154)"/><path d="M35.011.918c-14.612 0-18.885.016-19.716.084-2.999.25-4.865.722-6.897 1.734A13.972 13.972 0 004.376 5.68C2.156 7.985.809 10.82.322 14.192c-.237 1.637-.306 1.97-.32 10.33-.005 2.787 0 6.454 0 11.373 0 14.6.017 18.87.087 19.699.242 2.918.7 4.753 1.668 6.762 1.852 3.843 5.39 6.73 9.556 7.806 1.443.371 3.037.576 5.082.673.867.038 9.702.064 18.542.064 8.84 0 17.68-.01 18.525-.053 2.368-.112 3.744-.297 5.265-.69a14.654 14.654 0 009.556-7.822c.95-1.96 1.432-3.865 1.65-6.63.047-.604.067-10.217.067-19.818 0-9.602-.022-19.198-.069-19.8-.22-2.811-.703-4.7-1.683-6.698-.805-1.635-1.699-2.856-2.996-4.105-2.316-2.211-5.148-3.557-8.522-4.044-1.635-.236-1.96-.306-10.327-.32H35.011z" fill="url(#cpaint1_radial_114_154)"/><path d="M34.995 10.07c-7.018 0-7.899.031-10.655.157-2.751.126-4.63.561-6.272 1.2-1.7.66-3.142 1.543-4.578 2.98-1.437 1.436-2.32 2.878-2.982 4.577-.641 1.644-1.077 3.522-1.201 6.272-.123 2.756-.156 3.638-.156 10.656 0 7.018.032 7.896.156 10.652.127 2.751.563 4.63 1.201 6.272.66 1.7 1.544 3.142 2.98 4.578 1.436 1.437 2.878 2.322 4.576 2.983 1.645.639 3.523 1.074 6.273 1.2 2.757.125 3.637.156 10.655.156 7.018 0 7.896-.03 10.653-.156 2.75-.126 4.63-.562 6.275-1.2 1.699-.66 3.138-1.546 4.574-2.983 1.438-1.436 2.32-2.878 2.983-4.577.635-1.644 1.071-3.522 1.2-6.272.124-2.756.156-3.635.156-10.653 0-7.018-.032-7.899-.156-10.655-.129-2.751-.565-4.63-1.2-6.272-.662-1.7-1.545-3.142-2.983-4.578-1.437-1.437-2.875-2.32-4.576-2.98-1.647-.639-3.526-1.074-6.277-1.2-2.756-.126-3.634-.156-10.654-.156h.008zm-2.318 4.657h2.318c6.9 0 7.717.025 10.442.149 2.52.115 3.887.536 4.798.89 1.206.468 2.065 1.028 2.97 1.933.904.904 1.464 1.765 1.933 2.971.354.91.775 2.278.89 4.797.124 2.724.15 3.543.15 10.439s-.026 7.715-.15 10.439c-.115 2.52-.536 3.887-.89 4.797-.468 1.205-1.03 2.064-1.934 2.968-.904.904-1.763 1.464-2.97 1.933-.91.355-2.278.775-4.797.89-2.724.124-3.543.151-10.442.151-6.9 0-7.718-.027-10.442-.15-2.52-.117-3.887-.538-4.799-.892-1.206-.468-2.067-1.028-2.971-1.933-.905-.904-1.465-1.763-1.934-2.97-.354-.91-.775-2.277-.89-4.796-.124-2.725-.149-3.543-.149-10.444 0-6.9.025-7.714.149-10.438.115-2.52.536-3.887.89-4.798.468-1.206 1.03-2.067 1.934-2.972.904-.904 1.765-1.464 2.971-1.934.911-.355 2.28-.775 4.799-.89 2.384-.108 3.307-.14 8.124-.146v.006zm16.112 4.291a3.1 3.1 0 10-.001 6.203 3.1 3.1 0 000-6.204v.001zm-13.794 3.623c-7.329 0-13.27 5.942-13.27 13.27 0 7.33 5.941 13.269 13.27 13.269s13.268-5.94 13.268-13.268c0-7.329-5.94-13.27-13.269-13.27zm0 4.657a8.614 8.614 0 110 17.228 8.614 8.614 0 010-17.228z" fill="#fff"/><defs><radialGradient id="cpaint0_radial_114_154" cx="0" cy="0" r="1" gradientUnits="userSpaceOnUse" gradientTransform="matrix(0 -69.3563 64.5244 0 18.594 76.29)"><stop stop-color="#FD5"/><stop offset=".1" stop-color="#FD5"/><stop offset=".5" stop-color="#FF543E"/><stop offset="1" stop-color="#C837AB"/></radialGradient><radialGradient id="cpaint1_radial_114_154" cx="0" cy="0" r="1" gradientUnits="userSpaceOnUse" gradientTransform="rotate(78.678 -9.498 -4.173) scale(31.0029 127.827)"><stop stop-color="#3771C8"/><stop offset=".128" stop-color="#3771C8"/><stop offset="1" stop-color="#60F" stop-opacity="0"/></radialGradient></defs></svg><svg fill="none" viewBox="0 0 70 71" id="telegram" xmlns="http://www.w3.org/2000/svg"><path d="M35 70.918c19.33 0 35-15.67 35-35s-15.67-35-35-35-35 15.67-35 35 15.67 35 35 35z" fill="url(#dpaint0_linear_114_168)"/><path fill-rule="evenodd" clip-rule="evenodd" d="M15.843 35.549c10.203-4.445 17.007-7.376 20.411-8.792 9.72-4.043 11.74-4.745 13.056-4.768.29-.005.937.066 1.356.407.355.287.452.675.499.947.046.273.104.893.058 1.378-.527 5.535-2.806 18.965-3.965 25.164-.49 2.622-1.457 3.502-2.392 3.588-2.033.187-3.576-1.343-5.545-2.634-3.08-2.02-4.82-3.276-7.81-5.247-3.456-2.277-1.216-3.528.753-5.574.516-.535 9.471-8.68 9.644-9.42.022-.092.042-.436-.162-.618-.205-.182-.507-.12-.725-.07-.31.07-5.23 3.322-14.763 9.757-1.397.96-2.662 1.427-3.796 1.402-1.25-.027-3.654-.706-5.44-1.287-2.192-.713-3.934-1.09-3.783-2.3.08-.63.947-1.274 2.604-1.933z" fill="#fff"/><defs><linearGradient id="dpaint0_linear_114_168" x1="35" y1=".918" x2="35" y2="70.399" gradientUnits="userSpaceOnUse"><stop stop-color="#2CA4E0"/><stop offset="1" stop-color="#0D83BF"/></linearGradient></defs></svg><svg fill="none" viewBox="0 0 62 71" id="tiktok" xmlns="http://www.w3.org/2000/svg"><path d="M45.724 26.187a27.306 27.306 0 0015.972 5.129V19.814a16.12 16.12 0 01-3.355-.352v9.054c-5.955 0-11.469-1.9-15.971-5.13v23.472c0 11.742-9.485 21.26-21.185 21.26a21.03 21.03 0 01-11.793-3.596c3.847 3.948 9.212 6.396 15.147 6.396 11.7 0 21.185-9.518 21.185-21.26V26.187zm4.138-11.604a16.058 16.058 0 01-4.138-9.386V3.718h-3.179c.8 4.58 3.53 8.493 7.316 10.865zm-33.07 40.929a9.707 9.707 0 01-1.977-5.888c0-5.37 4.339-9.724 9.69-9.724a9.68 9.68 0 012.94.456v-11.76a21.288 21.288 0 00-3.352-.193v9.153a9.667 9.667 0 00-2.941-.456c-5.353 0-9.69 4.354-9.69 9.725a9.728 9.728 0 005.33 8.687z" fill="#FF004F"/><path d="M42.369 23.386a27.31 27.31 0 0015.972 5.13v-9.054a16.019 16.019 0 01-8.48-4.88 16.105 16.105 0 01-7.317-10.864h-8.349v45.94c-.019 5.355-4.35 9.692-9.69 9.692a9.665 9.665 0 01-7.715-3.838 9.728 9.728 0 01-5.33-8.687c0-5.37 4.338-9.725 9.69-9.725 1.026 0 2.014.16 2.941.456v-9.153c-11.494.238-20.737 9.663-20.737 21.255a21.226 21.226 0 006.038 14.865 21.031 21.031 0 0011.793 3.596c11.7 0 21.184-9.519 21.184-21.26V23.385z" fill="#000"/><path d="M58.341 19.462v-2.448a15.926 15.926 0 01-8.48-2.431 16.005 16.005 0 008.48 4.88zM42.545 3.718a16.444 16.444 0 01-.176-1.32V.918H30.841v45.94c-.018 5.356-4.349 9.692-9.69 9.692a9.622 9.622 0 01-4.36-1.037 9.665 9.665 0 007.714 3.837c5.34 0 9.672-4.336 9.69-9.692V3.718h8.35zM24.092 28.403v-2.606a21.314 21.314 0 00-2.907-.198C9.485 25.6 0 35.118 0 46.86c0 7.36 3.728 13.848 9.392 17.663a21.226 21.226 0 01-6.038-14.864c0-11.591 9.244-21.016 20.738-21.255z" fill="#00F2EA"/></svg><svg fill="none" viewBox="0 0 67 71" id="twitch" xmlns="http://www.w3.org/2000/svg"><path d="M4.562.918L0 13.093v48.69h16.72v9.135h9.127l9.12-9.135h13.682L66.895 43.53V.918H4.562zm6.078 6.084h50.175V40.48L50.169 51.134H33.448l-9.117 9.123v-9.122H10.64V7.002zM27.366 37.44h6.082V19.182h-6.082v18.259zm16.723 0h6.08V19.182h-6.08v18.259z" fill="#5A3E85"/></svg><svg fill="none" viewBox="0 0 70 58" id="twitter" xmlns="http://www.w3.org/2000/svg"><path fill-rule="evenodd" clip-rule="evenodd" d="M70 7.654a28.812 28.812 0 01-8.25 2.256 14.36 14.36 0 006.308-7.947A28.776 28.776 0 0158.94 5.45 14.35 14.35 0 0048.456.918c-7.926 0-14.36 6.433-14.36 14.36 0 1.128.126 2.224.377 3.268-11.937-.595-22.516-6.318-29.596-15.006a14.315 14.315 0 00-1.942 7.216c0 4.981 2.537 9.378 6.39 11.947a14.327 14.327 0 01-6.505-1.796v.177c0 6.955 4.95 12.762 11.518 14.077a14.544 14.544 0 01-3.78.502c-.93 0-1.828-.094-2.705-.261 1.828 5.701 7.133 9.858 13.41 9.973a28.802 28.802 0 01-17.838 6.15c-1.159 0-2.297-.072-3.425-.198a40.639 40.639 0 0022.014 6.454c26.41 0 40.853-21.878 40.853-40.853 0-.627-.01-1.243-.041-1.86a29.042 29.042 0 007.164-7.435l.01.021z" fill="#41ABE1"/></svg><svg fill="none" viewBox="0 0 70 49" id="youtube" xmlns="http://www.w3.org/2000/svg"><path d="M28 34.59V14.18l18.2 10.205L28 34.59z" fill="#fff"/><path d="M68.523 8.017a8.446 8.446 0 00-2.262-3.801 8.812 8.812 0 00-3.912-2.198C56.898.585 35 .585 35 .585s-21.899 0-27.349 1.433A8.812 8.812 0 003.74 4.216a8.447 8.447 0 00-2.262 3.8 85.31 85.31 0 00-1.475 16.37 85.311 85.311 0 001.475 16.368 8.447 8.447 0 002.262 3.8 8.812 8.812 0 003.912 2.198C13.101 48.185 35 48.185 35 48.185s21.899 0 27.349-1.433a8.811 8.811 0 003.912-2.197 8.446 8.446 0 002.262-3.801 85.307 85.307 0 001.475-16.369 85.306 85.306 0 00-1.475-16.368zM28 34.585v-20.4l18.174 10.2L28 34.585z" fill="#FC0100"/></svg></svg>